M48
INCH
T01C0.014
T02C0.0256
T03C0.0315
T04C0.0335
T05C0.0354
T06C0.0433
%
T01
X+002730Y+005110
X+001980Y+005220
X+001980Y+005570
X+002200Y+006620
X+004090Y+007600
X+006010Y+007430
X+006840Y+007290
X+007910Y+007520
X+008000Y+007030
X+008350Y+007030
X+008700Y+007030
X+009050Y+007030
X+009400Y+007030
X+008540Y+004970
X+008380Y+002630
X+008730Y+002630
X+008030Y+002630
X+007680Y+002630
X+006510Y+001780
X+009960Y+002750
X+006060Y+005770
X+007150Y+008560
X+005990Y+009370
X+006960Y+010160
X+000210Y+007670
T02
X+001544Y+006265G85X+001465Y+006265
X+001544Y+004355G85X+001465Y+004355
T03
X+001328Y+002194
X+001328Y+001406
X+002226Y+009522
X+003014Y+009522
T04
X+000451Y+006698G85X+000195Y+006698
X+000451Y+003922G85X+000195Y+003922
T05
X+007630Y+000920
X+008630Y+000920
X+009630Y+000920
X+009630Y+001920
X+008630Y+001920
X+007630Y+001920
T06
X+012610Y+007640
X+012610Y+006640
X+012610Y+005640
X+012610Y+004640
X+012610Y+003640
T00
M30
