G04 DipTrace 2.4.0.2*
%INTopSilk.gbr*%
%MOIN*%
%ADD10C,0.0098*%
%ADD12C,0.003*%
%ADD26C,0.0354*%
%ADD29C,0.005*%
%ADD31C,0.006*%
%ADD34O,0.0162X0.0154*%
%ADD38C,0.0154*%
%ADD42C,0.0158*%
%ADD47C,0.0188*%
%ADD104C,0.0062*%
%FSLAX44Y44*%
G04*
G70*
G90*
G75*
G01*
%LNTopSilk*%
%LPD*%
X6066Y3822D2*
D10*
X5554D1*
X7134Y2404D2*
X10126D1*
Y436D1*
X7134D1*
Y2404D1*
D26*
X6799Y731D3*
X1997Y2981D2*
D29*
Y1997D1*
X2194D1*
Y1603D1*
X1997D1*
Y619D1*
X226D1*
Y2981D1*
X1997D1*
X3801Y8853D2*
X2817D1*
Y8656D1*
X2423D1*
Y8853D1*
X1439D1*
Y10624D1*
X3801D1*
Y8853D1*
X10220Y6210D2*
D31*
Y3450D1*
X7460D1*
Y6070D1*
X7600Y6210D2*
X10220D1*
X7600D2*
X7460Y6070D1*
X7619Y5910D2*
G02X7619Y5910I141J0D01*
G01*
D34*
X6000Y9230D3*
D38*
X817Y7390D3*
X910Y7892D2*
D10*
X2091D1*
Y8088D1*
X910D1*
Y7892D1*
X13110Y8140D2*
X12110D1*
Y3140D1*
X13110D1*
Y8140D1*
X14610Y14105D2*
X12110D1*
Y-2825D1*
X14610D1*
Y14105D1*
X-523Y6904D2*
Y3716D1*
Y6905D2*
X-759D1*
X-523Y3716D2*
X-759D1*
Y6904D2*
Y3716D1*
X-221Y6806D2*
X-523D1*
Y3814D2*
X-221D1*
D42*
X1841Y5823D3*
X10420Y9435D2*
D10*
X9920D1*
Y8185D1*
X10420D1*
Y9435D1*
D47*
X10139Y9216D3*
X5950Y3225D2*
D10*
X7250D1*
Y2555D1*
X5950D1*
Y3225D1*
D38*
X27Y8830D3*
X120Y9332D2*
D10*
X1301D1*
Y9528D1*
X120D1*
Y9332D1*
D38*
X2317Y7390D3*
X2410Y7892D2*
D10*
X3591D1*
Y8088D1*
X2410D1*
Y7892D1*
D38*
X5403Y9240D3*
X5310Y8738D2*
D10*
X4129D1*
Y8542D1*
X5310D1*
Y8738D1*
X5399Y521D2*
X4533D1*
X5399D2*
Y2686D1*
X4966Y3119D2*
X5399Y2686D1*
X4966Y3119D2*
X4533D1*
X3667Y521D2*
X2801D1*
Y2686D1*
X3234Y3119D2*
X2801Y2686D1*
X3667Y3119D2*
X3234D1*
X3391Y2883D2*
Y2371D1*
X3135Y2627D2*
X3647D1*
X3391Y1229D2*
Y718D1*
X8904Y9608D2*
X9416D1*
X166Y7905D2*
D12*
Y7991D1*
X156Y8020D1*
X147Y8030D1*
X128Y8039D1*
X109D1*
X89Y8030D1*
X80Y8020D1*
X70Y7991D1*
Y7905D1*
X271D1*
X166Y7972D2*
X271Y8039D1*
X70Y8216D2*
Y8120D1*
X156Y8111D1*
X147Y8120D1*
X137Y8149D1*
Y8177D1*
X147Y8206D1*
X166Y8225D1*
X195Y8235D1*
X214D1*
X242Y8225D1*
X262Y8206D1*
X271Y8177D1*
Y8149D1*
X262Y8120D1*
X252Y8111D1*
X233Y8101D1*
X5988Y4644D2*
X5969Y4634D1*
X5950Y4615D1*
X5940Y4596D1*
Y4558D1*
X5950Y4539D1*
X5969Y4520D1*
X5988Y4510D1*
X6017Y4500D1*
X6065D1*
X6093Y4510D1*
X6112Y4520D1*
X6131Y4539D1*
X6141Y4558D1*
Y4596D1*
X6131Y4615D1*
X6112Y4634D1*
X6093Y4644D1*
X5940Y4725D2*
Y4830D1*
X6017Y4773D1*
Y4801D1*
X6026Y4820D1*
X6036Y4830D1*
X6065Y4840D1*
X6084D1*
X6112Y4830D1*
X6132Y4811D1*
X6141Y4782D1*
Y4753D1*
X6132Y4725D1*
X6122Y4715D1*
X6103Y4706D1*
X10868Y4519D2*
X10849Y4510D1*
X10830Y4490D1*
X10820Y4471D1*
Y4433D1*
X10830Y4414D1*
X10849Y4395D1*
X10868Y4385D1*
X10897Y4376D1*
X10945D1*
X10973Y4385D1*
X10992Y4395D1*
X11011Y4414D1*
X11021Y4433D1*
Y4471D1*
X11011Y4490D1*
X10992Y4510D1*
X10973Y4519D1*
X11021Y4677D2*
X10820D1*
X10954Y4581D1*
Y4724D1*
X5784Y5485D2*
X5774Y5504D1*
X5755Y5523D1*
X5736Y5533D1*
X5698D1*
X5679Y5523D1*
X5660Y5504D1*
X5650Y5485D1*
X5640Y5456D1*
Y5408D1*
X5650Y5380D1*
X5660Y5361D1*
X5679Y5342D1*
X5698Y5332D1*
X5736D1*
X5755Y5342D1*
X5774Y5361D1*
X5784Y5380D1*
X5960Y5533D2*
X5865D1*
X5855Y5447D1*
X5865Y5456D1*
X5894Y5466D1*
X5922D1*
X5951Y5456D1*
X5970Y5437D1*
X5980Y5408D1*
Y5389D1*
X5970Y5361D1*
X5951Y5341D1*
X5922Y5332D1*
X5894D1*
X5865Y5341D1*
X5855Y5351D1*
X5846Y5370D1*
X6562Y7065D2*
X6552Y7084D1*
X6533Y7103D1*
X6514Y7113D1*
X6476D1*
X6457Y7103D1*
X6438Y7084D1*
X6428Y7065D1*
X6418Y7036D1*
Y6988D1*
X6428Y6960D1*
X6438Y6941D1*
X6457Y6922D1*
X6476Y6912D1*
X6514D1*
X6533Y6922D1*
X6552Y6941D1*
X6562Y6960D1*
X6738Y7084D2*
X6729Y7103D1*
X6700Y7113D1*
X6681D1*
X6652Y7103D1*
X6633Y7074D1*
X6624Y7027D1*
Y6979D1*
X6633Y6941D1*
X6652Y6921D1*
X6681Y6912D1*
X6691D1*
X6719Y6921D1*
X6738Y6941D1*
X6748Y6969D1*
Y6979D1*
X6738Y7008D1*
X6719Y7027D1*
X6691Y7036D1*
X6681D1*
X6652Y7027D1*
X6633Y7008D1*
X6624Y6979D1*
X7227Y7055D2*
X7218Y7074D1*
X7198Y7093D1*
X7179Y7103D1*
X7141D1*
X7122Y7093D1*
X7103Y7074D1*
X7093Y7055D1*
X7084Y7026D1*
Y6978D1*
X7093Y6950D1*
X7103Y6931D1*
X7122Y6912D1*
X7141Y6902D1*
X7179D1*
X7198Y6912D1*
X7218Y6931D1*
X7227Y6950D1*
X7327Y6902D2*
X7423Y7103D1*
X7289D1*
X8098Y8704D2*
X8079Y8694D1*
X8060Y8675D1*
X8050Y8656D1*
Y8618D1*
X8060Y8599D1*
X8079Y8580D1*
X8098Y8570D1*
X8127Y8561D1*
X8175D1*
X8203Y8570D1*
X8222Y8580D1*
X8241Y8599D1*
X8251Y8618D1*
Y8656D1*
X8241Y8675D1*
X8222Y8694D1*
X8203Y8704D1*
X8050Y8813D2*
X8060Y8785D1*
X8079Y8775D1*
X8098D1*
X8117Y8785D1*
X8127Y8804D1*
X8136Y8842D1*
X8146Y8871D1*
X8165Y8890D1*
X8184Y8899D1*
X8213D1*
X8232Y8890D1*
X8242Y8880D1*
X8251Y8852D1*
Y8813D1*
X8242Y8785D1*
X8232Y8775D1*
X8213Y8766D1*
X8184D1*
X8165Y8775D1*
X8146Y8794D1*
X8136Y8823D1*
X8127Y8861D1*
X8117Y8880D1*
X8098Y8890D1*
X8079D1*
X8060Y8880D1*
X8050Y8852D1*
Y8813D1*
X7909Y10542D2*
X7899Y10561D1*
X7880Y10580D1*
X7861Y10590D1*
X7823D1*
X7803Y10580D1*
X7784Y10561D1*
X7775Y10542D1*
X7765Y10513D1*
Y10465D1*
X7775Y10437D1*
X7784Y10418D1*
X7803Y10399D1*
X7823Y10389D1*
X7861D1*
X7880Y10399D1*
X7899Y10418D1*
X7909Y10437D1*
X8095Y10523D2*
X8085Y10494D1*
X8066Y10475D1*
X8037Y10465D1*
X8028D1*
X7999Y10475D1*
X7980Y10494D1*
X7970Y10523D1*
Y10532D1*
X7980Y10561D1*
X7999Y10580D1*
X8028Y10590D1*
X8037D1*
X8066Y10580D1*
X8085Y10561D1*
X8095Y10523D1*
Y10475D1*
X8085Y10427D1*
X8066Y10398D1*
X8037Y10389D1*
X8018D1*
X7990Y10398D1*
X7980Y10418D1*
X8367Y2697D2*
Y2544D1*
X8358Y2515D1*
X8348Y2506D1*
X8329Y2496D1*
X8310D1*
X8291Y2506D1*
X8281Y2515D1*
X8271Y2544D1*
Y2563D1*
X8429Y2659D2*
X8448Y2668D1*
X8477Y2697D1*
Y2496D1*
X1007Y3274D2*
Y3121D1*
X998Y3092D1*
X988Y3083D1*
X969Y3073D1*
X950D1*
X931Y3083D1*
X921Y3092D1*
X912Y3121D1*
Y3140D1*
X1203Y3245D2*
X1184Y3264D1*
X1155Y3274D1*
X1117D1*
X1088Y3264D1*
X1069Y3245D1*
Y3226D1*
X1079Y3207D1*
X1088Y3198D1*
X1107Y3188D1*
X1165Y3169D1*
X1184Y3159D1*
X1193Y3150D1*
X1203Y3131D1*
Y3102D1*
X1184Y3083D1*
X1155Y3073D1*
X1117D1*
X1088Y3083D1*
X1069Y3102D1*
X1332Y3274D2*
Y3073D1*
X1265Y3274D2*
X1399D1*
X1460Y3236D2*
X1480Y3245D1*
X1508Y3274D1*
Y3073D1*
X2149Y10337D2*
Y10184D1*
X2139Y10155D1*
X2129Y10146D1*
X2110Y10136D1*
X2091D1*
X2072Y10146D1*
X2063Y10155D1*
X2053Y10184D1*
Y10203D1*
X2344Y10308D2*
X2325Y10328D1*
X2297Y10337D1*
X2258D1*
X2230Y10328D1*
X2210Y10308D1*
Y10289D1*
X2220Y10270D1*
X2230Y10261D1*
X2249Y10251D1*
X2306Y10232D1*
X2325Y10222D1*
X2335Y10213D1*
X2344Y10194D1*
Y10165D1*
X2325Y10146D1*
X2297Y10136D1*
X2258D1*
X2230Y10146D1*
X2210Y10165D1*
X2473Y10337D2*
Y10136D1*
X2406Y10337D2*
X2540D1*
X2602Y10237D2*
X2712D1*
X2927Y10136D2*
Y10337D1*
X2851Y10136D1*
X2774Y10337D1*
Y10136D1*
X8862Y6862D2*
Y7063D1*
X8785Y6862D1*
X8709Y7063D1*
Y6862D1*
X8923Y7024D2*
X8943Y7034D1*
X8971Y7063D1*
Y6862D1*
X6980Y9775D2*
Y9976D1*
X6903Y9775D1*
X6827Y9976D1*
Y9775D1*
X7051Y9928D2*
Y9937D1*
X7061Y9957D1*
X7070Y9966D1*
X7089Y9976D1*
X7128D1*
X7147Y9966D1*
X7156Y9957D1*
X7166Y9937D1*
Y9918D1*
X7156Y9899D1*
X7137Y9871D1*
X7041Y9775D1*
X7175D1*
X1342Y8942D2*
X1323Y8933D1*
X1303Y8914D1*
X1294Y8895D1*
X1284Y8866D1*
Y8818D1*
X1294Y8789D1*
X1303Y8770D1*
X1323Y8751D1*
X1342Y8742D1*
X1380D1*
X1399Y8751D1*
X1418Y8770D1*
X1428Y8789D1*
X1437Y8818D1*
Y8866D1*
X1428Y8895D1*
X1418Y8914D1*
X1399Y8933D1*
X1380Y8942D1*
X1342D1*
X1370Y8780D2*
X1428Y8722D1*
X1499Y8904D2*
X1518Y8914D1*
X1547Y8942D1*
Y8741D1*
X5748Y10134D2*
X5834D1*
X5863Y10144D1*
X5873Y10153D1*
X5882Y10172D1*
Y10191D1*
X5873Y10211D1*
X5863Y10220D1*
X5834Y10230D1*
X5748D1*
Y10029D1*
X5815Y10134D2*
X5882Y10029D1*
X5944Y10191D2*
X5963Y10201D1*
X5992Y10230D1*
Y10029D1*
X5885Y10714D2*
X5971D1*
X6000Y10724D1*
X6010Y10733D1*
X6019Y10752D1*
Y10771D1*
X6010Y10791D1*
X6000Y10800D1*
X5971Y10810D1*
X5885D1*
Y10609D1*
X5952Y10714D2*
X6019Y10609D1*
X6091Y10762D2*
Y10771D1*
X6100Y10791D1*
X6110Y10800D1*
X6129Y10810D1*
X6167D1*
X6186Y10800D1*
X6196Y10791D1*
X6205Y10771D1*
Y10752D1*
X6196Y10733D1*
X6177Y10705D1*
X6081Y10609D1*
X6215D1*
X13140Y14397D2*
Y14254D1*
X13150Y14225D1*
X13169Y14206D1*
X13198Y14196D1*
X13217D1*
X13246Y14206D1*
X13265Y14225D1*
X13274Y14254D1*
Y14397D1*
X13470Y14369D2*
X13451Y14388D1*
X13422Y14397D1*
X13384D1*
X13355Y14388D1*
X13336Y14369D1*
Y14350D1*
X13346Y14330D1*
X13355Y14321D1*
X13374Y14311D1*
X13432Y14292D1*
X13451Y14283D1*
X13460Y14273D1*
X13470Y14254D1*
Y14225D1*
X13451Y14206D1*
X13422Y14196D1*
X13384D1*
X13355Y14206D1*
X13336Y14225D1*
X13532Y14359D2*
X13551Y14369D1*
X13580Y14397D1*
Y14196D1*
X797Y4912D2*
X941D1*
X970Y4921D1*
X989Y4940D1*
X998Y4969D1*
Y4988D1*
X989Y5017D1*
X970Y5036D1*
X941Y5046D1*
X797D1*
X826Y5241D2*
X807Y5222D1*
X797Y5194D1*
Y5155D1*
X807Y5127D1*
X826Y5107D1*
X845D1*
X864Y5117D1*
X874Y5127D1*
X883Y5146D1*
X903Y5203D1*
X912Y5222D1*
X922Y5232D1*
X941Y5241D1*
X970D1*
X989Y5222D1*
X998Y5194D1*
Y5155D1*
X989Y5127D1*
X970Y5107D1*
X797Y5303D2*
X998D1*
Y5389D1*
X989Y5418D1*
X979Y5428D1*
X960Y5437D1*
X931D1*
X912Y5428D1*
X903Y5418D1*
X893Y5389D1*
X883Y5418D1*
X874Y5428D1*
X855Y5437D1*
X836D1*
X817Y5428D1*
X807Y5418D1*
X797Y5389D1*
Y5303D1*
X893D2*
Y5389D1*
X836Y5499D2*
X826Y5518D1*
X798Y5547D1*
X998D1*
X9941Y9728D2*
X10017Y9527D1*
X10094Y9728D1*
X10156Y9632D2*
X10242D1*
X10270Y9642D1*
X10280Y9651D1*
X10289Y9670D1*
Y9690D1*
X10280Y9709D1*
X10270Y9718D1*
X10242Y9728D1*
X10156D1*
Y9527D1*
X10223Y9632D2*
X10289Y9527D1*
X10351Y9689D2*
X10370Y9699D1*
X10399Y9728D1*
Y9527D1*
X6478Y3518D2*
X6612Y3317D1*
Y3518D2*
X6478Y3317D1*
X6674Y3479D2*
X6693Y3489D1*
X6722Y3517D1*
Y3317D1*
X509Y10382D2*
X490Y10373D1*
X470Y10354D1*
X461Y10335D1*
X451Y10306D1*
Y10258D1*
X461Y10229D1*
X470Y10210D1*
X490Y10191D1*
X509Y10182D1*
X547D1*
X566Y10191D1*
X585Y10210D1*
X595Y10229D1*
X604Y10258D1*
Y10306D1*
X595Y10335D1*
X585Y10354D1*
X566Y10373D1*
X547Y10382D1*
X509D1*
X537Y10220D2*
X595Y10162D1*
X685Y10382D2*
X790D1*
X733Y10306D1*
X762D1*
X781Y10296D1*
X790Y10287D1*
X800Y10258D1*
Y10239D1*
X790Y10210D1*
X771Y10191D1*
X743Y10181D1*
X714D1*
X685Y10191D1*
X676Y10201D1*
X666Y10220D1*
X2794Y8942D2*
X2775Y8933D1*
X2756Y8914D1*
X2746Y8895D1*
X2736Y8866D1*
Y8818D1*
X2746Y8789D1*
X2756Y8770D1*
X2775Y8751D1*
X2794Y8742D1*
X2832D1*
X2851Y8751D1*
X2870Y8770D1*
X2880Y8789D1*
X2889Y8818D1*
Y8866D1*
X2880Y8895D1*
X2870Y8914D1*
X2851Y8933D1*
X2832Y8942D1*
X2794D1*
X2823Y8780D2*
X2880Y8722D1*
X3047Y8741D2*
Y8942D1*
X2951Y8808D1*
X3095D1*
X4687Y9610D2*
X4668Y9601D1*
X4649Y9581D1*
X4640Y9562D1*
X4630Y9533D1*
Y9486D1*
X4640Y9457D1*
X4649Y9438D1*
X4668Y9419D1*
X4687Y9409D1*
X4726D1*
X4745Y9419D1*
X4764Y9438D1*
X4773Y9457D1*
X4783Y9486D1*
Y9533D1*
X4773Y9562D1*
X4764Y9581D1*
X4745Y9601D1*
X4726Y9610D1*
X4687D1*
X4716Y9447D2*
X4773Y9390D1*
X4960Y9610D2*
X4864D1*
X4855Y9524D1*
X4864Y9533D1*
X4893Y9543D1*
X4921D1*
X4950Y9533D1*
X4969Y9514D1*
X4979Y9485D1*
Y9466D1*
X4969Y9438D1*
X4950Y9418D1*
X4921Y9409D1*
X4893D1*
X4864Y9418D1*
X4855Y9428D1*
X4845Y9447D1*
X2280Y7384D2*
X2366D1*
X2395Y7394D1*
X2404Y7403D1*
X2414Y7422D1*
Y7441D1*
X2404Y7461D1*
X2395Y7470D1*
X2366Y7480D1*
X2280D1*
Y7279D1*
X2347Y7384D2*
X2414Y7279D1*
X2590Y7451D2*
X2581Y7470D1*
X2552Y7480D1*
X2533D1*
X2504Y7470D1*
X2485Y7441D1*
X2476Y7394D1*
Y7346D1*
X2485Y7308D1*
X2504Y7288D1*
X2533Y7279D1*
X2543D1*
X2571Y7288D1*
X2590Y7308D1*
X2600Y7336D1*
Y7346D1*
X2590Y7375D1*
X2571Y7394D1*
X2543Y7403D1*
X2533D1*
X2504Y7394D1*
X2485Y7375D1*
X2476Y7346D1*
X4074Y3572D2*
X4064Y3591D1*
X4045Y3610D1*
X4026Y3620D1*
X3988D1*
X3969Y3610D1*
X3950Y3591D1*
X3940Y3572D1*
X3930Y3543D1*
Y3495D1*
X3940Y3467D1*
X3950Y3447D1*
X3969Y3428D1*
X3988Y3419D1*
X4026D1*
X4045Y3428D1*
X4064Y3447D1*
X4074Y3467D1*
X4145Y3572D2*
Y3581D1*
X4155Y3600D1*
X4164Y3610D1*
X4184Y3619D1*
X4222D1*
X4241Y3610D1*
X4250Y3600D1*
X4260Y3581D1*
Y3562D1*
X4250Y3543D1*
X4231Y3514D1*
X4136Y3419D1*
X4270D1*
X11477Y6007D2*
Y6093D1*
X11467Y6121D1*
X11458Y6131D1*
X11439Y6141D1*
X11420D1*
X11401Y6131D1*
X11391Y6121D1*
X11381Y6093D1*
Y6007D1*
X11582D1*
X11477Y6074D2*
X11582Y6141D1*
X11448Y6327D2*
X11477Y6317D1*
X11496Y6298D1*
X11506Y6269D1*
Y6260D1*
X11496Y6231D1*
X11477Y6212D1*
X11448Y6202D1*
X11439D1*
X11410Y6212D1*
X11391Y6231D1*
X11382Y6260D1*
Y6269D1*
X11391Y6298D1*
X11410Y6317D1*
X11448Y6327D1*
X11496D1*
X11544Y6317D1*
X11573Y6298D1*
X11582Y6269D1*
Y6250D1*
X11573Y6222D1*
X11554Y6212D1*
X10153Y7437D2*
X10239D1*
X10268Y7447D1*
X10278Y7456D1*
X10287Y7475D1*
Y7495D1*
X10278Y7514D1*
X10268Y7523D1*
X10239Y7533D1*
X10153D1*
Y7332D1*
X10220Y7437D2*
X10287Y7332D1*
X10349Y7494D2*
X10368Y7504D1*
X10397Y7533D1*
Y7332D1*
X10516Y7533D2*
X10488Y7523D1*
X10468Y7494D1*
X10459Y7447D1*
Y7418D1*
X10468Y7370D1*
X10488Y7341D1*
X10516Y7332D1*
X10535D1*
X10564Y7341D1*
X10583Y7370D1*
X10593Y7418D1*
Y7447D1*
X10583Y7494D1*
X10564Y7523D1*
X10535Y7533D1*
X10516D1*
X10583Y7494D2*
X10468Y7370D1*
X11150Y6926D2*
X11351D1*
Y6993D1*
X11341Y7022D1*
X11322Y7041D1*
X11303Y7051D1*
X11275Y7060D1*
X11227D1*
X11198Y7051D1*
X11179Y7041D1*
X11160Y7022D1*
X11150Y6993D1*
Y6926D1*
X11351Y7218D2*
X11150D1*
X11284Y7122D1*
Y7265D1*
X11147Y7602D2*
X11348D1*
Y7669D1*
X11338Y7698D1*
X11319Y7717D1*
X11300Y7726D1*
X11272Y7736D1*
X11224D1*
X11195Y7726D1*
X11176Y7717D1*
X11157Y7698D1*
X11147Y7669D1*
Y7602D1*
Y7912D2*
Y7817D1*
X11233Y7807D1*
X11224Y7817D1*
X11214Y7846D1*
Y7874D1*
X11224Y7903D1*
X11243Y7922D1*
X11272Y7932D1*
X11291D1*
X11319Y7922D1*
X11339Y7903D1*
X11348Y7874D1*
Y7846D1*
X11339Y7817D1*
X11329Y7807D1*
X11310Y7798D1*
X10573Y1044D2*
X10659D1*
X10688Y1054D1*
X10698Y1063D1*
X10707Y1082D1*
Y1101D1*
X10698Y1121D1*
X10688Y1130D1*
X10659Y1140D1*
X10573D1*
Y939D1*
X10640Y1044D2*
X10707Y939D1*
X10769Y1101D2*
X10788Y1111D1*
X10817Y1140D1*
Y939D1*
X10879Y1101D2*
X10898Y1111D1*
X10927Y1140D1*
Y939D1*
X9177Y9853D2*
X9167Y9872D1*
X9148Y9891D1*
X9129Y9901D1*
X9091D1*
X9072Y9891D1*
X9053Y9872D1*
X9043Y9853D1*
X9033Y9824D1*
Y9776D1*
X9043Y9748D1*
X9053Y9728D1*
X9072Y9709D1*
X9091Y9700D1*
X9129D1*
X9148Y9709D1*
X9167Y9728D1*
X9177Y9748D1*
X9239Y9862D2*
X9258Y9872D1*
X9287Y9900D1*
Y9700D1*
X12787Y2922D2*
D104*
X12385Y2769D1*
X12787Y2616D1*
X12691Y2206D2*
X12729Y2225D1*
X12768Y2264D1*
X12787Y2302D1*
Y2378D1*
X12768Y2416D1*
X12729Y2455D1*
X12691Y2474D1*
X12634Y2493D1*
X12538D1*
X12481Y2474D1*
X12442Y2455D1*
X12404Y2416D1*
X12385Y2378D1*
Y2302D1*
X12404Y2264D1*
X12442Y2225D1*
X12481Y2206D1*
X12691Y1796D2*
X12729Y1815D1*
X12768Y1853D1*
X12787Y1891D1*
Y1968D1*
X12768Y2006D1*
X12729Y2044D1*
X12691Y2063D1*
X12634Y2083D1*
X12538D1*
X12481Y2063D1*
X12442Y2044D1*
X12404Y2006D1*
X12385Y1968D1*
Y1891D1*
X12404Y1853D1*
X12442Y1815D1*
X12481Y1796D1*
X12691Y9135D2*
X12729Y9154D1*
X12768Y9192D1*
X12787Y9230D1*
Y9307D1*
X12768Y9345D1*
X12729Y9383D1*
X12691Y9403D1*
X12634Y9422D1*
X12538D1*
X12481Y9403D1*
X12442Y9383D1*
X12404Y9345D1*
X12385Y9307D1*
Y9230D1*
X12404Y9192D1*
X12442Y9154D1*
X12481Y9135D1*
X12538D1*
Y9230D1*
X12787Y8743D2*
X12385D1*
X12787Y9011D1*
X12385D1*
X12787Y8620D2*
X12385D1*
Y8486D1*
X12404Y8428D1*
X12442Y8390D1*
X12481Y8371D1*
X12538Y8352D1*
X12634D1*
X12691Y8371D1*
X12729Y8390D1*
X12768Y8428D1*
X12787Y8486D1*
Y8620D1*
M02*
