G04 DipTrace 2.4.0.2*
%INBottom.gbr*%
%MOIN*%
%ADD10C,0.0098*%
%ADD13C,0.013*%
%ADD20C,0.025*%
%ADD21C,0.03*%
%ADD22C,0.011*%
%ADD23C,0.0197*%
%ADD25C,0.035*%
%ADD27C,0.036*%
%ADD29C,0.01*%
%ADD38R,0.0709X0.0709*%
%ADD39C,0.0709*%
%ADD41C,0.056*%
%ADD52R,0.0906X0.0827*%
%ADD53O,0.0906X0.0827*%
%ADD68C,0.0295*%
%ADD69C,0.0591*%
%FSLAX44Y44*%
G04*
G70*
G90*
G75*
G01*
%LNBottom*%
%LPD*%
X8637Y8268D2*
D13*
X8138D1*
X7554Y7684D1*
X8694Y3024D2*
Y4284D1*
X11024Y6614D1*
Y10020D1*
X10167Y10876D1*
X5476D1*
X5350Y10750D1*
X8319Y1166D2*
D10*
X8583Y1430D1*
X8566D1*
X8809Y1673D1*
Y2510D1*
X9006Y2707D1*
X10188D1*
X10579Y3098D1*
X9444Y3024D2*
D13*
Y3000D1*
X9750D1*
X11750Y5000D1*
X13200D1*
X13500Y5300D1*
X9069Y3024D2*
Y3219D1*
X11900Y6050D1*
X13250D1*
X13500Y6300D1*
X8320Y3024D2*
Y4560D1*
X10433Y6673D1*
Y9252D1*
X9055Y10630D1*
X5730D1*
X5350Y10250D1*
X10319Y1166D2*
X10296D1*
X9760Y630D1*
X7677D1*
Y4823D1*
X9389Y6535D1*
Y7424D1*
X2669Y6264D2*
X2840Y6350D1*
X8190D1*
X9014Y7174D1*
Y7424D1*
X9764Y7448D2*
D22*
Y7656D1*
X8798Y8622D1*
X7992D1*
X6791Y9823D1*
Y10113D1*
X6939Y10261D1*
X7923D1*
X7997Y10335D1*
X10138Y7424D2*
D10*
Y7854D1*
X8962Y9031D1*
X7977D1*
X7067Y9941D1*
X7111D1*
X2669Y5864D2*
D13*
X2486D1*
X2362Y5988D1*
Y6712D1*
X2600Y6950D1*
X8166D1*
X8640Y7424D1*
X2000Y6600D2*
D25*
Y5050D1*
Y2550D1*
X2100Y2450D1*
X7234Y2165D2*
X7285D1*
X7069Y1950D1*
X3250D1*
X2600D1*
X2100Y2450D1*
X3750Y3050D2*
D13*
Y1950D1*
X3250D1*
Y5050D2*
D21*
X2000D1*
D27*
X4600Y6000D3*
X3250Y5050D3*
D68*
X7554Y7684D3*
D27*
X6348Y5994D3*
X11263Y3346D3*
D68*
X10579Y3098D3*
D69*
X7234Y2165D3*
D27*
X3250Y1950D3*
X3750Y9200D3*
D68*
X10138Y7424D3*
X9764Y7448D3*
X9014Y7424D3*
X8640D3*
X8637Y8268D3*
X9389Y7424D3*
X9069Y3024D3*
X8694D3*
X8320D3*
X9444D3*
X5350Y10750D3*
Y10250D3*
X2669Y6264D3*
Y5864D3*
X7997Y10335D3*
X7111Y9941D3*
D27*
X6348Y7372D3*
X7480Y8686D3*
X8971Y5659D3*
X9129Y9916D3*
X12750Y6496D3*
X8145Y9350D3*
X10531Y5640D3*
D68*
X2100Y2450D3*
D27*
X2450Y4600D3*
X2461Y5519D3*
X3550Y500D3*
D69*
X640Y11294D3*
D27*
X6348Y4035D3*
X12750Y4577D3*
Y5463D3*
D68*
X3750Y3050D3*
D27*
X5900Y10250D3*
X5150Y7350D3*
X5200Y3350D3*
X2000Y6600D3*
X10531Y9990D3*
D69*
X14813Y11294D3*
Y591D3*
X640D3*
D27*
X9055Y4134D3*
X7997Y3740D3*
X11263Y1286D3*
X6700Y2400D3*
X3750Y11400D3*
X2850Y9300D3*
X7350Y1550D3*
D68*
X2450Y7350D3*
X450Y8300D3*
X3000Y2550D3*
D27*
X5996Y11393D3*
X8169D3*
X10098Y8327D3*
X480Y3745D3*
X8465Y6127D3*
X404Y11307D2*
D20*
X15092D1*
X404Y11058D2*
X5139D1*
X10404D2*
X15092D1*
X1303Y10809D2*
X4971D1*
X10650D2*
X15089D1*
X1392Y10560D2*
X5018D1*
X9541D2*
X10065D1*
X10900D2*
X15089D1*
X1346Y10312D2*
X4971D1*
X5830D2*
X6585D1*
X8381D2*
X8956D1*
X9791D2*
X10315D1*
X11150D2*
X15089D1*
X400Y10063D2*
X478D1*
X1271D2*
X5018D1*
X5681D2*
X6499D1*
X8260D2*
X9206D1*
X10041D2*
X10561D1*
X11322D2*
X15089D1*
X1389Y9814D2*
X6499D1*
X7588D2*
X9452D1*
X10287D2*
X10721D1*
X11326D2*
X15085D1*
X1361Y9566D2*
X6643D1*
X7838D2*
X9702D1*
X10537D2*
X10721D1*
X11326D2*
X15085D1*
X396Y9317D2*
X596D1*
X1158D2*
X6893D1*
X8088D2*
X9952D1*
X11326D2*
X15085D1*
X396Y9068D2*
X7143D1*
X9318D2*
X10131D1*
X11326D2*
X15085D1*
X396Y8820D2*
X7389D1*
X9568D2*
X10131D1*
X11326D2*
X15081D1*
X392Y8571D2*
X7639D1*
X9818D2*
X10131D1*
X11326D2*
X15081D1*
X392Y8322D2*
X7776D1*
X11326D2*
X15081D1*
X392Y8074D2*
X7526D1*
X11326D2*
X15081D1*
X389Y7825D2*
X7198D1*
X8111D2*
X9190D1*
X11326D2*
X12811D1*
X14189D2*
X15077D1*
X389Y7576D2*
X7186D1*
X7924D2*
X8288D1*
X11326D2*
X12811D1*
X14189D2*
X15077D1*
X389Y7328D2*
X7471D1*
X7638D2*
X8128D1*
X11326D2*
X12811D1*
X14189D2*
X15077D1*
X389Y7079D2*
X1061D1*
X1348D2*
X2311D1*
X9693D2*
X10006D1*
X11326D2*
X12811D1*
X14189D2*
X15073D1*
X385Y6830D2*
X870D1*
X1537D2*
X1656D1*
X9693D2*
X10131D1*
X11326D2*
X12811D1*
X14189D2*
X15073D1*
X385Y6581D2*
X948D1*
X1459D2*
X1581D1*
X8838D2*
X9018D1*
X9693D2*
X9924D1*
X11326D2*
X12878D1*
X14123D2*
X15073D1*
X385Y6333D2*
X1589D1*
X8592D2*
X8768D1*
X11162D2*
X12811D1*
X14189D2*
X15073D1*
X385Y6084D2*
X1589D1*
X8295D2*
X8522D1*
X10912D2*
X11514D1*
X14154D2*
X15069D1*
X381Y5835D2*
X1589D1*
X3053D2*
X8272D1*
X10662D2*
X11268D1*
X13986D2*
X15069D1*
X381Y5587D2*
X1589D1*
X2924D2*
X8022D1*
X10416D2*
X11018D1*
X11853D2*
X12878D1*
X14123D2*
X15069D1*
X381Y5338D2*
X893D1*
X3541D2*
X7776D1*
X10166D2*
X10768D1*
X11607D2*
X12811D1*
X14189D2*
X15069D1*
X381Y5089D2*
X893D1*
X3666D2*
X7526D1*
X9916D2*
X10522D1*
X14154D2*
X15065D1*
X377Y4841D2*
X1589D1*
X3607D2*
X7374D1*
X9670D2*
X10272D1*
X13990D2*
X15065D1*
X377Y4592D2*
X1589D1*
X2412D2*
X7374D1*
X9420D2*
X10026D1*
X11760D2*
X12881D1*
X14119D2*
X15065D1*
X377Y4343D2*
X1589D1*
X2412D2*
X7374D1*
X9170D2*
X9776D1*
X11510D2*
X12811D1*
X14189D2*
X15065D1*
X377Y4095D2*
X1589D1*
X2412D2*
X7374D1*
X8998D2*
X9526D1*
X11264D2*
X12842D1*
X14154D2*
X15061D1*
X373Y3846D2*
X1589D1*
X2412D2*
X7374D1*
X8998D2*
X9280D1*
X11014D2*
X13003D1*
X13994D2*
X15061D1*
X373Y3597D2*
X1589D1*
X2412D2*
X7374D1*
X10764D2*
X15061D1*
X373Y3349D2*
X1589D1*
X2412D2*
X3522D1*
X3978D2*
X7374D1*
X10865D2*
X15061D1*
X369Y3100D2*
X1589D1*
X2412D2*
X3370D1*
X4131D2*
X7374D1*
X10963D2*
X15057D1*
X369Y2851D2*
X1589D1*
X2412D2*
X3424D1*
X4076D2*
X7374D1*
X10865D2*
X15057D1*
X369Y2602D2*
X1589D1*
X2521D2*
X3448D1*
X4053D2*
X6952D1*
X10705D2*
X15057D1*
X369Y2354D2*
X1639D1*
X2771D2*
X3448D1*
X4053D2*
X6737D1*
X10881D2*
X15053D1*
X365Y2105D2*
X917D1*
X1721D2*
X1870D1*
X10908D2*
X15053D1*
X365Y1856D2*
X803D1*
X1830D2*
X2120D1*
X10818D2*
X15053D1*
X365Y1608D2*
X835D1*
X1803D2*
X2393D1*
X7275D2*
X7372D1*
X9701D2*
X9936D1*
X10701D2*
X15053D1*
X365Y1359D2*
X956D1*
X1681D2*
X7374D1*
X10877D2*
X15049D1*
X361Y1110D2*
X811D1*
X1822D2*
X7374D1*
X10908D2*
X15049D1*
X361Y862D2*
X819D1*
X1814D2*
X7374D1*
X10822D2*
X15049D1*
X361Y613D2*
X987D1*
X1646D2*
X7374D1*
X10471D2*
X15049D1*
X361Y364D2*
X7569D1*
X9865D2*
X15046D1*
X9582Y1665D2*
X9628Y1642D1*
X9724Y1563D1*
X9816Y1433D1*
X9934Y1583D1*
X10052Y1665D1*
X9945Y1740D1*
X9861Y1832D1*
X9819Y1899D1*
X9767Y1818D1*
X9680Y1728D1*
X9585Y1666D1*
X10873Y1042D2*
X10832Y924D1*
X10767Y818D1*
X10680Y728D1*
X10575Y660D1*
X10459Y616D1*
X10335Y599D1*
X10211Y609D1*
X10148Y629D1*
X9956Y433D1*
X9848Y367D1*
X9879Y379D1*
X9760Y352D1*
X7677D1*
X7556Y380D1*
X7460Y457D1*
X7406Y573D1*
X7399Y755D1*
Y1689D1*
X7162Y1573D1*
X7069Y1562D1*
X3242Y1557D1*
X3000Y1562D1*
X2600D1*
X2477Y1582D1*
X2364Y1643D1*
X2326Y1676D1*
X1726Y2276D1*
X1668Y2350D1*
X1629Y2436D1*
X1612Y2550D1*
X1607Y6615D1*
X1632Y6737D1*
X1693Y6846D1*
X1785Y6929D1*
X1899Y6980D1*
X2023Y6992D1*
X2145Y6965D1*
X2195Y6936D1*
X2403Y7147D1*
X2512Y7213D1*
X2481Y7201D1*
X2600Y7228D1*
X8049D1*
X8282Y7459D1*
X8298Y7539D1*
X8357Y7648D1*
X8450Y7731D1*
X8566Y7777D1*
X8690Y7781D1*
X8824Y7731D1*
X8940Y7777D1*
X9065Y7781D1*
X9198Y7731D1*
X9220Y7820D1*
X8953Y8088D1*
X8914Y8037D1*
X8819Y7957D1*
X8703Y7913D1*
X8579Y7912D1*
X8461Y7953D1*
X8416Y7990D1*
X8250D1*
X7912Y7649D1*
X7893Y7561D1*
X7831Y7453D1*
X7736Y7373D1*
X7620Y7329D1*
X7495Y7328D1*
X7378Y7369D1*
X7281Y7447D1*
X7217Y7554D1*
X7193Y7676D1*
X7212Y7799D1*
X7271Y7908D1*
X7364Y7991D1*
X7480Y8037D1*
X7515Y8038D1*
X7863Y8386D1*
X7714Y8521D1*
X6602Y9633D1*
X6539Y9732D1*
X6523Y9823D1*
Y10113D1*
X6549Y10228D1*
X6602Y10303D1*
X6649Y10350D1*
X5848Y10352D1*
X5708Y10215D1*
X5689Y10127D1*
X5627Y10020D1*
X5533Y9939D1*
X5416Y9895D1*
X5292Y9894D1*
X5174Y9935D1*
X5078Y10013D1*
X5014Y10120D1*
X4989Y10242D1*
X5008Y10365D1*
X5068Y10474D1*
X5094Y10497D1*
X5014Y10620D1*
X4989Y10742D1*
X5008Y10865D1*
X5068Y10974D1*
X5161Y11057D1*
X5276Y11103D1*
X5319Y11104D1*
X5357Y11127D1*
X5476Y11154D1*
X10167D1*
X10291Y11124D1*
X10261Y11138D1*
X10364Y11073D1*
X11220Y10216D1*
X11286Y10107D1*
X11275Y10139D1*
X11302Y10020D1*
Y6614D1*
X11272Y6490D1*
X11285Y6520D1*
X11220Y6417D1*
X8975Y4171D1*
X8972Y3515D1*
X11703Y6247D1*
X11812Y6313D1*
X11781Y6301D1*
X11900Y6328D1*
X12835Y6332D1*
X12854Y6456D1*
X12897Y6573D1*
X12960Y6676D1*
X12834Y6674D1*
Y7926D1*
X14166D1*
Y6674D1*
X14042D1*
X14090Y6598D1*
X14138Y6483D1*
X14166Y6300D1*
X14153Y6176D1*
X14117Y6057D1*
X14057Y5947D1*
X13977Y5851D1*
X13913Y5800D1*
X14020Y5701D1*
X14090Y5598D1*
X14138Y5483D1*
X14166Y5300D1*
X14153Y5176D1*
X14117Y5057D1*
X14057Y4947D1*
X13977Y4851D1*
X13913Y4800D1*
X14020Y4701D1*
X14090Y4598D1*
X14138Y4483D1*
X14166Y4300D1*
X14153Y4176D1*
X14117Y4057D1*
X14057Y3947D1*
X13977Y3851D1*
X13879Y3774D1*
X13768Y3717D1*
X13648Y3683D1*
X13461Y3674D1*
X13321Y3689D1*
X13202Y3729D1*
X13094Y3792D1*
X13001Y3874D1*
X12926Y3974D1*
X12872Y4087D1*
X12841Y4207D1*
X12835Y4332D1*
X12854Y4456D1*
X12897Y4573D1*
X12962Y4679D1*
X13002Y4722D1*
X11868D1*
X10621Y3478D1*
X10601Y3458D1*
X10748Y3417D1*
X10846Y3341D1*
X10913Y3235D1*
X10940Y3098D1*
X10918Y2976D1*
X10857Y2868D1*
X10762Y2787D1*
X10645Y2744D1*
X10588Y2736D1*
X10541Y2689D1*
X10648Y2628D1*
X10741Y2545D1*
X10814Y2443D1*
X10863Y2328D1*
X10885Y2206D1*
X10881Y2091D1*
X10851Y1970D1*
X10796Y1859D1*
X10717Y1762D1*
X10619Y1685D1*
X10587Y1666D1*
X10724Y1563D1*
X10801Y1465D1*
X10855Y1352D1*
X10883Y1231D1*
X10886Y1166D1*
X10873Y1042D1*
X7956Y2599D2*
X8034Y2657D1*
X8144Y2709D1*
X8048Y2787D1*
X7983Y2894D1*
X7959Y3016D1*
X7978Y3139D1*
X8040Y3251D1*
X8042Y4560D1*
X8072Y4684D1*
X8058Y4653D1*
X8123Y4756D1*
X10153Y6787D1*
X10155Y7060D1*
X10080Y7068D1*
X9962Y7109D1*
X9935Y7131D1*
X9830Y7094D1*
X9705Y7092D1*
X9665Y7106D1*
X9667Y6535D1*
X9637Y6411D1*
X9651Y6441D1*
X9586Y6338D1*
X7953Y4706D1*
X7955Y3073D1*
Y2600D1*
X1794Y1664D2*
X1748Y1548D1*
X1674Y1448D1*
X1611Y1396D1*
X1693Y1320D1*
X1749Y1237D1*
X1788Y1145D1*
X1808Y1048D1*
X1804Y925D1*
X1779Y829D1*
X1735Y739D1*
X1674Y660D1*
X1598Y595D1*
X1511Y547D1*
X1416Y517D1*
X1316Y507D1*
X1217Y517D1*
X1122Y547D1*
X1035Y596D1*
X959Y661D1*
X898Y740D1*
X854Y830D1*
X830Y926D1*
X825Y1026D1*
X840Y1125D1*
X875Y1218D1*
X928Y1303D1*
X997Y1375D1*
X1021Y1394D1*
X912Y1507D1*
X854Y1617D1*
X827Y1739D1*
X830Y1863D1*
X865Y1983D1*
X928Y2090D1*
X1017Y2178D1*
X1124Y2241D1*
X1244Y2275D1*
X1369Y2278D1*
X1490Y2249D1*
X1600Y2191D1*
X1693Y2107D1*
X1761Y2003D1*
X1800Y1884D1*
X1810Y1787D1*
X1794Y1664D1*
X1353Y9615D2*
X1307Y9499D1*
X1233Y9398D1*
X1136Y9320D1*
X1023Y9268D1*
X900Y9246D1*
X776Y9255D1*
X658Y9296D1*
X554Y9365D1*
X470Y9457D1*
X413Y9568D1*
X385Y9689D1*
X388Y9814D1*
X423Y9934D1*
X487Y10041D1*
X578Y10131D1*
X470Y10245D1*
X413Y10355D1*
X385Y10477D1*
X388Y10601D1*
X423Y10721D1*
X487Y10829D1*
X575Y10916D1*
X683Y10979D1*
X803Y11013D1*
X927Y11016D1*
X1049Y10987D1*
X1159Y10929D1*
X1251Y10845D1*
X1319Y10741D1*
X1359Y10623D1*
X1369Y10526D1*
X1353Y10402D1*
X1307Y10286D1*
X1233Y10186D1*
X1169Y10134D1*
X1251Y10058D1*
X1319Y9953D1*
X1359Y9835D1*
X1369Y9738D1*
X1353Y9615D1*
X12838Y5281D2*
X12835Y5332D1*
X12854Y5456D1*
X12897Y5573D1*
X12962Y5679D1*
X13050Y5773D1*
X12012Y5772D1*
X11389Y5146D1*
X9597Y3354D1*
X9664Y3302D1*
X10172Y3815D1*
X11553Y5197D1*
X11662Y5263D1*
X11631Y5251D1*
X11750Y5278D1*
X12832D1*
X1491Y6669D2*
X1421Y6567D1*
X1316Y6500D1*
X1194Y6480D1*
X1073Y6509D1*
X973Y6583D1*
X910Y6690D1*
X894Y6813D1*
X927Y6932D1*
X1004Y7030D1*
X1113Y7089D1*
X1237Y7101D1*
X1355Y7064D1*
X1450Y6983D1*
X1505Y6872D1*
X1516Y6791D1*
X1491Y6669D1*
Y5095D2*
X1421Y4992D1*
X1316Y4926D1*
X1194Y4905D1*
X1073Y4934D1*
X973Y5008D1*
X910Y5115D1*
X894Y5238D1*
X927Y5358D1*
X1004Y5455D1*
X1113Y5514D1*
X1237Y5526D1*
X1355Y5489D1*
X1450Y5408D1*
X1505Y5297D1*
X1516Y5216D1*
X1491Y5095D1*
X6760Y2341D2*
X6800Y2430D1*
X6878Y2528D1*
X6977Y2603D1*
X7091Y2653D1*
X7214Y2673D1*
X7338Y2663D1*
X7401Y2641D1*
X7399Y4823D1*
X7429Y4947D1*
X7415Y4916D1*
X7481Y5019D1*
X9113Y6652D1*
X9111Y6874D1*
X8387Y6153D1*
X8278Y6087D1*
X8309Y6099D1*
X8190Y6072D1*
X2975D1*
X3002Y6002D1*
X3030Y5864D1*
X3008Y5742D1*
X2946Y5634D1*
X2852Y5554D1*
X2735Y5510D1*
X2611Y5509D1*
X2493Y5550D1*
X2442Y5591D1*
X2388Y5600D1*
Y5416D1*
X3098Y5413D1*
X3149Y5430D1*
X3273Y5442D1*
X3395Y5415D1*
X3502Y5352D1*
X3583Y5258D1*
X3632Y5143D1*
X3643Y5050D1*
X3623Y4927D1*
X3566Y4817D1*
X3477Y4729D1*
X3366Y4674D1*
X3242Y4657D1*
X3103Y4688D1*
X2387Y4687D1*
X2388Y2710D1*
X2758Y2340D1*
X3190Y2338D1*
X3473D1*
X3472Y2821D1*
X3414Y2920D1*
X3389Y3042D1*
X3408Y3165D1*
X3468Y3274D1*
X3561Y3357D1*
X3676Y3403D1*
X3800Y3407D1*
X3919Y3369D1*
X4017Y3292D1*
X4083Y3187D1*
X4111Y3050D1*
X4089Y2927D1*
X4029Y2823D1*
X4028Y2335D1*
X5375Y2338D1*
X6754D1*
X2661Y6619D2*
X2719Y6621D1*
X2745Y6612D1*
X2708Y6665D1*
X2667Y6624D1*
X2791Y6672D1*
X2717D1*
X2840Y6628D1*
X8078D1*
X8118Y6671D1*
X2791Y6672D1*
X8336Y10212D2*
X8274Y10104D1*
X8180Y10024D1*
X8063Y9980D1*
X7939Y9979D1*
X7898Y9993D1*
X7466D1*
X7472Y9941D1*
X7467Y9914D1*
X8084Y9295D1*
X8962Y9293D1*
X9088Y9260D1*
X9147Y9216D1*
X10155Y8208D1*
Y9138D1*
X8941Y10351D1*
X8357D1*
X8336Y10212D1*
X10746Y6727D2*
Y9907D1*
X10051Y10599D1*
X9484Y10598D1*
X10312Y9766D1*
X10630Y9449D1*
X10696Y9340D1*
X10684Y9371D1*
X10711Y9252D1*
Y6695D1*
X331Y314D2*
X15072Y315D1*
X15118Y11508D1*
X381Y11555D1*
X335Y317D1*
X10319Y2166D2*
D23*
X10720Y1765D1*
Y2567D2*
X9918Y1765D1*
X1317Y1000D2*
D29*
Y507D1*
X825Y1000D2*
X1810D1*
X13500Y7926D2*
Y7300D1*
X12835D2*
X14165D1*
D38*
X8319Y1166D3*
D39*
X9319D3*
X10319D3*
Y2166D3*
X9319D3*
X8319D3*
D41*
X1317Y1787D3*
Y1000D3*
X876Y9738D3*
Y10526D3*
D52*
X13500Y7300D3*
D53*
Y6300D3*
Y5300D3*
Y4300D3*
M02*
