M48
INCH
T01C0.014
T02C0.0157
T03C0.0197
T04C0.0315
T05C0.0354
T06C0.0433
%
T01
X+004600Y+006000
X+005150Y+007350
X+006348Y+007372
X+007554Y+007684
X+007480Y+008686
X+008145Y+009350
X+007997Y+010335
X+007111Y+009941
X+005900Y+010250
X+005350Y+010250
X+005350Y+010750
X+005996Y+011393
X+008169Y+011393
X+009129Y+009916
X+010531Y+009990
X+010098Y+008327
X+010138Y+007424
X+009764Y+007448
X+009389Y+007424
X+009014Y+007424
X+008640Y+007424
X+008637Y+008268
X+008465Y+006127
X+008971Y+005659
X+009055Y+004134
X+009069Y+003024
X+009444Y+003024
X+008694Y+003024
X+008320Y+003024
X+007997Y+003740
X+006348Y+004035
X+005200Y+003350
X+003750Y+003050
X+003000Y+002550
X+003250Y+001950
X+002100Y+002450
X+000480Y+003745
X+002450Y+004600
X+003250Y+005050
X+002461Y+005519
X+002669Y+005864
X+002669Y+006264
X+002000Y+006600
X+002450Y+007350
X+002850Y+009300
X+003750Y+009200
X+003750Y+011400
X+000450Y+008300
X+006348Y+005994
X+006700Y+002400
X+007350Y+001550
X+010579Y+003098
X+011263Y+003346
X+012750Y+004577
X+012750Y+005463
X+012750Y+006496
X+010531Y+005640
X+011263Y+001286
X+003550Y+000500
T02
X+007234Y+002165
X+000640Y+000591
X+000640Y+011294
X+014813Y+011294
X+014813Y+000591
T04
X+001317Y+001787
X+001317Y+001000
X+000876Y+009738
X+000876Y+010526
T05
X+008319Y+001166
X+009319Y+001166
X+010319Y+001166
X+010319Y+002166
X+009319Y+002166
X+008319Y+002166
T06
X+013500Y+007300
X+013500Y+006300
X+013500Y+005300
X+013500Y+004300
T00
M30
