G04 DipTrace 2.4.0.2*
%INBottomSilk.gbr*%
%MOMM*%
%ADD10C,0.25*%
%ADD41O,0.391X0.392*%
%ADD113C,0.941*%
%ADD114C,0.314*%
%ADD115C,0.275*%
%FSLAX53Y53*%
G04*
G71*
G90*
G75*
G01*
%LNBotSilk*%
%LPD*%
X37175Y22998D2*
D41*
X36080D1*
X35718Y23119D1*
X35595Y23242D1*
X35474Y23484D1*
Y23849D1*
X35595Y24090D1*
X35718Y24214D1*
X36080Y24335D1*
X37175D1*
Y21782D1*
X34690Y23484D2*
Y21782D1*
Y22754D2*
X34566Y23119D1*
X34325Y23363D1*
X34080Y23484D1*
X33715D1*
X32325D2*
X32566Y23363D1*
X32810Y23119D1*
X32931Y22754D1*
Y22512D1*
X32810Y22147D1*
X32566Y21906D1*
X32325Y21782D1*
X31960D1*
X31715Y21906D1*
X31474Y22147D1*
X31350Y22512D1*
Y22754D1*
X31474Y23119D1*
X31715Y23363D1*
X31960Y23484D1*
X32325D1*
X30080Y24337D2*
X29957Y24217D1*
X29836Y24337D1*
X29957Y24458D1*
X30080Y24337D1*
X29957Y23487D2*
Y21420D1*
X30080Y21055D1*
X30322Y20934D1*
X30566D1*
X29052Y22754D2*
X27595D1*
Y22998D1*
X27715Y23242D1*
X27836Y23363D1*
X28080Y23484D1*
X28445D1*
X28687Y23363D1*
X28931Y23119D1*
X29052Y22754D1*
Y22512D1*
X28931Y22147D1*
X28687Y21906D1*
X28445Y21782D1*
X28080D1*
X27836Y21906D1*
X27595Y22147D1*
X25350Y23119D2*
X25595Y23363D1*
X25839Y23484D1*
X26201D1*
X26445Y23363D1*
X26687Y23119D1*
X26810Y22754D1*
Y22512D1*
X26687Y22147D1*
X26445Y21906D1*
X26201Y21782D1*
X25839D1*
X25595Y21906D1*
X25350Y22147D1*
X24201Y24335D2*
Y22268D1*
X24080Y21906D1*
X23836Y21782D1*
X23595D1*
X24566Y23484D2*
X23715D1*
X20341Y22998D2*
X19246D1*
X18884Y23119D1*
X18761Y23242D1*
X18640Y23484D1*
Y23849D1*
X18761Y24090D1*
X18884Y24214D1*
X19246Y24335D1*
X20341D1*
Y21782D1*
X16398Y23484D2*
Y21782D1*
Y23119D2*
X16640Y23363D1*
X16884Y23484D1*
X17246D1*
X17490Y23363D1*
X17732Y23119D1*
X17855Y22754D1*
Y22512D1*
X17732Y22147D1*
X17490Y21906D1*
X17246Y21782D1*
X16884D1*
X16640Y21906D1*
X16398Y22147D1*
X15249Y24335D2*
Y22268D1*
X15128Y21906D1*
X14884Y21782D1*
X14643D1*
X15614Y23484D2*
X14763D1*
X13858Y24335D2*
Y21782D1*
Y22998D2*
X13493Y23363D1*
X13249Y23484D1*
X12884D1*
X12642Y23363D1*
X12522Y22998D1*
Y21782D1*
X10766Y24335D2*
X11007D1*
X11252Y24214D1*
X11372Y23849D1*
Y21782D1*
X11737Y23484D2*
X10887D1*
X9982Y24335D2*
X9861Y24214D1*
X9737Y24335D1*
X9861Y24458D1*
X9982Y24335D1*
X9861Y23484D2*
Y21782D1*
X8953Y23484D2*
Y21782D1*
Y22998D2*
X8588Y23363D1*
X8344Y23484D1*
X7982D1*
X7737Y23363D1*
X7617Y22998D1*
Y21782D1*
X5375Y24335D2*
Y21782D1*
Y23119D2*
X5617Y23363D1*
X5861Y23484D1*
X6226D1*
X6467Y23363D1*
X6712Y23119D1*
X6832Y22754D1*
Y22512D1*
X6712Y22147D1*
X6467Y21906D1*
X6226Y21782D1*
X5861D1*
X5617Y21906D1*
X5375Y22147D1*
X4591Y22754D2*
X3134D1*
Y22998D1*
X3254Y23242D1*
X3375Y23363D1*
X3619Y23484D1*
X3984D1*
X4226Y23363D1*
X4470Y23119D1*
X4591Y22754D1*
Y22512D1*
X4470Y22147D1*
X4226Y21906D1*
X3984Y21782D1*
X3619D1*
X3375Y21906D1*
X3134Y22147D1*
X2349Y23484D2*
Y21782D1*
Y22754D2*
X2226Y23119D1*
X1984Y23363D1*
X1740Y23484D1*
X1375D1*
X38348Y27394D2*
D10*
X37560D1*
X37299Y27503D1*
X37210Y27614D1*
X37123Y27832D1*
Y28160D1*
X37210Y28377D1*
X37299Y28489D1*
X37560Y28597D1*
X38348D1*
Y26300D1*
X36723Y27503D2*
X35937D1*
X35674Y27614D1*
X35585Y27723D1*
X35498Y27940D1*
Y28160D1*
X35585Y28377D1*
X35674Y28489D1*
X35937Y28597D1*
X36723D1*
Y26300D1*
X36111Y27503D2*
X35498Y26300D1*
X34572Y28597D2*
X34748Y28489D1*
X34922Y28269D1*
X35011Y28051D1*
X35098Y27723D1*
Y27175D1*
X35011Y26849D1*
X34922Y26629D1*
X34748Y26411D1*
X34572Y26300D1*
X34223D1*
X34049Y26411D1*
X33873Y26629D1*
X33786Y26849D1*
X33699Y27175D1*
Y27723D1*
X33786Y28051D1*
X33873Y28269D1*
X34049Y28489D1*
X34223Y28597D1*
X34572D1*
X32687D2*
Y26300D1*
X33299Y28597D2*
X32074D1*
X31148D2*
X31324Y28489D1*
X31498Y28269D1*
X31587Y28051D1*
X31674Y27723D1*
Y27175D1*
X31587Y26849D1*
X31498Y26629D1*
X31324Y26411D1*
X31148Y26300D1*
X30799D1*
X30625Y26411D1*
X30449Y26629D1*
X30362Y26849D1*
X30275Y27175D1*
Y27723D1*
X30362Y28051D1*
X30449Y28269D1*
X30625Y28489D1*
X30799Y28597D1*
X31148D1*
X29263D2*
Y26300D1*
X29875Y28597D2*
X28650D1*
X28250D2*
X27551Y27503D1*
Y26300D1*
X26851Y28597D2*
X27551Y27503D1*
X26451Y27394D2*
X25663D1*
X25402Y27503D1*
X25313Y27614D1*
X25226Y27832D1*
Y28160D1*
X25313Y28377D1*
X25402Y28489D1*
X25663Y28597D1*
X26451D1*
Y26300D1*
X23690Y28597D2*
X24826D1*
Y26300D1*
X23690D1*
X24826Y27503D2*
X24127D1*
X20452Y28597D2*
Y26300D1*
X21677Y28597D1*
Y26300D1*
X19526Y28597D2*
X19702Y28489D1*
X19876Y28269D1*
X19965Y28051D1*
X20052Y27723D1*
Y27175D1*
X19965Y26849D1*
X19876Y26629D1*
X19702Y26411D1*
X19526Y26300D1*
X19177D1*
X19003Y26411D1*
X18827Y26629D1*
X18740Y26849D1*
X18653Y27175D1*
Y27723D1*
X18740Y28051D1*
X18827Y28269D1*
X19003Y28489D1*
X19177Y28597D1*
X19526D1*
X17641D2*
Y26300D1*
X18253Y28597D2*
X17028D1*
X13877D2*
X15015D1*
Y26300D1*
Y27503D2*
X14316D1*
X12951Y28597D2*
X13127Y28489D1*
X13301Y28269D1*
X13390Y28051D1*
X13477Y27723D1*
Y27175D1*
X13390Y26849D1*
X13301Y26629D1*
X13127Y26411D1*
X12951Y26300D1*
X12602D1*
X12428Y26411D1*
X12252Y26629D1*
X12165Y26849D1*
X12078Y27175D1*
Y27723D1*
X12165Y28051D1*
X12252Y28269D1*
X12428Y28489D1*
X12602Y28597D1*
X12951D1*
X11678Y27503D2*
X10892D1*
X10629Y27614D1*
X10540Y27723D1*
X10453Y27940D1*
Y28160D1*
X10540Y28377D1*
X10629Y28489D1*
X10892Y28597D1*
X11678D1*
Y26300D1*
X11066Y27503D2*
X10453Y26300D1*
X7215Y28269D2*
X7389Y28489D1*
X7652Y28597D1*
X8002D1*
X8264Y28489D1*
X8440Y28269D1*
Y28051D1*
X8351Y27832D1*
X8264Y27723D1*
X8090Y27614D1*
X7565Y27394D1*
X7389Y27286D1*
X7302Y27175D1*
X7215Y26957D1*
Y26629D1*
X7389Y26411D1*
X7652Y26300D1*
X8002D1*
X8264Y26411D1*
X8440Y26629D1*
X5414Y26300D2*
X6116Y28597D1*
X6815Y26300D1*
X6552Y27066D2*
X5677D1*
X5014Y28597D2*
Y26300D1*
X3965D1*
X2429Y28597D2*
X3565D1*
Y26300D1*
X2429D1*
X3565Y27503D2*
X2866D1*
X33615Y5423D2*
D113*
X33905Y6002D1*
X34491Y6589D1*
X35071Y6878D1*
X36237D1*
X36823Y6589D1*
X37402Y6002D1*
X37699Y5423D1*
X37989Y4547D1*
Y3085D1*
X37699Y2215D1*
X37402Y1629D1*
X36823Y1050D1*
X36237Y753D1*
X35071D1*
X34491Y1050D1*
X33905Y1629D1*
X33615Y2215D1*
Y3085D1*
X35071D1*
X31437Y5416D2*
Y5706D1*
X31147Y6292D1*
X30857Y6582D1*
X30271Y6872D1*
X29105D1*
X28526Y6582D1*
X28236Y6292D1*
X27939Y5706D1*
Y5126D1*
X28236Y4540D1*
X28815Y3671D1*
X31733Y753D1*
X27650D1*
X36507Y9882D2*
D114*
Y7840D1*
Y8909D2*
X36701Y9105D1*
X36896Y9201D1*
X37188D1*
X37381Y9105D1*
X37577Y8909D1*
X37673Y8617D1*
Y8424D1*
X37577Y8132D1*
X37381Y7939D1*
X37188Y7840D1*
X36896D1*
X36701Y7939D1*
X36507Y8132D1*
X35880Y8617D2*
X34714D1*
Y8813D1*
X34811Y9008D1*
X34907Y9105D1*
X35103Y9201D1*
X35395D1*
X35588Y9105D1*
X35783Y8909D1*
X35880Y8617D1*
Y8424D1*
X35783Y8132D1*
X35588Y7939D1*
X35395Y7840D1*
X35103D1*
X34907Y7939D1*
X34714Y8132D1*
X34087Y9201D2*
X33503Y7840D1*
X32921Y9201D1*
X31516Y10269D2*
X32195Y7450D1*
X30932Y10269D2*
X31613Y7450D1*
X32195Y9152D2*
X30836D1*
X32294Y8568D2*
X30932D1*
X21714Y18502D2*
D113*
X22293Y19089D1*
X23169Y19378D1*
X24335D1*
X25211Y19089D1*
X25797Y18502D1*
Y17923D1*
X25501Y17337D1*
X25211Y17047D1*
X24631Y16757D1*
X22879Y16171D1*
X22293Y15881D1*
X22003Y15585D1*
X21714Y15005D1*
Y14129D1*
X22293Y13550D1*
X23169Y13253D1*
X24335D1*
X25211Y13550D1*
X25797Y14129D1*
X15161Y13253D2*
X17500Y19378D1*
X19831Y13253D1*
X18955Y15295D2*
X16037D1*
X13279Y19378D2*
Y13253D1*
X11397Y19378D2*
Y13253D1*
X7900D1*
X25920Y10619D2*
D41*
X24828D1*
X24463Y10742D1*
X24340Y10863D1*
X24219Y11105D1*
Y11349D1*
X24340Y11590D1*
X24463Y11714D1*
X24828Y11835D1*
X25920D1*
Y9282D1*
X25070Y10619D2*
X24219Y9282D1*
X23435Y10254D2*
X21977D1*
Y10498D1*
X22098Y10742D1*
X22219Y10863D1*
X22463Y10984D1*
X22828D1*
X23070Y10863D1*
X23314Y10619D1*
X23435Y10254D1*
Y10012D1*
X23314Y9647D1*
X23070Y9406D1*
X22828Y9282D1*
X22463D1*
X22219Y9406D1*
X21977Y9647D1*
X19857Y10619D2*
X19977Y10863D1*
X20342Y10984D1*
X20707D1*
X21072Y10863D1*
X21193Y10619D1*
X21072Y10377D1*
X20828Y10254D1*
X20222Y10133D1*
X19977Y10012D1*
X19857Y9768D1*
Y9647D1*
X19977Y9406D1*
X20342Y9282D1*
X20707D1*
X21072Y9406D1*
X21193Y9647D1*
X19072Y10254D2*
X17615D1*
Y10498D1*
X17736Y10742D1*
X17857Y10863D1*
X18101Y10984D1*
X18466D1*
X18707Y10863D1*
X18952Y10619D1*
X19072Y10254D1*
Y10012D1*
X18952Y9647D1*
X18707Y9406D1*
X18466Y9282D1*
X18101D1*
X17857Y9406D1*
X17615Y9647D1*
X15374Y10984D2*
Y9282D1*
Y10619D2*
X15615Y10863D1*
X15859Y10984D1*
X16222D1*
X16466Y10863D1*
X16707Y10619D1*
X16831Y10254D1*
Y10012D1*
X16707Y9647D1*
X16466Y9406D1*
X16222Y9282D1*
X15859D1*
X15615Y9406D1*
X15374Y9647D1*
X14589Y10984D2*
Y9282D1*
Y10254D2*
X14466Y10619D1*
X14224Y10863D1*
X13980Y10984D1*
X13615D1*
X11371Y10619D2*
X11615Y10863D1*
X11859Y10984D1*
X12222D1*
X12466Y10863D1*
X12707Y10619D1*
X12831Y10254D1*
Y10012D1*
X12707Y9647D1*
X12466Y9406D1*
X12222Y9282D1*
X11859D1*
X11615Y9406D1*
X11371Y9647D1*
X10586Y11835D2*
Y9282D1*
Y10498D2*
X10221Y10863D1*
X9977Y10984D1*
X9612D1*
X9371Y10863D1*
X9250Y10498D1*
Y9282D1*
X18747Y4609D2*
Y2907D1*
Y4123D2*
X18419Y4488D1*
X18199Y4609D1*
X17873D1*
X17653Y4488D1*
X17545Y4123D1*
Y2907D1*
X16839Y4609D2*
Y2907D1*
Y4123D2*
X16510Y4488D1*
X16290Y4609D1*
X15964D1*
X15745Y4488D1*
X15636Y4123D1*
Y2907D1*
Y4123D2*
X15307Y4488D1*
X15088Y4609D1*
X14762D1*
X14542Y4488D1*
X14431Y4123D1*
Y2907D1*
X13179Y4609D2*
X13396Y4488D1*
X13616Y4244D1*
X13725Y3879D1*
Y3637D1*
X13616Y3272D1*
X13396Y3031D1*
X13179Y2907D1*
X12850D1*
X12631Y3031D1*
X12413Y3272D1*
X12302Y3637D1*
Y3879D1*
X12413Y4244D1*
X12631Y4488D1*
X12850Y4609D1*
X13179D1*
X11596D2*
X10939Y2907D1*
X10285Y4609D1*
X9579D2*
X8922Y2907D1*
X8267Y4609D1*
X6250D2*
Y2907D1*
Y4244D2*
X6467Y4488D1*
X6687Y4609D1*
X7013D1*
X7233Y4488D1*
X7450Y4244D1*
X7561Y3879D1*
Y3637D1*
X7450Y3272D1*
X7233Y3031D1*
X7013Y2907D1*
X6687D1*
X6467Y3031D1*
X6250Y3272D1*
X26091Y1810D2*
D115*
Y619D1*
Y1470D2*
X25861Y1725D1*
X25707Y1810D1*
X25479D1*
X25325Y1725D1*
X25249Y1470D1*
Y619D1*
X24755Y1299D2*
X23837D1*
Y1470D1*
X23913Y1641D1*
X23989Y1725D1*
X24143Y1810D1*
X24373D1*
X24525Y1725D1*
X24679Y1555D1*
X24755Y1299D1*
Y1130D1*
X24679Y874D1*
X24525Y705D1*
X24373Y619D1*
X24143D1*
X23989Y705D1*
X23837Y874D1*
X23343Y2406D2*
X23267Y2321D1*
X23189Y2406D1*
X23267Y2492D1*
X23343Y2406D1*
X23267Y1810D2*
Y619D1*
X22695Y2406D2*
Y619D1*
X21359Y1979D2*
X21589D1*
X21741Y1895D1*
X21819Y1810D1*
X21895Y1639D1*
Y1299D1*
X21819Y1214D1*
X21665D1*
X21359Y1299D1*
X21283Y1130D1*
X21207D1*
X21053Y1299D1*
X20977Y1724D1*
X21053Y1979D1*
X21129Y2150D1*
X21283Y2319D1*
X21435Y2404D1*
X21741D1*
X21895Y2319D1*
X22047Y2150D1*
X22125Y1979D1*
X22201Y1724D1*
Y1299D1*
X22125Y1044D1*
X22047Y874D1*
X21895Y703D1*
X21741Y619D1*
X21435D1*
X21283Y703D1*
X21129Y874D1*
X21359Y2064D2*
Y1299D1*
X19641Y1555D2*
X19717Y1725D1*
X19947Y1810D1*
X20177D1*
X20406Y1725D1*
X20483Y1555D1*
X20406Y1385D1*
X20253Y1299D1*
X19870Y1214D1*
X19717Y1130D1*
X19641Y959D1*
Y874D1*
X19717Y705D1*
X19947Y619D1*
X20177D1*
X20406Y705D1*
X20483Y874D1*
X18228Y1810D2*
Y619D1*
Y1555D2*
X18381Y1725D1*
X18534Y1810D1*
X18763D1*
X18916Y1725D1*
X19069Y1555D1*
X19146Y1299D1*
Y1130D1*
X19069Y874D1*
X18916Y705D1*
X18763Y619D1*
X18534D1*
X18381Y705D1*
X18228Y874D1*
X17734Y2406D2*
X17658Y2321D1*
X17580Y2406D1*
X17658Y2492D1*
X17734Y2406D1*
X17658Y1810D2*
Y619D1*
X17086Y2406D2*
Y619D1*
X16592Y1810D2*
Y619D1*
Y1299D2*
X16514Y1555D1*
X16362Y1725D1*
X16208Y1810D1*
X15978D1*
X15484Y1299D2*
X14566D1*
Y1470D1*
X14642Y1641D1*
X14718Y1725D1*
X14872Y1810D1*
X15102D1*
X15254Y1725D1*
X15408Y1555D1*
X15484Y1299D1*
Y1130D1*
X15408Y874D1*
X15254Y705D1*
X15102Y619D1*
X14872D1*
X14718Y705D1*
X14566Y874D1*
X13230Y1555D2*
X13306Y1725D1*
X13536Y1810D1*
X13766D1*
X13996Y1725D1*
X14072Y1555D1*
X13996Y1385D1*
X13842Y1299D1*
X13460Y1214D1*
X13306Y1130D1*
X13230Y959D1*
Y874D1*
X13306Y705D1*
X13536Y619D1*
X13766D1*
X13996Y705D1*
X14072Y874D1*
X12736Y1299D2*
X11818D1*
Y1470D1*
X11894Y1641D1*
X11970Y1725D1*
X12124Y1810D1*
X12354D1*
X12506Y1725D1*
X12660Y1555D1*
X12736Y1299D1*
Y1130D1*
X12660Y874D1*
X12506Y705D1*
X12354Y619D1*
X12124D1*
X11970Y705D1*
X11818Y874D1*
X10406Y1810D2*
Y619D1*
Y1555D2*
X10558Y1725D1*
X10712Y1810D1*
X10940D1*
X11094Y1725D1*
X11246Y1555D1*
X11324Y1299D1*
Y1130D1*
X11246Y874D1*
X11094Y705D1*
X10940Y619D1*
X10712D1*
X10558Y705D1*
X10406Y874D1*
X9912Y1810D2*
Y619D1*
Y1299D2*
X9834Y1555D1*
X9682Y1725D1*
X9528Y1810D1*
X9298D1*
X7884Y1555D2*
X8038Y1725D1*
X8192Y1810D1*
X8420D1*
X8574Y1725D1*
X8726Y1555D1*
X8804Y1299D1*
Y1130D1*
X8726Y874D1*
X8574Y705D1*
X8420Y619D1*
X8192D1*
X8038Y705D1*
X7884Y874D1*
X7390Y2406D2*
Y619D1*
Y1470D2*
X7160Y1725D1*
X7006Y1810D1*
X6776D1*
X6624Y1725D1*
X6548Y1470D1*
Y619D1*
X5978Y790D2*
X6054Y703D1*
X5978Y619D1*
X5900Y703D1*
X5978Y790D1*
X4486Y1555D2*
X4640Y1725D1*
X4794Y1810D1*
X5022D1*
X5176Y1725D1*
X5328Y1555D1*
X5406Y1299D1*
Y1130D1*
X5328Y874D1*
X5176Y705D1*
X5022Y619D1*
X4794D1*
X4640Y705D1*
X4486Y874D1*
X3610Y1810D2*
X3762Y1725D1*
X3916Y1555D1*
X3992Y1299D1*
Y1130D1*
X3916Y874D1*
X3762Y705D1*
X3610Y619D1*
X3380D1*
X3226Y705D1*
X3074Y874D1*
X2996Y1130D1*
Y1299D1*
X3074Y1555D1*
X3226Y1725D1*
X3380Y1810D1*
X3610D1*
X2502D2*
Y619D1*
Y1470D2*
X2272Y1725D1*
X2118Y1810D1*
X1890D1*
X1736Y1725D1*
X1660Y1470D1*
Y619D1*
Y1470D2*
X1430Y1725D1*
X1276Y1810D1*
X1048D1*
X894Y1725D1*
X816Y1470D1*
Y619D1*
M02*
