M48
METRIC,0000.00
T01C0.356
T02C0.4
T03C0.65
T04C0.8
T05C0.9
T06C1.1
%
T01
X+002975Y+000450
X+002975Y+000650
X+002975Y+000850
X+002712Y+000825
X+002399Y+000768
X+002304Y+000768
X+002208Y+000768
X+002113Y+000768
X+002031Y+000950
X+002300Y+001050
X+002344Y+001438
X+002150Y+001556
X+002195Y+001886
X+002290Y+001886
X+002385Y+001886
X+002480Y+001892
X+002575Y+001886
X+002512Y+002112
X+002794Y+002194
X+002675Y+002538
X+002319Y+002519
X+002069Y+002375
X+001900Y+002206
X+001919Y+001952
X+002194Y+002100
X+002031Y+002625
X+001806Y+002525
X+001650Y+002894
X+002075Y+002894
X+002525Y+002894
X+001612Y+002038
X+001612Y+001888
X+001612Y+001750
X+001612Y+001512
X+001338Y+001512
X+001338Y+001350
X+001338Y+001188
X+001338Y+001025
X+001475Y+001012
X+001612Y+001025
X+001612Y+000862
X+001838Y+000362
X+001838Y+000188
X+001475Y+000312
X+000975Y+000312
X+000625Y+000919
X+000625Y+001106
X+000625Y+001288
X+000678Y+001413
X+000678Y+001515
X+000525Y+001600
X+000575Y+001738
X+000734Y+001781
X+001038Y+001875
X+001338Y+001888
X+001338Y+001750
X+001338Y+002038
X+000838Y+002238
X+000712Y+002150
X+000278Y+002048
X+001125Y+002894
X+002675Y+001438
X+003175Y+001388
X+003175Y+001162
X+003175Y+001650
X+002975Y+000250
T02
X+001838Y+000550
X+000162Y+000150
X+000162Y+002869
X+003762Y+002869
X+003762Y+000150
T03
X+000306Y+001669
X+000306Y+001229
T04
X+000512Y+000657
X+000512Y+000457
X+000790Y+002519
X+000990Y+002519
T05
X+002113Y+000296
X+002367Y+000296
X+002621Y+000296
X+002621Y+000550
X+002367Y+000550
X+002113Y+000550
T06
X+003378Y+002041
X+003378Y+001787
X+003378Y+001533
X+003378Y+001279
X+003378Y+001025
T00
M30
