G04 DipTrace 2.4.0.2*
%INTopMask.gbr*%
%MOMM*%
%ADD33C,1.422*%
%ADD35R,1.27X0.559*%
%ADD36R,0.559X1.27*%
%ADD67R,0.6X1.5*%
%ADD69R,0.8X1.5*%
%ADD71R,0.8X0.7*%
%ADD73O,1.7X1.2*%
%ADD75R,2.1X2.1*%
%ADD77R,2.1X2.0*%
%ADD79R,1.8X2.3*%
%ADD81R,1.55X0.6*%
%ADD83O,2.5X2.3*%
%ADD85R,2.5X2.3*%
%ADD87R,0.85X1.25*%
%ADD89R,2.65X2.65*%
%ADD91R,0.5X1.05*%
%ADD93R,1.05X0.5*%
%ADD101C,2.0*%
%ADD103R,2.0X2.0*%
%ADD105R,1.3X1.2*%
%ADD107R,1.2X1.3*%
%ADD109R,1.6X3.05*%
%ADD111R,1.7X1.5*%
%FSLAX53Y53*%
G04*
G71*
G90*
G75*
G01*
%LNTopMask*%
%LPD*%
D111*
X25204Y24353D3*
Y22453D3*
D109*
X12289Y8025D3*
Y3221D3*
D107*
X18082Y12012D3*
Y13712D3*
X30477Y10832D3*
Y12532D3*
D111*
X16507Y11759D3*
Y13659D3*
D107*
X18463Y17955D3*
Y19655D3*
X20290Y17955D3*
Y19655D3*
X23317Y22324D3*
Y24024D3*
D105*
X21417Y26341D3*
X23117D3*
X31675Y18009D3*
X29975D3*
X31675Y19710D3*
X29975D3*
D103*
X21130Y2962D3*
D101*
X23670D3*
X26210D3*
Y5502D3*
X23670D3*
X21130D3*
D33*
X5123Y6572D3*
Y4572D3*
X9905Y25186D3*
X7905D3*
D35*
X19911Y16068D3*
Y15268D3*
Y14468D3*
Y13668D3*
Y12868D3*
Y12068D3*
Y11268D3*
Y10468D3*
D36*
X21404Y8976D3*
X22204D3*
X23004D3*
X23804D3*
X24604D3*
X25404D3*
X26204D3*
X27004D3*
D35*
X28496Y10468D3*
Y11268D3*
Y12068D3*
Y12868D3*
Y13668D3*
Y14468D3*
Y15268D3*
Y16068D3*
D36*
X27004Y17561D3*
X26204D3*
X25404D3*
X24604D3*
X23804D3*
X23004D3*
X22204D3*
X21404D3*
D93*
X17916Y24200D3*
Y23700D3*
Y23200D3*
Y22700D3*
Y22200D3*
Y21700D3*
D91*
X18636Y20980D3*
X19136D3*
X19636D3*
X20136D3*
X20636D3*
X21136D3*
D93*
X21856Y21700D3*
Y22200D3*
Y22700D3*
Y23200D3*
Y23700D3*
Y24200D3*
D91*
X21136Y24920D3*
X20636D3*
X20136D3*
X19636D3*
X19136D3*
X18636D3*
D89*
X19886Y22950D3*
D87*
X5110Y20145D3*
X7010D3*
X6060Y22445D3*
X3103Y23802D3*
X5003D3*
X4053Y26102D3*
X8920Y20145D3*
X10820D3*
X9870Y22445D3*
X14689Y24096D3*
X12789D3*
X13739Y21796D3*
D107*
X18000Y28037D3*
Y26338D3*
X19438Y28037D3*
Y26338D3*
X8000Y5750D3*
Y7450D3*
X3672Y20648D3*
Y22348D3*
D105*
X7098Y18755D3*
X8798D3*
X10500Y17375D3*
X8800D3*
D107*
X2000Y23375D3*
Y21675D3*
X30020Y16496D3*
Y14796D3*
X28539Y19697D3*
Y17997D3*
D105*
X25100Y20000D3*
X23400D3*
D85*
X33779Y20406D3*
D83*
Y17866D3*
Y15326D3*
Y12786D3*
Y10246D3*
D81*
X4134Y15787D3*
Y15137D3*
Y14487D3*
Y13837D3*
Y13187D3*
D79*
X4009Y17587D3*
Y11387D3*
D77*
X1459Y18487D3*
Y10487D3*
D75*
Y15687D3*
Y13287D3*
D73*
X3059Y16687D3*
Y12287D3*
D71*
X26669Y24140D3*
Y22240D3*
X28869Y23187D3*
D69*
X17564Y8341D3*
D67*
X18514D3*
D69*
X19464D3*
M02*
