G04 DipTrace 2.4.0.2*
%INTopSilk.gbr*%
%MOMM*%
%ADD10C,0.25*%
%ADD12C,0.076*%
%ADD29O,0.9X0.9*%
%ADD32C,0.127*%
%ADD34C,0.152*%
%ADD37O,0.411X0.39*%
%ADD41O,0.391X0.392*%
%ADD45O,0.4X0.401*%
%ADD51C,0.476*%
%ADD116C,0.157*%
%FSLAX53Y53*%
G04*
G71*
G90*
G75*
G01*
%LNTopSilk*%
%LPD*%
X24554Y25403D2*
D10*
X25853D1*
X15589Y2323D2*
X13389D1*
X15589D2*
Y7823D1*
X14489Y8922D2*
X15589Y7823D1*
X14489Y8922D2*
X13389D1*
X11189Y2323D2*
X8989D1*
Y7823D1*
X10089Y8922D2*
X8989Y7823D1*
X11189Y8922D2*
X10089D1*
X10489Y8323D2*
Y7023D1*
X9839Y7673D2*
X11139D1*
X10489Y4123D2*
Y2823D1*
X17157Y10709D2*
X15858D1*
X19870Y6732D2*
X27470D1*
Y1732D1*
X19870D1*
Y6732D1*
D29*
X19020Y2482D3*
X6823Y8572D2*
D32*
Y6072D1*
X7323D1*
Y5072D1*
X6823D1*
Y2572D1*
X2323D1*
Y8572D1*
X6823D1*
X11905Y23486D2*
X9405D1*
Y22986D1*
X8405D1*
Y23486D1*
X5905D1*
Y27986D1*
X11905D1*
Y23486D1*
X27709Y16774D2*
D34*
Y9763D1*
X20698D1*
Y16418D1*
X21054Y16774D2*
X27709D1*
X21054D2*
X20698Y16418D1*
X21101Y16011D2*
G02X21101Y16011I359J0D01*
G01*
D37*
X16989Y24195D3*
D41*
X4326Y19771D3*
X4560Y21045D2*
D10*
X7560D1*
Y21545D1*
X4560D1*
Y21045D1*
D41*
X2320Y23429D3*
X2554Y24702D2*
D10*
X5553D1*
Y25202D1*
X2554D1*
Y24702D1*
D41*
X8136Y19771D3*
X8370Y21045D2*
D10*
X11370D1*
Y21545D1*
X8370D1*
Y21045D1*
D41*
X15472Y24469D3*
X15239Y23196D2*
D10*
X12239D1*
Y22696D1*
X15239D1*
Y23196D1*
X35049Y21677D2*
X32509D1*
Y8974D1*
X35049D1*
Y21677D1*
X38859Y36826D2*
X32509D1*
Y-6174D1*
X38859D1*
Y36826D1*
X54Y10687D2*
X-696D1*
Y18538D2*
Y10437D1*
Y18538D2*
X-1295D1*
D45*
X5305Y15787D3*
X54Y18288D2*
D10*
X-696D1*
Y10437D2*
X-1295D1*
Y18538D2*
Y10437D1*
X28404Y24777D2*
X27134D1*
Y21602D1*
X28404D1*
Y24777D1*
D51*
X27690Y24222D3*
X16864Y9191D2*
D10*
X20164D1*
Y7491D1*
X16864D1*
Y9191D1*
X25247Y26026D2*
D12*
X25223Y26074D1*
X25174Y26123D1*
X25125Y26147D1*
X25028D1*
X24979Y26123D1*
X24931Y26074D1*
X24906Y26026D1*
X24882Y25953D1*
Y25831D1*
X24906Y25759D1*
X24931Y25710D1*
X24979Y25662D1*
X25028Y25637D1*
X25125D1*
X25174Y25662D1*
X25223Y25710D1*
X25247Y25759D1*
X25404Y26050D2*
X25452Y26074D1*
X25525Y26147D1*
Y25637D1*
X12223Y10072D2*
X12198Y10121D1*
X12150Y10170D1*
X12101Y10194D1*
X12004D1*
X11955Y10170D1*
X11907Y10121D1*
X11882Y10072D1*
X11858Y9999D1*
Y9878D1*
X11882Y9805D1*
X11907Y9756D1*
X11955Y9708D1*
X12004Y9683D1*
X12101D1*
X12150Y9708D1*
X12198Y9756D1*
X12223Y9805D1*
X12404Y10072D2*
Y10096D1*
X12428Y10145D1*
X12453Y10169D1*
X12501Y10193D1*
X12599D1*
X12647Y10169D1*
X12671Y10145D1*
X12696Y10096D1*
Y10048D1*
X12671Y9999D1*
X12623Y9926D1*
X12380Y9683D1*
X12720D1*
X16960Y12795D2*
X16911Y12771D1*
X16862Y12722D1*
X16838Y12674D1*
Y12577D1*
X16862Y12528D1*
X16911Y12480D1*
X16960Y12455D1*
X17033Y12431D1*
X17154D1*
X17227Y12455D1*
X17276Y12480D1*
X17324Y12528D1*
X17349Y12577D1*
Y12674D1*
X17324Y12722D1*
X17276Y12771D1*
X17227Y12795D1*
X16839Y13001D2*
Y13268D1*
X17033Y13122D1*
Y13195D1*
X17057Y13244D1*
X17081Y13268D1*
X17154Y13293D1*
X17203D1*
X17276Y13268D1*
X17325Y13220D1*
X17349Y13147D1*
Y13074D1*
X17325Y13001D1*
X17300Y12977D1*
X17252Y12952D1*
X29355Y11604D2*
X29306Y11579D1*
X29258Y11531D1*
X29233Y11482D1*
Y11385D1*
X29258Y11336D1*
X29306Y11288D1*
X29355Y11263D1*
X29428Y11239D1*
X29550D1*
X29622Y11263D1*
X29671Y11288D1*
X29719Y11336D1*
X29744Y11385D1*
Y11482D1*
X29719Y11531D1*
X29671Y11579D1*
X29622Y11604D1*
X29744Y12004D2*
X29234D1*
X29574Y11760D1*
Y12125D1*
X16441Y14932D2*
X16417Y14980D1*
X16368Y15029D1*
X16320Y15053D1*
X16223D1*
X16174Y15029D1*
X16125Y14980D1*
X16101Y14932D1*
X16077Y14859D1*
Y14737D1*
X16101Y14665D1*
X16125Y14616D1*
X16174Y14568D1*
X16223Y14543D1*
X16320D1*
X16368Y14568D1*
X16417Y14616D1*
X16441Y14665D1*
X16889Y15053D2*
X16647D1*
X16623Y14834D1*
X16647Y14858D1*
X16720Y14883D1*
X16792D1*
X16865Y14858D1*
X16914Y14810D1*
X16938Y14737D1*
Y14689D1*
X16914Y14616D1*
X16865Y14567D1*
X16792Y14543D1*
X16720D1*
X16647Y14567D1*
X16623Y14592D1*
X16598Y14640D1*
X18417Y18945D2*
X18393Y18994D1*
X18344Y19043D1*
X18296Y19067D1*
X18199D1*
X18150Y19043D1*
X18102Y18994D1*
X18077Y18945D1*
X18053Y18872D1*
Y18751D1*
X18077Y18678D1*
X18102Y18629D1*
X18150Y18581D1*
X18199Y18556D1*
X18296D1*
X18344Y18581D1*
X18393Y18629D1*
X18417Y18678D1*
X18865Y18994D2*
X18841Y19042D1*
X18768Y19066D1*
X18720D1*
X18647Y19042D1*
X18598Y18969D1*
X18574Y18848D1*
Y18726D1*
X18598Y18629D1*
X18647Y18580D1*
X18720Y18556D1*
X18744D1*
X18817Y18580D1*
X18865Y18629D1*
X18890Y18702D1*
Y18726D1*
X18865Y18799D1*
X18817Y18848D1*
X18744Y18872D1*
X18720D1*
X18647Y18848D1*
X18598Y18799D1*
X18574Y18726D1*
X20232Y18920D2*
X20207Y18968D1*
X20159Y19017D1*
X20110Y19041D1*
X20013D1*
X19964Y19017D1*
X19916Y18968D1*
X19891Y18920D1*
X19867Y18847D1*
Y18725D1*
X19891Y18653D1*
X19916Y18604D1*
X19964Y18556D1*
X20013Y18531D1*
X20110D1*
X20159Y18556D1*
X20207Y18604D1*
X20232Y18653D1*
X20486Y18531D2*
X20729Y19041D1*
X20389D1*
X22194Y23108D2*
X22146Y23084D1*
X22097Y23035D1*
X22073Y22987D1*
Y22890D1*
X22097Y22841D1*
X22146Y22793D1*
X22194Y22768D1*
X22267Y22744D1*
X22389D1*
X22461Y22768D1*
X22510Y22793D1*
X22558Y22841D1*
X22583Y22890D1*
Y22987D1*
X22558Y23035D1*
X22510Y23084D1*
X22461Y23108D1*
X22073Y23386D2*
X22097Y23314D1*
X22146Y23289D1*
X22195D1*
X22243Y23314D1*
X22268Y23362D1*
X22292Y23459D1*
X22316Y23532D1*
X22365Y23581D1*
X22413Y23605D1*
X22486D1*
X22534Y23581D1*
X22559Y23556D1*
X22583Y23483D1*
Y23386D1*
X22559Y23314D1*
X22534Y23289D1*
X22486Y23265D1*
X22413D1*
X22365Y23289D1*
X22316Y23338D1*
X22292Y23410D1*
X22268Y23508D1*
X22243Y23556D1*
X22195Y23581D1*
X22146D1*
X22097Y23556D1*
X22073Y23483D1*
Y23386D1*
X22213Y27464D2*
X22189Y27512D1*
X22140Y27561D1*
X22092Y27585D1*
X21994D1*
X21946Y27561D1*
X21897Y27512D1*
X21873Y27464D1*
X21848Y27391D1*
Y27269D1*
X21873Y27197D1*
X21897Y27148D1*
X21946Y27100D1*
X21994Y27075D1*
X22092D1*
X22140Y27100D1*
X22189Y27148D1*
X22213Y27197D1*
X22686Y27415D2*
X22661Y27342D1*
X22613Y27293D1*
X22540Y27269D1*
X22516D1*
X22443Y27293D1*
X22394Y27342D1*
X22370Y27415D1*
Y27439D1*
X22394Y27512D1*
X22443Y27561D1*
X22516Y27585D1*
X22540D1*
X22613Y27561D1*
X22661Y27512D1*
X22686Y27415D1*
Y27293D1*
X22661Y27172D1*
X22613Y27099D1*
X22540Y27075D1*
X22492D1*
X22419Y27099D1*
X22394Y27148D1*
X30572Y17592D2*
X31082D1*
Y17762D1*
X31057Y17835D1*
X31009Y17884D1*
X30960Y17908D1*
X30888Y17932D1*
X30766D1*
X30693Y17908D1*
X30645Y17884D1*
X30596Y17835D1*
X30572Y17762D1*
Y17592D1*
X31082Y18333D2*
X30572D1*
X30912Y18089D1*
Y18454D1*
X30564Y19309D2*
X31074D1*
Y19479D1*
X31049Y19552D1*
X31001Y19601D1*
X30952Y19625D1*
X30880Y19649D1*
X30758D1*
X30685Y19625D1*
X30637Y19601D1*
X30588Y19552D1*
X30564Y19479D1*
Y19309D1*
Y20098D2*
Y19855D1*
X30783Y19831D1*
X30759Y19855D1*
X30734Y19928D1*
Y20001D1*
X30759Y20074D1*
X30807Y20122D1*
X30880Y20147D1*
X30928D1*
X31001Y20122D1*
X31050Y20074D1*
X31074Y20001D1*
Y19928D1*
X31050Y19855D1*
X31025Y19831D1*
X30977Y19806D1*
X23002Y7476D2*
Y7087D1*
X22978Y7014D1*
X22954Y6990D1*
X22905Y6965D1*
X22856D1*
X22808Y6990D1*
X22784Y7014D1*
X22759Y7087D1*
Y7135D1*
X23159Y7378D2*
X23208Y7403D1*
X23281Y7475D1*
Y6965D1*
X4308Y9316D2*
Y8927D1*
X4284Y8854D1*
X4260Y8830D1*
X4211Y8806D1*
X4162D1*
X4114Y8830D1*
X4090Y8854D1*
X4065Y8927D1*
Y8976D1*
X4806Y9243D2*
X4757Y9292D1*
X4684Y9316D1*
X4587D1*
X4514Y9292D1*
X4465Y9243D1*
Y9195D1*
X4490Y9146D1*
X4514Y9122D1*
X4562Y9098D1*
X4708Y9049D1*
X4757Y9025D1*
X4781Y9000D1*
X4806Y8952D1*
Y8879D1*
X4757Y8830D1*
X4684Y8806D1*
X4587D1*
X4514Y8830D1*
X4465Y8879D1*
X5133Y9316D2*
Y8806D1*
X4962Y9316D2*
X5303D1*
X5460Y9218D2*
X5508Y9243D1*
X5581Y9315D1*
Y8806D1*
X7707Y27256D2*
Y26868D1*
X7683Y26795D1*
X7659Y26771D1*
X7610Y26746D1*
X7561D1*
X7513Y26771D1*
X7489Y26795D1*
X7464Y26868D1*
Y26916D1*
X8205Y27183D2*
X8156Y27232D1*
X8083Y27256D1*
X7986D1*
X7913Y27232D1*
X7864Y27183D1*
Y27135D1*
X7889Y27086D1*
X7913Y27062D1*
X7961Y27038D1*
X8107Y26989D1*
X8156Y26965D1*
X8180Y26940D1*
X8205Y26892D1*
Y26819D1*
X8156Y26771D1*
X8083Y26746D1*
X7986D1*
X7913Y26771D1*
X7864Y26819D1*
X8532Y27256D2*
Y26746D1*
X8361Y27256D2*
X8702D1*
X8859Y27001D2*
X9139D1*
X9685Y26746D2*
Y27256D1*
X9491Y26746D1*
X9296Y27256D1*
Y26746D1*
X24259Y18429D2*
Y18940D1*
X24064Y18429D1*
X23870Y18940D1*
Y18429D1*
X24415Y18842D2*
X24464Y18867D1*
X24537Y18939D1*
Y18429D1*
X19478Y25578D2*
Y26089D1*
X19284Y25578D1*
X19089Y26089D1*
Y25578D1*
X19660Y25967D2*
Y25991D1*
X19684Y26040D1*
X19708Y26064D1*
X19757Y26088D1*
X19854D1*
X19902Y26064D1*
X19926Y26040D1*
X19951Y25991D1*
Y25943D1*
X19926Y25894D1*
X19878Y25821D1*
X19635Y25578D1*
X19975D1*
X5657Y23714D2*
X5609Y23690D1*
X5560Y23641D1*
X5536Y23592D1*
X5511Y23519D1*
Y23398D1*
X5536Y23325D1*
X5560Y23277D1*
X5609Y23228D1*
X5657Y23204D1*
X5755D1*
X5803Y23228D1*
X5852Y23277D1*
X5876Y23325D1*
X5901Y23398D1*
Y23519D1*
X5876Y23592D1*
X5852Y23641D1*
X5803Y23690D1*
X5755Y23714D1*
X5657D1*
X5730Y23301D2*
X5876Y23155D1*
X6057Y23616D2*
X6106Y23641D1*
X6179Y23713D1*
Y23203D1*
X3542Y27371D2*
X3493Y27348D1*
X3445Y27299D1*
X3420Y27250D1*
X3396Y27177D1*
Y27056D1*
X3420Y26983D1*
X3445Y26934D1*
X3493Y26885D1*
X3542Y26861D1*
X3639D1*
X3688Y26885D1*
X3736Y26934D1*
X3760Y26983D1*
X3785Y27056D1*
Y27177D1*
X3760Y27250D1*
X3736Y27299D1*
X3688Y27348D1*
X3639Y27371D1*
X3542D1*
X3615Y26958D2*
X3760Y26812D1*
X3991Y27371D2*
X4257D1*
X4112Y27176D1*
X4185D1*
X4233Y27152D1*
X4257Y27128D1*
X4282Y27055D1*
Y27007D1*
X4257Y26934D1*
X4209Y26885D1*
X4136Y26861D1*
X4063D1*
X3991Y26885D1*
X3966Y26910D1*
X3942Y26958D1*
X9346Y23714D2*
X9298Y23690D1*
X9249Y23641D1*
X9225Y23592D1*
X9200Y23519D1*
Y23398D1*
X9225Y23325D1*
X9249Y23277D1*
X9298Y23228D1*
X9346Y23204D1*
X9443D1*
X9492Y23228D1*
X9540Y23277D1*
X9565Y23325D1*
X9589Y23398D1*
Y23519D1*
X9565Y23592D1*
X9540Y23641D1*
X9492Y23690D1*
X9443Y23714D1*
X9346D1*
X9419Y23301D2*
X9565Y23155D1*
X9989Y23203D2*
Y23713D1*
X9746Y23373D1*
X10111D1*
X13656Y25409D2*
X13608Y25385D1*
X13559Y25337D1*
X13535Y25288D1*
X13510Y25215D1*
Y25093D1*
X13535Y25020D1*
X13559Y24972D1*
X13608Y24923D1*
X13656Y24899D1*
X13753D1*
X13802Y24923D1*
X13851Y24972D1*
X13875Y25020D1*
X13899Y25093D1*
Y25215D1*
X13875Y25288D1*
X13851Y25337D1*
X13802Y25385D1*
X13753Y25409D1*
X13656D1*
X13729Y24996D2*
X13875Y24850D1*
X14348Y25408D2*
X14105D1*
X14081Y25190D1*
X14105Y25214D1*
X14178Y25239D1*
X14251D1*
X14324Y25214D1*
X14372Y25166D1*
X14397Y25093D1*
Y25045D1*
X14372Y24972D1*
X14324Y24923D1*
X14251Y24899D1*
X14178D1*
X14105Y24923D1*
X14081Y24947D1*
X14056Y24996D1*
X16999Y26878D2*
Y27096D1*
X16974Y27169D1*
X16950Y27194D1*
X16902Y27218D1*
X16853D1*
X16805Y27194D1*
X16780Y27169D1*
X16756Y27096D1*
Y26878D1*
X17266D1*
X16999Y27048D2*
X17266Y27218D1*
X16854Y27375D2*
X16829Y27424D1*
X16757Y27497D1*
X17266D1*
X18437Y26769D2*
Y26987D1*
X18412Y27060D1*
X18388Y27085D1*
X18340Y27109D1*
X18291D1*
X18242Y27085D1*
X18218Y27060D1*
X18194Y26987D1*
Y26769D1*
X18704D1*
X18437Y26939D2*
X18704Y27109D1*
X18315Y27291D2*
X18291D1*
X18242Y27315D1*
X18218Y27339D1*
X18194Y27388D1*
Y27485D1*
X18218Y27533D1*
X18242Y27557D1*
X18291Y27582D1*
X18340D1*
X18388Y27557D1*
X18461Y27509D1*
X18704Y27266D1*
Y27606D1*
X6999Y6169D2*
Y6388D1*
X6974Y6461D1*
X6950Y6485D1*
X6902Y6509D1*
X6853D1*
X6805Y6485D1*
X6780Y6461D1*
X6756Y6388D1*
Y6169D1*
X7266D1*
X6999Y6339D2*
X7266Y6509D1*
Y6910D2*
X6757D1*
X7096Y6666D1*
Y7031D1*
X2672Y21079D2*
Y21298D1*
X2647Y21371D1*
X2623Y21395D1*
X2574Y21419D1*
X2526D1*
X2477Y21395D1*
X2453Y21371D1*
X2428Y21298D1*
Y21079D1*
X2939D1*
X2672Y21249D2*
X2939Y21419D1*
X2429Y21868D2*
Y21625D1*
X2647Y21601D1*
X2623Y21625D1*
X2599Y21698D1*
Y21771D1*
X2623Y21844D1*
X2672Y21892D1*
X2745Y21917D1*
X2793D1*
X2866Y21892D1*
X2915Y21844D1*
X2939Y21771D1*
Y21698D1*
X2915Y21625D1*
X2890Y21601D1*
X2842Y21576D1*
X7541Y19755D2*
X7760D1*
X7833Y19780D1*
X7857Y19804D1*
X7882Y19853D1*
Y19901D1*
X7857Y19950D1*
X7833Y19974D1*
X7760Y19999D1*
X7541D1*
Y19488D1*
X7711Y19755D2*
X7882Y19488D1*
X8330Y19926D2*
X8306Y19974D1*
X8233Y19998D1*
X8184D1*
X8111Y19974D1*
X8063Y19901D1*
X8038Y19780D1*
Y19658D1*
X8063Y19561D1*
X8111Y19512D1*
X8184Y19488D1*
X8209D1*
X8281Y19512D1*
X8330Y19561D1*
X8354Y19634D1*
Y19658D1*
X8330Y19731D1*
X8281Y19780D1*
X8209Y19804D1*
X8184D1*
X8111Y19780D1*
X8063Y19731D1*
X8038Y19658D1*
X9231Y18376D2*
X9450D1*
X9523Y18401D1*
X9547Y18425D1*
X9572Y18473D1*
Y18522D1*
X9547Y18570D1*
X9523Y18595D1*
X9450Y18619D1*
X9231D1*
Y18109D1*
X9401Y18376D2*
X9572Y18109D1*
X9826D2*
X10069Y18618D1*
X9728D1*
X999Y22107D2*
Y22325D1*
X974Y22398D1*
X950Y22423D1*
X902Y22447D1*
X853D1*
X805Y22423D1*
X780Y22398D1*
X756Y22325D1*
Y22107D1*
X1266D1*
X999Y22277D2*
X1266Y22447D1*
X757Y22725D2*
X781Y22653D1*
X829Y22628D1*
X878D1*
X926Y22653D1*
X951Y22701D1*
X975Y22798D1*
X999Y22871D1*
X1048Y22919D1*
X1096Y22943D1*
X1169D1*
X1218Y22919D1*
X1242Y22895D1*
X1266Y22822D1*
Y22725D1*
X1242Y22653D1*
X1218Y22628D1*
X1169Y22604D1*
X1096D1*
X1048Y22628D1*
X999Y22677D1*
X975Y22749D1*
X951Y22846D1*
X926Y22895D1*
X878Y22919D1*
X829D1*
X781Y22895D1*
X757Y22822D1*
Y22725D1*
X30902Y15257D2*
Y15476D1*
X30877Y15549D1*
X30853Y15573D1*
X30805Y15597D1*
X30756D1*
X30708Y15573D1*
X30683Y15549D1*
X30659Y15476D1*
Y15257D1*
X31169D1*
X30902Y15427D2*
X31169Y15597D1*
X30829Y16070D2*
X30902Y16046D1*
X30951Y15997D1*
X30975Y15924D1*
Y15900D1*
X30951Y15827D1*
X30902Y15779D1*
X30829Y15754D1*
X30805D1*
X30732Y15779D1*
X30684Y15827D1*
X30659Y15900D1*
Y15924D1*
X30684Y15997D1*
X30732Y16046D1*
X30829Y16070D1*
X30951D1*
X31072Y16046D1*
X31145Y15997D1*
X31169Y15924D1*
Y15876D1*
X31145Y15803D1*
X31096Y15779D1*
X28040Y18890D2*
X28258D1*
X28331Y18915D1*
X28356Y18939D1*
X28380Y18988D1*
Y19036D1*
X28356Y19085D1*
X28331Y19109D1*
X28258Y19134D1*
X28040D1*
Y18623D1*
X28210Y18890D2*
X28380Y18623D1*
X28537Y19036D2*
X28586Y19061D1*
X28659Y19133D1*
Y18623D1*
X28962Y19133D2*
X28889Y19109D1*
X28840Y19036D1*
X28816Y18915D1*
Y18842D1*
X28840Y18720D1*
X28889Y18647D1*
X28962Y18623D1*
X29010D1*
X29083Y18647D1*
X29131Y18720D1*
X29156Y18842D1*
Y18915D1*
X29131Y19036D1*
X29083Y19109D1*
X29010Y19133D1*
X28962D1*
X29131Y19036D2*
X28840Y18720D1*
X23750Y19121D2*
X23969D1*
X24042Y19146D1*
X24066Y19170D1*
X24091Y19218D1*
Y19267D1*
X24066Y19315D1*
X24042Y19340D1*
X23969Y19364D1*
X23750D1*
Y18854D1*
X23920Y19121D2*
X24091Y18854D1*
X24247Y19267D2*
X24296Y19291D1*
X24369Y19364D1*
Y18854D1*
X24526Y19267D2*
X24575Y19291D1*
X24648Y19364D1*
Y18854D1*
X35126Y37570D2*
Y37205D1*
X35150Y37132D1*
X35199Y37084D1*
X35272Y37059D1*
X35321D1*
X35394Y37084D1*
X35442Y37132D1*
X35467Y37205D1*
Y37570D1*
X35964Y37497D2*
X35915Y37545D1*
X35842Y37570D1*
X35745D1*
X35672Y37545D1*
X35623Y37497D1*
Y37448D1*
X35648Y37399D1*
X35672Y37375D1*
X35721Y37351D1*
X35867Y37302D1*
X35915Y37278D1*
X35940Y37253D1*
X35964Y37205D1*
Y37132D1*
X35915Y37084D1*
X35842Y37059D1*
X35745D1*
X35672Y37084D1*
X35623Y37132D1*
X36121Y37472D2*
X36169Y37497D1*
X36242Y37569D1*
Y37059D1*
X2658Y13474D2*
X3023D1*
X3096Y13498D1*
X3144Y13547D1*
X3169Y13620D1*
Y13668D1*
X3144Y13741D1*
X3096Y13790D1*
X3023Y13814D1*
X2658D1*
X2731Y14311D2*
X2683Y14263D1*
X2658Y14190D1*
Y14093D1*
X2683Y14020D1*
X2731Y13971D1*
X2780D1*
X2829Y13996D1*
X2853Y14020D1*
X2877Y14068D1*
X2926Y14214D1*
X2950Y14263D1*
X2975Y14287D1*
X3023Y14311D1*
X3096D1*
X3144Y14263D1*
X3169Y14190D1*
Y14093D1*
X3144Y14020D1*
X3096Y13971D1*
X2658Y14468D2*
X3169D1*
Y14687D1*
X3144Y14760D1*
X3120Y14784D1*
X3072Y14808D1*
X2999D1*
X2950Y14784D1*
X2926Y14760D1*
X2902Y14687D1*
X2877Y14760D1*
X2853Y14784D1*
X2804Y14808D1*
X2756D1*
X2707Y14784D1*
X2683Y14760D1*
X2658Y14687D1*
Y14468D1*
X2902D2*
Y14687D1*
X2756Y14965D2*
X2731Y15014D1*
X2659Y15087D1*
X3169D1*
X27187Y25521D2*
X27381Y25011D1*
X27576Y25521D1*
X27733Y25278D2*
X27951D1*
X28024Y25303D1*
X28049Y25327D1*
X28073Y25375D1*
Y25424D1*
X28049Y25472D1*
X28024Y25497D1*
X27951Y25521D1*
X27733D1*
Y25011D1*
X27903Y25278D2*
X28073Y25011D1*
X28230Y25424D2*
X28279Y25448D1*
X28352Y25521D1*
Y25011D1*
X18204Y9935D2*
X18545Y9424D1*
Y9935D2*
X18204Y9424D1*
X18702Y9837D2*
X18751Y9862D1*
X18824Y9934D1*
Y9424D1*
X34229Y8423D2*
D116*
X33208Y8034D1*
X34229Y7646D1*
X33986Y6603D2*
X34083Y6652D1*
X34180Y6749D1*
X34229Y6846D1*
Y7040D1*
X34180Y7138D1*
X34083Y7234D1*
X33986Y7284D1*
X33840Y7332D1*
X33596D1*
X33451Y7284D1*
X33354Y7234D1*
X33257Y7138D1*
X33208Y7040D1*
Y6846D1*
X33257Y6749D1*
X33354Y6652D1*
X33451Y6603D1*
X33986Y5561D2*
X34083Y5609D1*
X34180Y5707D1*
X34229Y5803D1*
Y5998D1*
X34180Y6095D1*
X34083Y6192D1*
X33986Y6241D1*
X33840Y6290D1*
X33596D1*
X33451Y6241D1*
X33354Y6192D1*
X33257Y6095D1*
X33208Y5998D1*
Y5803D1*
X33257Y5707D1*
X33354Y5609D1*
X33451Y5561D1*
X33986Y24202D2*
X34083Y24250D1*
X34180Y24348D1*
X34229Y24444D1*
Y24639D1*
X34180Y24736D1*
X34083Y24833D1*
X33986Y24882D1*
X33840Y24931D1*
X33596D1*
X33451Y24882D1*
X33354Y24833D1*
X33257Y24736D1*
X33208Y24639D1*
Y24444D1*
X33257Y24348D1*
X33354Y24250D1*
X33451Y24202D1*
X33596D1*
Y24444D1*
X34229Y23208D2*
X33208D1*
X34229Y23888D1*
X33208D1*
X34229Y22894D2*
X33208D1*
Y22554D1*
X33257Y22408D1*
X33354Y22310D1*
X33451Y22262D1*
X33596Y22213D1*
X33840D1*
X33986Y22262D1*
X34083Y22310D1*
X34180Y22408D1*
X34229Y22554D1*
Y22894D1*
M02*
