G04 DipTrace 2.4.0.2*
%INTop.gbr*%
%MOMM*%
%ADD13C,0.33*%
%ADD14C,0.3*%
%ADD15C,0.22*%
%ADD16C,0.635*%
%ADD17C,0.762*%
%ADD18C,1.143*%
%ADD19C,1.1*%
%ADD20C,0.889*%
%ADD21C,0.5*%
%ADD22C,0.914*%
%ADD23C,1.0*%
%ADD24C,0.254*%
%ADD25R,1.5X1.3*%
%ADD26R,1.4X2.85*%
%ADD27R,1.0X1.1*%
%ADD28R,1.1X1.0*%
%ADD30R,1.8X1.8*%
%ADD31C,1.8*%
%ADD33C,1.422*%
%ADD35R,1.27X0.559*%
%ADD36R,0.559X1.27*%
%ADD38R,0.85X0.3*%
%ADD39R,0.3X0.85*%
%ADD40R,2.45X2.45*%
%ADD42R,0.65X1.05*%
%ADD43R,2.3X2.1*%
%ADD44O,2.3X2.1*%
%ADD46R,1.35X0.4*%
%ADD47R,1.6X2.1*%
%ADD48R,1.9X1.8*%
%ADD49R,1.9X1.9*%
%ADD50O,1.5X1.0*%
%ADD52R,0.6X0.5*%
%ADD53R,0.6X1.3*%
%ADD54R,0.4X1.3*%
%ADD56C,0.75*%
%ADD57C,1.5*%
%FSLAX53Y53*%
G04*
G71*
G90*
G75*
G01*
%LNTop*%
%LPD*%
X26669Y22240D2*
D13*
X25417D1*
X25204Y22453D1*
X23445D1*
X23317Y22324D1*
X21856Y21700D2*
D14*
X22692D1*
D13*
X23317Y22324D1*
X19136Y20980D2*
D14*
Y19875D1*
D13*
X18463D1*
Y19655D1*
X19186Y19517D2*
X18602D1*
X18463Y19655D1*
X21938Y21000D2*
Y21618D1*
D14*
X21856Y21700D1*
X22204Y8976D2*
D13*
Y7800D1*
X22084Y7680D1*
X2783Y20482D2*
X3506D1*
X3672Y20648D1*
X16507Y11759D2*
X17830D1*
X18082Y12012D1*
X19911Y12868D2*
X18939D1*
X18082Y12012D1*
X1459Y18487D2*
X3109D1*
X4009Y17587D1*
X1459Y10487D2*
X3109D1*
X4009Y11387D1*
X17916Y24200D2*
D15*
X18636D1*
X19886Y22950D1*
X21856Y24200D2*
X21136D1*
X19886Y22950D1*
X19636Y20980D2*
D14*
Y21820D1*
D13*
Y22700D1*
X19886Y22950D1*
X20636Y20980D2*
D14*
Y21820D1*
D13*
Y22200D1*
X19886Y22950D1*
X18463Y17955D2*
X20290D1*
X33779Y20406D2*
Y17866D1*
X20688Y23750D2*
X19636D1*
Y22700D1*
X19911Y14468D2*
X19168D1*
X18511Y15125D1*
X16125D1*
X18514Y8341D2*
Y7236D1*
X19125Y6625D1*
X20000D1*
X20375Y7000D1*
Y9500D1*
X21250Y10375D1*
X20312Y9500D2*
X20375D1*
X1459Y15687D2*
X2059D1*
X3059Y16687D1*
X1459Y13287D2*
X2059D1*
X3059Y12287D1*
X20290Y17955D2*
Y17210D1*
X21438Y16062D1*
Y15625D1*
X21500Y15562D1*
X14689Y24096D2*
Y22946D1*
X13020D1*
X11369Y21295D1*
X9768D1*
X8920Y20446D1*
Y20145D1*
X8798Y18755D2*
Y20022D1*
X8920Y20145D1*
X8800Y17375D2*
X8798Y18755D1*
X3672Y22348D2*
X3825D1*
Y23225D1*
X3571Y23479D1*
X3103D1*
Y23802D1*
X5110Y20145D2*
X5374D1*
Y21549D1*
X4968Y21955D1*
X3672D1*
Y22348D1*
Y22000D1*
X2325D1*
X2000Y21675D1*
X27004Y8976D2*
Y8371D1*
X27125Y8250D1*
X23670Y5502D2*
Y5670D1*
X26125Y8125D1*
Y8897D1*
X26204Y8976D1*
X21136Y20980D2*
D14*
Y20640D1*
D13*
Y17829D1*
X21404Y17561D1*
X17564Y8341D2*
X17701D1*
Y9890D1*
X18971Y11160D1*
X19803D1*
X19911Y11268D1*
X20636Y24920D2*
D14*
Y25511D1*
D13*
X21417Y26292D1*
Y26341D1*
X30020Y16496D2*
X29817D1*
Y18009D1*
X29975D1*
X19464Y8341D2*
Y10468D1*
X19911D1*
X28496Y12868D2*
X30007D1*
X30477Y12398D1*
Y12532D1*
X28539Y19697D2*
X29975D1*
Y19710D1*
X23004Y8976D2*
Y7712D1*
X23035Y7680D1*
X23804Y8976D2*
Y7863D1*
X23987Y7680D1*
X5003Y23802D2*
D16*
X6219D1*
X6289Y23732D1*
X6060Y23503D1*
Y22445D1*
X7905Y25186D2*
X7742D1*
X6289Y23732D1*
X9870Y22445D2*
Y24096D1*
X12789D1*
X9905Y25186D2*
X9870Y25151D1*
Y24096D1*
X20136Y20980D2*
D14*
Y20427D1*
D13*
Y19655D1*
X20290D1*
X28496Y15268D2*
X29482D1*
X29954Y14796D1*
X30020D1*
X28539Y17997D2*
X28090D1*
Y17764D1*
X28268Y17586D1*
Y16189D1*
X28375D1*
X28496Y16068D1*
X21404Y8976D2*
Y7952D1*
X21132Y7680D1*
X7338Y17815D2*
Y18514D1*
X7098Y18755D1*
X23804Y17561D2*
Y18812D1*
X23848Y18856D1*
Y19552D1*
X23400Y20000D1*
X23004Y17561D2*
Y18749D1*
X22897Y18856D1*
X4134Y15137D2*
X6769D1*
X6779Y15148D1*
X23670Y2962D2*
Y3045D1*
X23625Y3000D1*
Y2625D1*
X24562Y1688D1*
X27562D1*
X28750Y2875D1*
Y10500D1*
X28528D1*
X28496Y10468D1*
X19438Y26338D2*
D14*
X19136D1*
Y24920D1*
X24604Y17561D2*
D13*
Y18723D1*
X24799Y18919D1*
X20312Y26250D2*
X19525D1*
X19438Y26338D1*
X25404Y17561D2*
Y18509D1*
X25751Y18856D1*
X18636Y24920D2*
X18455D1*
X18312Y25062D1*
X18250D1*
X18062Y25250D1*
D14*
Y26338D1*
X18000D1*
X22204Y17561D2*
D13*
Y18598D1*
X21945Y18856D1*
X4134Y14487D2*
X6426D1*
X6779Y14134D1*
X16507Y13659D2*
Y13598D1*
X17969D1*
X18082Y13712D1*
X18197D1*
X18336Y13573D1*
X19816D1*
X19911Y13668D1*
X5123Y6572D2*
D17*
X5239D1*
X6220Y7553D1*
X7462D1*
X11859D1*
X12289Y7983D1*
Y8025D1*
D18*
Y8849D1*
X14171D1*
X14750Y9428D1*
Y10608D1*
Y13086D1*
D16*
X15237Y13573D1*
X16507D1*
Y13659D1*
X13739Y21796D2*
D17*
Y21625D1*
X15625D1*
X15750Y21500D1*
X14750D1*
D19*
Y13659D1*
D20*
X16507D1*
X19911Y13668D2*
D21*
X20957D1*
X22551Y12074D1*
X19917D1*
X19911Y12068D1*
X28496Y11268D2*
Y11250D1*
X23500D1*
X22676Y12074D1*
X22551D1*
X21130Y5502D2*
D22*
X18375D1*
Y5500D1*
X28496Y11268D2*
D13*
X29232D1*
X29500Y11000D1*
Y9875D1*
X29875Y9500D1*
X33034D1*
X33779Y10246D1*
X14750Y10125D2*
Y10608D1*
X4134Y15787D2*
Y15750D1*
X5250D1*
Y16000D1*
X8000Y7450D2*
X7566D1*
X7462Y7553D1*
X4053Y26102D2*
D23*
Y26303D1*
X4500Y26750D1*
X14875D1*
X15750Y25875D1*
Y21500D1*
X18000Y28037D2*
D13*
Y28250D1*
X15625Y25875D1*
X15750D1*
X18000Y28037D2*
X19438D1*
X20225Y27250D1*
X26097D1*
X28725Y24622D1*
Y23187D1*
X28869D1*
D22*
X29750Y4500D3*
X14750Y10125D3*
D56*
X19186Y19517D3*
D22*
X16125Y15125D3*
X29750Y8500D3*
D56*
X27125Y8250D3*
D57*
X18375Y5500D3*
D22*
X16125Y8625D3*
X13375Y20375D3*
D56*
X25751Y18856D3*
X24799Y18919D3*
X22897Y18856D3*
X21945D3*
X21938Y21000D3*
X23848Y18856D3*
X23035Y7680D3*
X22084D3*
X21132D3*
X23987D3*
X2783Y20482D3*
X7338Y17815D3*
X6779Y15148D3*
Y14134D3*
X20312Y26250D3*
X18062Y25250D3*
D22*
X16125Y20375D3*
X23438Y14375D3*
X23188Y25188D3*
X31750Y16500D3*
X20688Y23750D3*
X26750Y14375D3*
X6250Y11062D3*
X13375Y15125D3*
X6250Y12875D3*
X13375Y10250D3*
D57*
X1625Y28688D3*
D22*
X16125Y10250D3*
X31750Y11625D3*
Y13875D3*
X7125Y21500D3*
X29750Y6500D3*
X8375Y22375D3*
X10375Y18750D3*
X5250Y16000D3*
X26750Y25375D3*
X27938Y21938D3*
D57*
X37625Y28688D3*
Y1500D3*
X1625D3*
D22*
X23000Y10500D3*
X20312Y9500D3*
X29750Y2500D3*
X18375Y3625D3*
X14750Y3125D3*
X9750D3*
X18375Y1875D3*
X16125Y18875D3*
Y17500D3*
X13375Y18875D3*
Y17500D3*
Y11875D3*
X5750Y17375D3*
X13375Y13500D3*
X16500Y28938D3*
X20750D3*
X11250D3*
X25250D3*
X25125Y21125D3*
X19000Y22062D3*
X6250Y9188D3*
X21500Y15562D3*
X1027Y28719D2*
D16*
X16894D1*
X20543D2*
X38335D1*
X1027Y28087D2*
X16775D1*
X20543D2*
X38335D1*
X1027Y27455D2*
X3668D1*
X15701D2*
X16140D1*
X26952D2*
X38325D1*
X1017Y26824D2*
X3092D1*
X27587D2*
X38325D1*
X1017Y26192D2*
X2953D1*
X24273D2*
X26091D1*
X28212D2*
X38325D1*
X1017Y25560D2*
X3102D1*
X5005D2*
X6644D1*
X11167D2*
X14532D1*
X24273D2*
X26726D1*
X28847D2*
X38325D1*
X1017Y24929D2*
X6208D1*
X16852D2*
X17144D1*
X21892D2*
X22213D1*
X29423D2*
X38315D1*
X27577Y24297D2*
X27956D1*
X29492D2*
X38315D1*
X7496Y23665D2*
X8946D1*
X27577D2*
X27956D1*
X29770D2*
X38315D1*
X6990Y23034D2*
X8936D1*
X10800D2*
X11863D1*
X26555D2*
X27966D1*
X29770D2*
X38315D1*
X6990Y22402D2*
X8936D1*
X10800D2*
X11417D1*
X27577D2*
X27966D1*
X29770D2*
X38305D1*
X6990Y21770D2*
X8936D1*
X27577D2*
X32024D1*
X35535D2*
X38305D1*
X12278Y21139D2*
X12806D1*
X23182D2*
X32024D1*
X35535D2*
X38305D1*
X997Y20507D2*
X1802D1*
X11752D2*
X13600D1*
X16128D2*
X17360D1*
X26258D2*
X27431D1*
X35535D2*
X38305D1*
X11752Y19875D2*
X13600D1*
X15899D2*
X17360D1*
X26258D2*
X27431D1*
X35535D2*
X38295D1*
X3011Y19244D2*
X4184D1*
X11752D2*
X13600D1*
X15899D2*
X17360D1*
X26645D2*
X27431D1*
X35535D2*
X38295D1*
X5412Y18612D2*
X5940D1*
X9956D2*
X13600D1*
X15899D2*
X17360D1*
X35346D2*
X38295D1*
X5412Y17980D2*
X5940D1*
X11653D2*
X13600D1*
X15899D2*
X17360D1*
X35525D2*
X38285D1*
X5412Y17349D2*
X6486D1*
X11653D2*
X13600D1*
X15899D2*
X17360D1*
X35445D2*
X38285D1*
X6007Y16717D2*
X7646D1*
X11653D2*
X13600D1*
X15899D2*
X18670D1*
X31120D2*
X32511D1*
X35039D2*
X38285D1*
X6305Y16085D2*
X13600D1*
X15899D2*
X18670D1*
X21148D2*
X27262D1*
X31120D2*
X32223D1*
X35336D2*
X38285D1*
X7704Y15454D2*
X13600D1*
X15899D2*
X18670D1*
X21148D2*
X27262D1*
X31120D2*
X32034D1*
X35525D2*
X38275D1*
X7694Y14822D2*
X13600D1*
X17864D2*
X18670D1*
X21148D2*
X27262D1*
X31120D2*
X32104D1*
X35455D2*
X38275D1*
X7754Y14190D2*
X13600D1*
X21614D2*
X27262D1*
X31120D2*
X32501D1*
X35059D2*
X38275D1*
X5412Y13559D2*
X5999D1*
X7555D2*
X13600D1*
X22249D2*
X27262D1*
X31586D2*
X32223D1*
X35336D2*
X38275D1*
X5412Y12927D2*
X13570D1*
X22884D2*
X27262D1*
X31586D2*
X32034D1*
X35525D2*
X38265D1*
X5412Y12295D2*
X13570D1*
X23638D2*
X27262D1*
X31586D2*
X32104D1*
X35455D2*
X38265D1*
X5412Y11664D2*
X13570D1*
X31586D2*
X32491D1*
X35068D2*
X38265D1*
X5412Y11032D2*
X13570D1*
X21148D2*
X22539D1*
X31586D2*
X32233D1*
X35326D2*
X38265D1*
X5412Y10400D2*
X13570D1*
X15929D2*
X17152D1*
X21148D2*
X27262D1*
X31586D2*
X32034D1*
X35525D2*
X38255D1*
X3011Y9769D2*
X10980D1*
X15929D2*
X16933D1*
X35465D2*
X38255D1*
X3011Y9137D2*
X10980D1*
X15889D2*
X16655D1*
X35088D2*
X38255D1*
X947Y8505D2*
X6892D1*
X9103D2*
X10980D1*
X15463D2*
X16655D1*
X29522D2*
X38255D1*
X937Y7874D2*
X5176D1*
X14768D2*
X16655D1*
X29522D2*
X38245D1*
X937Y7242D2*
X4005D1*
X13598D2*
X16655D1*
X26307D2*
X27976D1*
X29522D2*
X38245D1*
X937Y6610D2*
X3807D1*
X6642D2*
X6893D1*
X9103D2*
X10980D1*
X13598D2*
X17658D1*
X19094D2*
X20148D1*
X27190D2*
X27976D1*
X29522D2*
X38245D1*
X937Y5979D2*
X3955D1*
X6285D2*
X6892D1*
X9103D2*
X17112D1*
X27637D2*
X27973D1*
X29522D2*
X38236D1*
X927Y5347D2*
X4075D1*
X6166D2*
X6892D1*
X9103D2*
X17032D1*
X27706D2*
X27987D1*
X29522D2*
X38236D1*
X927Y4715D2*
X3817D1*
X6434D2*
X6892D1*
X9103D2*
X10980D1*
X13598D2*
X17290D1*
X27478D2*
X27976D1*
X29522D2*
X38236D1*
X927Y4084D2*
X3906D1*
X6335D2*
X10980D1*
X13598D2*
X19622D1*
X24641D2*
X25238D1*
X27181D2*
X27976D1*
X29522D2*
X38236D1*
X927Y3452D2*
X4501D1*
X5749D2*
X10980D1*
X13598D2*
X19622D1*
X27627D2*
X27989D1*
X29522D2*
X38226D1*
X917Y2820D2*
X10980D1*
X13598D2*
X19622D1*
X29512D2*
X38226D1*
X917Y2189D2*
X10980D1*
X13598D2*
X19622D1*
X29125D2*
X38226D1*
X917Y1557D2*
X10980D1*
X13598D2*
X19622D1*
X22636D2*
X23283D1*
X28490D2*
X38226D1*
X917Y925D2*
X38216D1*
X24209Y25544D2*
X26495D1*
Y24931D1*
X27418D1*
X25805Y26543D1*
X24202Y26544D1*
X24208Y25668D1*
Y25543D1*
X23913Y25257D1*
Y25299D1*
X21824Y25300D1*
X21827Y24884D1*
X22223Y24891D1*
X22276Y24902D1*
Y25115D1*
X23913Y25130D1*
Y25257D1*
X26495Y23351D2*
Y23039D1*
X27510Y23031D1*
Y21449D1*
X26488D1*
X26495Y21262D1*
X24362D1*
X24358Y21233D1*
X23217D1*
X23100Y21143D1*
X23261Y21041D1*
X24491Y21031D1*
X24707Y21041D1*
X26191D1*
Y19658D1*
X26429Y19472D1*
X26598Y19205D1*
X26667Y18856D1*
X26645Y18730D1*
X27503Y18737D1*
X27508Y19088D1*
X27498Y20511D1*
Y20788D1*
X29580D1*
Y20758D1*
X31066Y20751D1*
X32090D1*
X32088Y21997D1*
X35470D1*
Y18815D1*
X35155D1*
X35308Y18566D1*
X35418Y18269D1*
X35468Y17956D1*
X35450Y17613D1*
X35369Y17306D1*
X35228Y17022D1*
X35034Y16771D1*
X34838Y16596D1*
X35101Y16345D1*
X35279Y16083D1*
X35401Y15790D1*
X35470Y15326D1*
X35439Y15010D1*
X35345Y14707D1*
X35194Y14429D1*
X34990Y14186D1*
X34827Y14057D1*
X35101Y13805D1*
X35279Y13543D1*
X35401Y13250D1*
X35470Y12786D1*
X35439Y12470D1*
X35345Y12167D1*
X35194Y11889D1*
X34990Y11646D1*
X34827Y11517D1*
X35101Y11265D1*
X35279Y11003D1*
X35401Y10710D1*
X35470Y10246D1*
X35439Y9930D1*
X35345Y9627D1*
X35194Y9349D1*
X34990Y9106D1*
X34742Y8909D1*
X34460Y8764D1*
X34155Y8679D1*
X33679Y8655D1*
X33324Y8695D1*
X33033Y8793D1*
X29875Y8794D1*
X29560Y8870D1*
X29456Y8912D1*
Y2875D1*
X29380Y2560D1*
X29415Y2638D1*
X29249Y2376D1*
X28062Y1188D1*
X27785Y1020D1*
X27865Y1050D1*
X27562Y981D1*
X24562D1*
X24248Y1058D1*
X24326Y1022D1*
X24063Y1188D1*
X23711Y1521D1*
X23395Y1547D1*
X23093Y1641D1*
X22818Y1800D1*
X22568Y2038D1*
X22571Y1521D1*
X19689D1*
Y4403D1*
X20195D1*
X19860Y4504D1*
X19195D1*
X19090Y4425D1*
X18807Y4283D1*
X18498Y4215D1*
X18181Y4224D1*
X17876Y4309D1*
X17601Y4466D1*
X17373Y4686D1*
X17205Y4954D1*
X17107Y5256D1*
X17086Y5572D1*
X17142Y5883D1*
X17273Y6172D1*
X17469Y6420D1*
X17721Y6613D1*
X18011Y6739D1*
X18324Y6790D1*
X18639Y6764D1*
X18939Y6661D1*
X19196Y6494D1*
X20091Y6500D1*
X20407Y6748D1*
X20686Y6880D1*
X20441Y7079D1*
X20303Y7308D1*
X20305Y7150D1*
X18623Y7160D1*
X18493Y7150D1*
X16723D1*
Y9532D1*
X16991D1*
X16995Y9890D1*
X17072Y10205D1*
X17036Y10127D1*
X17202Y10389D1*
X17377Y10565D1*
X15864Y10568D1*
X15863Y9428D1*
X15818Y9115D1*
X15680Y8819D1*
X15537Y8641D1*
X14957Y8062D1*
X14704Y7872D1*
X14398Y7761D1*
X14171Y7736D1*
X13526D1*
X13530Y6059D1*
X11048D1*
Y6624D1*
X9031Y6631D1*
X9041Y6270D1*
Y4659D1*
X6959D1*
Y6633D1*
X6599Y6631D1*
X6360Y6389D1*
X6336Y6258D1*
X6218Y5964D1*
X6030Y5709D1*
X5869Y5578D1*
X6077Y5384D1*
X6221Y5175D1*
X6320Y4941D1*
X6370Y4693D1*
X6361Y4382D1*
X6298Y4137D1*
X6186Y3909D1*
X6030Y3709D1*
X5838Y3544D1*
X5616Y3421D1*
X5374Y3345D1*
X5122Y3320D1*
X4870Y3346D1*
X4628Y3422D1*
X4406Y3545D1*
X4214Y3711D1*
X4059Y3912D1*
X3948Y4140D1*
X3885Y4385D1*
X3873Y4639D1*
X3912Y4889D1*
X4001Y5127D1*
X4135Y5341D1*
X4311Y5525D1*
X4371Y5573D1*
X4094Y5859D1*
X3948Y6140D1*
X3877Y6448D1*
X3886Y6765D1*
X3974Y7069D1*
X4135Y7341D1*
X4360Y7565D1*
X4633Y7724D1*
X4938Y7810D1*
X5185Y7816D1*
X5568Y8205D1*
X5827Y8387D1*
X6181Y8474D1*
X6965Y8475D1*
X6959Y8541D1*
X9041D1*
X9050Y8475D1*
X11044D1*
X11048Y9991D1*
X13530D1*
Y9961D1*
X13628D1*
X13637Y10926D1*
Y13086D1*
X13687Y13408D1*
X13659Y13977D1*
Y20714D1*
X12873Y20730D1*
X12859Y21349D1*
X12817Y21625D1*
Y21744D1*
X11686Y20639D1*
Y19079D1*
X9954D1*
Y20482D1*
X9784Y20311D1*
X9786Y19792D1*
X9889Y19796D1*
X9891Y18406D1*
X10107Y18416D1*
X11591D1*
Y16334D1*
X7709D1*
Y16979D1*
X7506Y16914D1*
X7190Y16911D1*
X6892Y17015D1*
X6647Y17214D1*
X6484Y17485D1*
X6439Y17707D1*
X6007Y17714D1*
Y19796D1*
X6136D1*
X6144Y20222D1*
Y21211D1*
X7876D1*
Y19796D1*
X8054D1*
Y21211D1*
X8679D1*
X9003Y21528D1*
X9011Y24032D1*
Y24304D1*
X8812Y24322D1*
X8566Y24122D1*
X8279Y23990D1*
X7967Y23935D1*
X7720Y23954D1*
X6926Y23155D1*
Y21379D1*
X6083D1*
X6080Y20145D1*
X6015Y19849D1*
X5976Y19623D1*
Y19079D1*
X5351D1*
X5350Y16994D1*
X5617Y16928D1*
X5889Y16767D1*
X6097Y16529D1*
X6220Y16237D1*
X6248Y16000D1*
X6228Y15873D1*
X6298Y15927D1*
X6591Y16044D1*
X6907Y16055D1*
X7208Y15957D1*
X7457Y15764D1*
X7626Y15497D1*
X7695Y15148D1*
X7641Y14837D1*
X7538Y14657D1*
X7626Y14483D1*
X7695Y14134D1*
X7641Y13823D1*
X7484Y13548D1*
X7243Y13344D1*
X6947Y13233D1*
X6631Y13230D1*
X6333Y13334D1*
X6088Y13533D1*
X5940Y13778D1*
X5344Y13781D1*
X5340Y13746D1*
X5350Y13611D1*
Y9796D1*
X2951D1*
X2950Y9046D1*
X884D1*
X850Y804D1*
X4779Y798D1*
X38282Y799D1*
X38400Y29231D1*
X968Y29349D1*
X929Y19933D1*
X2054Y19928D1*
X1929Y20152D1*
X1868Y20462D1*
X1887Y20588D1*
X959Y20584D1*
X969Y22766D1*
X959Y22982D1*
Y24466D1*
X2239D1*
X2237Y24868D1*
X3969D1*
Y24065D1*
X4139Y23909D1*
X4137Y24868D1*
X5869D1*
Y24660D1*
X5997Y24661D1*
X6657Y25315D1*
X6771Y25708D1*
X5023Y25709D1*
X4920Y25530D1*
X4919Y25036D1*
X3187D1*
X3174Y25545D1*
X3061Y25788D1*
X3012Y26102D1*
X3021Y26437D1*
X3089Y26696D1*
X3187Y26941D1*
Y27168D1*
X3455D1*
X3764Y27486D1*
X4019Y27673D1*
X4405Y27787D1*
X14343Y27791D1*
X14875D1*
X15188Y27743D1*
X15541Y27550D1*
X15927Y27170D1*
X16959Y28216D1*
Y29129D1*
X19041Y29119D1*
X19666Y29129D1*
X20479D1*
Y27988D1*
X20543Y27956D1*
X26097D1*
X26411Y27880D1*
X26334Y27915D1*
X26596Y27749D1*
X29224Y25121D1*
X29392Y24845D1*
X29363Y24925D1*
X29431Y24622D1*
Y23977D1*
X29710Y23978D1*
Y22396D1*
X28028D1*
X28019Y24328D1*
X27510Y24838D1*
Y23349D1*
X26496D1*
X11111Y5187D2*
X13530D1*
Y1255D1*
X11048D1*
Y5187D1*
X11111D1*
X17805Y14803D2*
X18738D1*
X18735Y16864D1*
X17422D1*
Y20746D1*
X17948D1*
X17945Y21016D1*
X16950Y21009D1*
X16960Y22391D1*
X16950Y22644D1*
X16960Y23391D1*
X16950Y23644D1*
X16960Y24391D1*
X16950Y24525D1*
Y24891D1*
X17222D1*
X17148Y25239D1*
X16959Y25246D1*
Y26209D1*
X16780Y26032D1*
X16791Y25240D1*
Y21500D1*
X16743Y21187D1*
X16603Y20904D1*
X16385Y20675D1*
X16108Y20522D1*
X15846Y20470D1*
X15841Y14842D1*
X16804Y14850D1*
X17798D1*
Y14801D1*
X31517Y11923D2*
X31518Y10207D1*
X32088Y10206D1*
X32138Y10641D1*
X32247Y10938D1*
X32413Y11208D1*
X32629Y11440D1*
X32734Y11515D1*
X32512Y11705D1*
X32321Y11958D1*
X32184Y12243D1*
X32106Y12551D1*
X32090Y12867D1*
X32138Y13181D1*
X32247Y13478D1*
X32413Y13748D1*
X32629Y13980D1*
X32734Y14055D1*
X32512Y14245D1*
X32321Y14498D1*
X32184Y14783D1*
X32106Y15091D1*
X32090Y15407D1*
X32138Y15721D1*
X32247Y16018D1*
X32413Y16288D1*
X32629Y16520D1*
X32734Y16595D1*
X32556Y16739D1*
X32365Y16969D1*
X31056Y16968D1*
X31061Y15405D1*
Y13705D1*
X29672Y13701D1*
X29662Y13648D1*
X29672Y13621D1*
X31518Y13623D1*
X31508Y11441D1*
X24339Y4228D2*
X24455Y4171D1*
X24700Y3970D1*
X24934Y3640D1*
X25232Y4020D1*
X25532Y4228D1*
X25259Y4419D1*
X25046Y4653D1*
X24939Y4823D1*
X24808Y4617D1*
X24587Y4390D1*
X24347Y4233D1*
X26879Y4228D2*
X26995Y4171D1*
X27240Y3970D1*
X27435Y3721D1*
X27571Y3435D1*
X27642Y3126D1*
X27628Y2755D1*
X28038Y3162D1*
X28044Y6685D1*
Y9652D1*
X27824Y9517D1*
Y8832D1*
X27972Y8599D1*
X28041Y8250D1*
X27987Y7939D1*
X27830Y7665D1*
X27589Y7460D1*
X27293Y7350D1*
X26977Y7346D1*
X26679Y7450D1*
X26548Y7556D1*
X25916Y6917D1*
X26278Y6941D1*
X26590Y6892D1*
X26885Y6775D1*
X27147Y6597D1*
X27364Y6366D1*
X27525Y6093D1*
X27622Y5791D1*
X27651Y5502D1*
X27616Y5187D1*
X27514Y4887D1*
X27348Y4617D1*
X27127Y4390D1*
X26891Y4232D1*
X11041Y25704D2*
X11133Y25432D1*
X11157Y25186D1*
X11140Y24954D1*
X11924D1*
X11923Y25162D1*
X13655D1*
Y23652D1*
X13823Y23665D1*
Y25162D1*
X14706D1*
X14709Y25439D1*
X14446Y25707D1*
X11035Y25709D1*
X21087Y11283D2*
X21077Y11248D1*
X21087Y10448D1*
Y10148D1*
X22224Y10142D1*
X22501Y10152D1*
X23824Y10142D1*
X24101Y10152D1*
X25424Y10142D1*
X25701Y10152D1*
X27024Y10142D1*
X27324Y10152D1*
X27320Y10458D1*
X23500Y10459D1*
X23191Y10522D1*
X22941Y10691D1*
X22344Y11287D1*
X21092Y11283D1*
X21087Y10336D1*
X21383Y10152D1*
X23024Y10142D1*
X23301Y10152D1*
X24624Y10142D1*
X24901Y10152D1*
X26224Y10142D1*
X26501Y10152D1*
X27136D1*
X27320Y12040D2*
X27330Y12089D1*
X27320Y12889D1*
X27324Y13648D1*
X27320Y15289D1*
Y16200D1*
X27024Y16385D1*
X25383Y16395D1*
X25107Y16385D1*
X23783Y16395D1*
X23507Y16385D1*
X22183Y16395D1*
X21907Y16385D1*
X21087Y16383D1*
X21077Y15248D1*
X21087Y15035D1*
Y14449D1*
X21266Y14396D1*
X21516Y14228D1*
X22921Y12826D1*
X23143Y12713D1*
X23831Y12037D1*
X27320Y12048D1*
X27330Y13689D1*
X27320Y13737D1*
X27330Y16089D1*
X27320Y16389D1*
X26183Y16395D1*
X25907Y16385D1*
X24583Y16395D1*
X24307Y16385D1*
X22983Y16395D1*
X22707Y16385D1*
X21383Y16395D1*
X21083Y16385D1*
X21087Y14501D1*
X4244Y19188D2*
Y19565D1*
X2957Y19557D1*
X2950Y19230D1*
Y19176D1*
X4246Y19178D1*
X10736Y23243D2*
Y21993D1*
X11068Y22001D1*
X12111Y23036D1*
X11923Y23030D1*
Y23238D1*
X10735Y23237D1*
X25204Y25543D2*
D24*
Y24353D1*
X12289Y5186D2*
Y1256D1*
X11049Y3221D2*
X13529D1*
X30477Y10832D2*
X31517D1*
X16507Y11759D2*
Y10570D1*
X18463Y17955D2*
Y16866D1*
X17423Y17955D2*
X18463D1*
X23317Y25114D2*
Y24024D1*
X23117Y26341D2*
Y25302D1*
Y26341D2*
X24207D1*
X31675Y18009D2*
Y16969D1*
Y20750D2*
Y19710D1*
X26210Y5502D2*
D21*
X27228Y4484D1*
Y6520D2*
X25192Y4484D1*
X5123Y4572D2*
D24*
Y3321D1*
X3872Y4572D2*
X6374D1*
X19911Y14468D2*
X21086D1*
X27321Y13668D2*
X29671D1*
X16951Y24200D2*
X17916D1*
X21856Y24889D2*
Y24200D1*
X7010Y21209D2*
Y20145D1*
X6145D2*
X7875D1*
X10820D2*
Y19080D1*
X9955Y20145D2*
X11685D1*
X8000Y5750D2*
Y4660D1*
X6960Y5750D2*
X9040D1*
X10500Y18415D2*
Y16335D1*
Y17375D2*
X11590D1*
X2000Y24465D2*
Y23375D1*
X960D2*
X2000D1*
X25100Y21040D2*
Y20000D1*
X26190D1*
X32089Y21996D2*
D13*
X35470Y18815D1*
Y21996D2*
X33779Y20406D1*
Y17866D2*
D24*
X35469D1*
X4134Y13187D2*
D21*
X5349D1*
X4009Y19177D2*
Y17587D1*
X5349D1*
X4009Y11387D2*
Y9798D1*
Y11387D2*
X5349D1*
X1459Y19927D2*
Y18487D1*
Y10487D2*
Y9048D1*
X26669Y24930D2*
D24*
Y23350D1*
Y24140D2*
X27509D1*
X18514Y8341D2*
Y7151D1*
D25*
X25204Y24353D3*
Y22453D3*
D26*
X12289Y8025D3*
Y3221D3*
D27*
X18082Y12012D3*
Y13712D3*
X30477Y10832D3*
Y12532D3*
D25*
X16507Y11759D3*
Y13659D3*
D27*
X18463Y17955D3*
Y19655D3*
X20290Y17955D3*
Y19655D3*
X23317Y22324D3*
Y24024D3*
D28*
X21417Y26341D3*
X23117D3*
X31675Y18009D3*
X29975D3*
X31675Y19710D3*
X29975D3*
D30*
X21130Y2962D3*
D31*
X23670D3*
X26210D3*
Y5502D3*
X23670D3*
X21130D3*
D33*
X5123Y6572D3*
Y4572D3*
X9905Y25186D3*
X7905D3*
D35*
X19911Y16068D3*
Y15268D3*
Y14468D3*
Y13668D3*
Y12868D3*
Y12068D3*
Y11268D3*
Y10468D3*
D36*
X21404Y8976D3*
X22204D3*
X23004D3*
X23804D3*
X24604D3*
X25404D3*
X26204D3*
X27004D3*
D35*
X28496Y10468D3*
Y11268D3*
Y12068D3*
Y12868D3*
Y13668D3*
Y14468D3*
Y15268D3*
Y16068D3*
D36*
X27004Y17561D3*
X26204D3*
X25404D3*
X24604D3*
X23804D3*
X23004D3*
X22204D3*
X21404D3*
D38*
X17916Y24200D3*
Y23700D3*
Y23200D3*
Y22700D3*
Y22200D3*
Y21700D3*
D39*
X18636Y20980D3*
X19136D3*
X19636D3*
X20136D3*
X20636D3*
X21136D3*
D38*
X21856Y21700D3*
Y22200D3*
Y22700D3*
Y23200D3*
Y23700D3*
Y24200D3*
D39*
X21136Y24920D3*
X20636D3*
X20136D3*
X19636D3*
X19136D3*
X18636D3*
D40*
X19886Y22950D3*
D42*
X5110Y20145D3*
X7010D3*
X6060Y22445D3*
X3103Y23802D3*
X5003D3*
X4053Y26102D3*
X8920Y20145D3*
X10820D3*
X9870Y22445D3*
X14689Y24096D3*
X12789D3*
X13739Y21796D3*
D27*
X18000Y28037D3*
Y26338D3*
X19438Y28037D3*
Y26338D3*
X8000Y5750D3*
Y7450D3*
X3672Y20648D3*
Y22348D3*
D28*
X7098Y18755D3*
X8798D3*
X10500Y17375D3*
X8800D3*
D27*
X2000Y23375D3*
Y21675D3*
X30020Y16496D3*
Y14796D3*
X28539Y19697D3*
Y17997D3*
D28*
X25100Y20000D3*
X23400D3*
D43*
X33779Y20406D3*
D44*
Y17866D3*
Y15326D3*
Y12786D3*
Y10246D3*
D46*
X4134Y15787D3*
Y15137D3*
Y14487D3*
Y13837D3*
Y13187D3*
D47*
X4009Y17587D3*
Y11387D3*
D48*
X1459Y18487D3*
Y10487D3*
D49*
Y15687D3*
Y13287D3*
D50*
X3059Y16687D3*
Y12287D3*
D52*
X26669Y24140D3*
Y22240D3*
X28869Y23187D3*
D53*
X17564Y8341D3*
D54*
X18514D3*
D53*
X19464D3*
M02*
