G04 DipTrace 2.4.0.2*
%INTop.gbr*%
%MOIN*%
%ADD13C,0.013*%
%ADD14C,0.0118*%
%ADD15C,0.0071*%
%ADD16C,0.01*%
%ADD17C,0.025*%
%ADD18C,0.008*%
%ADD19C,0.009*%
%ADD20C,0.03*%
%ADD21C,0.035*%
%ADD22C,0.045*%
%ADD23C,0.02*%
%ADD24C,0.011*%
%ADD25C,0.012*%
%ADD26C,0.015*%
%ADD27C,0.036*%
%ADD28R,0.0394X0.0433*%
%ADD29R,0.0591X0.0512*%
%ADD30R,0.0433X0.0394*%
%ADD32R,0.0591X0.0591*%
%ADD33C,0.0591*%
%ADD35C,0.056*%
%ADD37R,0.05X0.022*%
%ADD38R,0.022X0.05*%
%ADD40R,0.0335X0.0118*%
%ADD41R,0.0118X0.0335*%
%ADD42R,0.0965X0.0965*%
%ADD44R,0.0256X0.0413*%
%ADD45R,0.0906X0.0827*%
%ADD46O,0.0906X0.0827*%
%ADD48O,0.0492X0.0413*%
%ADD49R,0.0748X0.0787*%
%ADD50R,0.0531X0.0157*%
%ADD51R,0.0748X0.0709*%
%ADD53R,0.0236X0.0197*%
%ADD55O,0.0071X0.0295*%
%ADD57R,0.063X0.0315*%
%ADD59R,0.0236X0.0512*%
%ADD60R,0.0157X0.0512*%
%ADD61R,0.0551X0.1122*%
%ADD62C,0.028*%
%FSLAX44Y44*%
G04*
G70*
G90*
G75*
G01*
%LNTop*%
%LPD*%
X9737Y8436D2*
D13*
X9170D1*
X9160Y8446D1*
X8591D1*
X8540Y8395D1*
X7916Y8248D2*
D14*
X8147D1*
D13*
X8393D1*
X8540Y8395D1*
X6845Y7964D2*
D14*
Y7675D1*
D13*
X6610Y7440D1*
Y7345D1*
X6580D1*
X8540Y8395D2*
Y7880D1*
X8180Y7520D1*
X7910D1*
X6840Y7290D2*
X6635D1*
X6580Y7345D1*
X7738Y3140D2*
Y2688D1*
X7680Y2630D1*
X2200Y6620D2*
Y6895D1*
X2105Y6990D1*
X5810Y4236D2*
X6331D1*
X6430Y4335D1*
X7150Y4673D2*
X6767D1*
X6430Y4335D1*
X3875Y5417D2*
D15*
Y5630D1*
D13*
Y5669D1*
Y5695D1*
X3720Y5850D1*
X4300Y5655D2*
X3888D1*
X3875Y5669D1*
X3400Y5850D2*
X3025D1*
X2710Y6165D1*
X323Y6698D2*
X1071D1*
X1504Y6265D1*
X323Y3922D2*
X1072D1*
X1505Y4355D1*
X6365Y9232D2*
D16*
Y9220D1*
X6660D1*
X7140Y8740D1*
X7916Y9232D2*
Y9220D1*
X7670D1*
X7190Y8740D1*
X7140D1*
X7042Y7964D2*
D14*
Y8197D1*
D13*
Y8560D1*
Y8642D1*
X7140Y8740D1*
X7435Y7964D2*
D14*
Y8197D1*
D13*
Y8445D1*
X7140Y8740D1*
X6580Y6675D2*
X7250D1*
X12610Y7640D2*
Y6640D1*
X10530Y4987D2*
X10767D1*
X11060Y5280D1*
X11380D1*
X11620Y5520D1*
Y7055D1*
X11585Y7090D1*
X7150Y8560D2*
X7042D1*
X7150Y5302D2*
X6858D1*
X6390Y5770D1*
X6060D1*
X1504Y6265D2*
D17*
X2610D1*
X2710Y6165D1*
X5094Y9093D2*
D13*
Y8640D1*
X4240D1*
X3590Y7990D1*
X2960D1*
X2626Y7656D1*
Y7537D1*
X2775Y6990D2*
Y7389D1*
X2626Y7537D1*
X560Y8405D2*
X620D1*
Y8750D1*
X520Y8850D1*
X336D1*
Y8977D1*
X1126Y7537D2*
X1230D1*
Y8090D1*
X1070Y8250D1*
X560D1*
Y8405D1*
X9942Y3140D2*
Y2648D1*
X9960Y2630D1*
X9627Y3140D2*
Y2671D1*
X8750Y1794D1*
X7632Y7964D2*
D14*
Y7732D1*
D13*
Y6626D1*
X7738Y6520D1*
X6226Y2890D2*
X6280D1*
Y3500D1*
X6780Y4000D1*
X7107D1*
X7150Y4043D1*
X7435Y9516D2*
D14*
Y9748D1*
D13*
Y9940D1*
X7595Y10100D1*
X11130Y6495D2*
X11095D1*
X11050Y6450D1*
Y7090D1*
X10915D1*
X6974Y2890D2*
Y3728D1*
X7150D1*
X10530Y4673D2*
X10853D1*
X11065Y4885D1*
X11310D1*
X10350Y7755D2*
X10915D1*
Y7760D1*
X8368Y3140D2*
Y2642D1*
X8380Y2630D1*
X8683Y3140D2*
Y2677D1*
X8730Y2630D1*
X1084Y8977D2*
D17*
X1563D1*
X1590Y8950D1*
X1500Y8860D1*
Y8443D1*
X2226Y9522D2*
X2162D1*
X1590Y8950D1*
X3000Y8443D2*
Y9093D1*
X4346D1*
X3014Y9522D2*
X3000Y9508D1*
Y9093D1*
X7238Y7964D2*
D14*
Y7648D1*
D13*
Y7345D1*
X7250D1*
X3717Y6283D2*
D15*
Y6547D1*
D13*
X3810Y6640D1*
X4110D1*
X4170Y6580D1*
Y6455D1*
X4300Y6325D1*
X2980Y4215D2*
D18*
X3105Y4090D1*
X3965D1*
X4110Y3945D1*
X3403Y5417D2*
Y5007D1*
D19*
X3630Y4780D1*
X3945D1*
X4110Y4615D1*
X3560Y5417D2*
D18*
Y5150D1*
X3760Y4950D1*
X4470D1*
X4530Y4890D1*
Y4745D1*
X4660Y4615D1*
X3530Y3755D2*
D13*
X3615D1*
X3820Y3550D1*
X4510D1*
X4650Y3690D1*
Y3935D1*
X4660Y3945D1*
X10530Y5617D2*
X10922D1*
X11130Y5825D1*
X10350Y7085D2*
X10370D1*
Y6600D1*
X10440Y6530D1*
Y5980D1*
X10482D1*
X10530Y5932D1*
X8053Y3140D2*
Y2653D1*
X8030Y2630D1*
X210Y7670D2*
X495D1*
X560Y7735D1*
X10435Y1390D2*
X9921D1*
X9537Y1006D1*
X8683Y6520D2*
Y7013D1*
X8700Y7030D1*
X8368Y6520D2*
Y7012D1*
X8350Y7030D1*
X1379Y5566D2*
X1976D1*
X1980Y5570D1*
X8750Y1006D2*
Y780D1*
X8960Y570D1*
X10320D1*
X10770Y1020D1*
D18*
Y1757D1*
D13*
Y3728D1*
X10530D1*
X6385Y10320D2*
X6845D1*
Y9516D1*
X8997Y6520D2*
Y6977D1*
X9050Y7030D1*
X6385Y10320D2*
X6810D1*
X6960Y10170D1*
Y10160D1*
X6205Y9740D2*
X6250D1*
X6280Y9770D1*
X6580D1*
D14*
X6648Y9702D1*
Y9516D1*
X9312Y6520D2*
D13*
Y6942D1*
X9400Y7030D1*
X6205Y9740D2*
X6060D1*
Y9510D1*
X5990Y9440D1*
Y9370D1*
X8053Y6520D2*
Y6977D1*
X8000Y7030D1*
X1379Y5310D2*
X1890D1*
X1980Y5220D1*
X5810Y4984D2*
Y4960D1*
X6385D1*
X6430Y5005D1*
X6475D1*
X6530Y4950D1*
X7113D1*
X7150Y4987D1*
X1328Y2194D2*
D20*
X1374D1*
X1760Y2580D1*
X3980D1*
X4100Y2700D1*
Y2766D1*
X3245Y6283D2*
D16*
X3150D1*
D17*
Y6600D1*
D21*
X3540Y6990D1*
X4530D1*
X5230Y6290D1*
Y4984D1*
X5810D1*
X4100Y2766D2*
D22*
Y3090D1*
X4890D1*
X5210Y3410D1*
Y4850D1*
D17*
X5310Y4950D1*
X5810D1*
Y4984D1*
X4720Y8187D2*
D20*
X5391D1*
X5550Y8028D1*
Y6290D1*
X5230D1*
X710Y9883D2*
Y10160D1*
X1030Y10480D1*
X5555D1*
X5715Y10320D1*
D13*
Y9920D1*
X5535Y9740D1*
D20*
Y8028D1*
X5715Y10320D2*
D13*
X5860D1*
Y10550D1*
X5980Y10670D1*
X9250D1*
X10620Y9300D1*
Y8809D1*
X10603D1*
X7150Y4987D2*
X7493D1*
X8120Y4360D1*
X7152D1*
X7150Y4358D1*
X10530Y4043D2*
X8437D1*
X8120Y4360D1*
X10530Y4043D2*
X10857D1*
X11040Y3860D1*
X12610D1*
Y3640D1*
X11105Y1390D2*
X11590D1*
X12620Y2420D1*
Y3630D1*
X12610Y3640D1*
X2980Y4885D2*
Y4730D1*
X3330D1*
X3530Y4530D1*
Y4425D1*
X4220Y5200D2*
D18*
Y5120D1*
X3830D1*
X3717Y5233D1*
Y5417D1*
X3245D2*
X3230D1*
Y5240D1*
X3180Y5470D1*
D23*
Y5170D1*
D13*
X2895Y4885D1*
X2980D1*
X2710Y5495D2*
Y5270D1*
X2980D1*
D24*
X3180Y5470D1*
X2740Y4920D2*
D13*
Y5465D1*
X2710Y5495D1*
X1379Y5822D2*
D25*
X1762D1*
D26*
X1850Y5910D1*
D17*
X2160D1*
X2490Y5580D1*
X2625D1*
X2710Y5495D1*
X7963Y1794D2*
D27*
X6524D1*
X6510Y1780D1*
D62*
X4220Y5200D3*
D27*
X2740Y4920D3*
D62*
X9960Y2630D3*
D27*
X6510Y1780D3*
X4090Y7600D3*
D62*
X9400Y7030D3*
X9050D3*
X8350D3*
X8000D3*
X6840Y7290D3*
X8700Y7030D3*
X8380Y2630D3*
X8030D3*
X7680D3*
X8730D3*
X210Y7670D3*
X2200Y6620D3*
X1980Y5570D3*
Y5220D3*
X6960Y10160D3*
X5990Y9370D3*
D27*
X6060Y5770D3*
D62*
X3400Y5850D3*
X3720D3*
X7910Y7520D3*
D27*
X8580Y4950D3*
X6510Y760D3*
X7150Y8560D3*
X6010Y7430D3*
X62Y10706D2*
D17*
X719D1*
X9632D2*
X14442D1*
X62Y10458D2*
X469D1*
X9878D2*
X14442D1*
X62Y10209D2*
X324D1*
X8718D2*
X9293D1*
X10128D2*
X14442D1*
X62Y9960D2*
X321D1*
X1097D2*
X1977D1*
X2476D2*
X2762D1*
X3265D2*
X5082D1*
X8718D2*
X9543D1*
X10378D2*
X14442D1*
X62Y9712D2*
X344D1*
X1078D2*
X1746D1*
X3496D2*
X5082D1*
X8718D2*
X9789D1*
X10624D2*
X14442D1*
X62Y9463D2*
X1602D1*
X3527D2*
X3981D1*
X10871D2*
X14442D1*
X10093Y9214D2*
X10289D1*
X10921D2*
X14442D1*
X2109Y8965D2*
X2637D1*
X10093D2*
X10250D1*
X10960D2*
X14442D1*
X1867Y8717D2*
X2633D1*
X3367D2*
X3899D1*
X10093D2*
X10250D1*
X10960D2*
X14442D1*
X1867Y8468D2*
X2633D1*
X3367D2*
X3649D1*
X10093D2*
X14442D1*
X1867Y8219D2*
X2633D1*
X4238D2*
X4333D1*
X10093D2*
X11918D1*
X13300D2*
X14442D1*
X1535Y7971D2*
X2524D1*
X3988D2*
X4356D1*
X5937D2*
X6352D1*
X8976D2*
X9914D1*
X13300D2*
X14442D1*
X3742Y7722D2*
X5160D1*
X5937D2*
X6145D1*
X8792D2*
X9914D1*
X13300D2*
X14442D1*
X3742Y7473D2*
X5160D1*
X5937D2*
X6145D1*
X8550D2*
X9914D1*
X13300D2*
X14442D1*
X4871Y7225D2*
X5160D1*
X5937D2*
X6145D1*
X9718D2*
X9914D1*
X13300D2*
X14442D1*
X1335Y6976D2*
X1653D1*
X5937D2*
X6145D1*
X13203D2*
X14442D1*
X1335Y6727D2*
X1653D1*
X5937D2*
X6145D1*
X13296D2*
X14442D1*
X5937Y6479D2*
X6145D1*
X11566D2*
X11942D1*
X13281D2*
X14442D1*
X5933Y6230D2*
X6660D1*
X11566D2*
X12071D1*
X13148D2*
X14442D1*
X4734Y5981D2*
X4819D1*
X5765D2*
X6660D1*
X7636D2*
X10043D1*
X11566D2*
X12020D1*
X13199D2*
X14442D1*
X4734Y5733D2*
X4819D1*
X5644D2*
X6660D1*
X7636D2*
X10043D1*
X11566D2*
X11926D1*
X13292D2*
X14442D1*
X4734Y5484D2*
X4819D1*
X5644D2*
X6660D1*
X7636D2*
X10043D1*
X11566D2*
X11938D1*
X13281D2*
X14442D1*
X4734Y5235D2*
X4819D1*
X7644D2*
X10043D1*
X11746D2*
X12067D1*
X13152D2*
X14442D1*
X7910Y4986D2*
X10043D1*
X11746D2*
X12024D1*
X13195D2*
X14442D1*
X1882Y4738D2*
X2367D1*
X8160D2*
X10043D1*
X11746D2*
X11926D1*
X13292D2*
X14442D1*
X1968Y4489D2*
X2547D1*
X8410D2*
X10043D1*
X11746D2*
X11938D1*
X13281D2*
X14442D1*
X1972Y4240D2*
X2547D1*
X11746D2*
X12063D1*
X13156D2*
X14442D1*
X1777Y3992D2*
X2547D1*
X7636D2*
X8071D1*
X13191D2*
X14442D1*
X1335Y3743D2*
X3094D1*
X5671D2*
X6106D1*
X7636D2*
X10043D1*
X13292D2*
X14442D1*
X937Y3494D2*
X3094D1*
X5671D2*
X5977D1*
X11074D2*
X11938D1*
X13285D2*
X14442D1*
X62Y3246D2*
X3586D1*
X5640D2*
X5871D1*
X10289D2*
X10469D1*
X11074D2*
X12059D1*
X13160D2*
X14442D1*
X62Y2997D2*
X3586D1*
X5441D2*
X5871D1*
X10289D2*
X10469D1*
X11074D2*
X12317D1*
X12921D2*
X14442D1*
X62Y2748D2*
X1391D1*
X5187D2*
X5871D1*
X10316D2*
X10468D1*
X11074D2*
X12317D1*
X12921D2*
X14442D1*
X62Y2500D2*
X918D1*
X4613D2*
X5871D1*
X10312D2*
X10467D1*
X11074D2*
X12281D1*
X12921D2*
X14442D1*
X62Y2251D2*
X813D1*
X4613D2*
X7715D1*
X9785D2*
X10469D1*
X11074D2*
X12031D1*
X12867D2*
X14442D1*
X62Y2002D2*
X848D1*
X1808D2*
X3586D1*
X4613D2*
X6160D1*
X10027D2*
X10469D1*
X11074D2*
X11785D1*
X12621D2*
X14442D1*
X62Y1754D2*
X953D1*
X1703D2*
X6094D1*
X12371D2*
X14442D1*
X62Y1505D2*
X821D1*
X1835D2*
X3586D1*
X4613D2*
X6203D1*
X12124D2*
X14442D1*
X62Y1256D2*
X832D1*
X1824D2*
X3586D1*
X4613D2*
X7430D1*
X11874D2*
X14442D1*
X62Y1007D2*
X1012D1*
X1644D2*
X3586D1*
X4613D2*
X6180D1*
X6839D2*
X7430D1*
X11558D2*
X14442D1*
X62Y759D2*
X3586D1*
X4613D2*
X6094D1*
X6929D2*
X7430D1*
X10925D2*
X14442D1*
X62Y510D2*
X3586D1*
X4613D2*
X6180D1*
X6839D2*
X7430D1*
X8496D2*
X8602D1*
X10679D2*
X14442D1*
X150Y8021D2*
X154Y8165D1*
X150Y8557D1*
X36Y8558D1*
X35Y7976D1*
X153Y8015D1*
X150Y8225D1*
X6321Y5434D2*
X6688D1*
X6687Y6246D1*
X6170D1*
Y7774D1*
X6377D1*
X6376Y7979D1*
X5984Y7976D1*
X5988Y8520D1*
X5984Y8620D1*
X5988Y8914D1*
X5984Y9017D1*
X5895Y9034D1*
X5898Y8490D1*
Y8127D1*
X5913Y8028D1*
Y6290D1*
X5892Y6167D1*
X5830Y6059D1*
X5736Y5978D1*
X5616Y5934D1*
X5618Y5450D1*
X6318Y5453D1*
Y5433D1*
X11719Y4645D2*
X11720Y4138D1*
X12192D1*
X12111Y4214D1*
X12036Y4314D1*
X11982Y4427D1*
X11951Y4547D1*
X11945Y4672D1*
X11964Y4796D1*
X12007Y4913D1*
X12072Y5019D1*
X12157Y5110D1*
X12198Y5140D1*
X12111Y5214D1*
X12036Y5314D1*
X11982Y5427D1*
X11951Y5547D1*
X11945Y5672D1*
X11964Y5796D1*
X12007Y5913D1*
X12072Y6019D1*
X12157Y6110D1*
X12198Y6140D1*
X12128Y6196D1*
X12049Y6293D1*
X11991Y6403D1*
X11955Y6523D1*
X11944Y6647D1*
X11946Y6681D1*
X11540Y6680D1*
X11536Y6065D1*
X11540Y5505D1*
Y5396D1*
X11091D1*
X11010Y5355D1*
X10993Y5313D1*
X11720Y5314D1*
X11716Y4455D1*
X8950Y7976D2*
Y7966D1*
X8821D1*
X8818Y7880D1*
X8788Y7756D1*
X8802Y7787D1*
X8737Y7683D1*
X8430Y7377D1*
X8524Y7333D1*
X8542Y7346D1*
X8662Y7381D1*
X8786Y7372D1*
X8874Y7333D1*
X8892Y7346D1*
X9012Y7381D1*
X9136Y7372D1*
X9224Y7333D1*
X9242Y7346D1*
X9362Y7381D1*
X9486Y7372D1*
X9599Y7321D1*
X9688Y7234D1*
X9741Y7122D1*
X9753Y7030D1*
X9744Y6980D1*
X9941Y6983D1*
X9944Y7515D1*
X9940Y8075D1*
Y8126D1*
X9666Y8125D1*
X9668Y7977D1*
X8953D1*
X9641Y2291D2*
X9737Y2261D1*
X9845Y2199D1*
X9934Y2112D1*
X9999Y2006D1*
X10037Y1887D1*
X10046Y1800D1*
X10494D1*
X10492Y3401D1*
X10263Y3405D1*
X10265Y2810D1*
X10301Y2722D1*
X10313Y2630D1*
X10291Y2508D1*
X10228Y2400D1*
X10132Y2322D1*
X10014Y2281D1*
X9890Y2284D1*
X9774Y2330D1*
X9725Y2374D1*
X9639Y2289D1*
X2618Y9229D2*
X2583Y9182D1*
X2487Y9103D1*
X2373Y9051D1*
X2251Y9029D1*
X2154Y9037D1*
X1841Y8723D1*
Y8023D1*
X1509D1*
X1508Y7537D1*
X1482Y7421D1*
X1533Y7418D1*
Y7957D1*
X2215D1*
Y7400D1*
X2285Y7493D1*
Y7957D1*
X2531D1*
X2659Y8082D1*
X2662Y9068D1*
Y9175D1*
X7613Y4083D2*
X7609Y4035D1*
X7613Y3926D1*
Y3601D1*
X8061Y3599D1*
X8170Y3603D1*
X8691Y3599D1*
X8799Y3603D1*
X9320Y3599D1*
X9429Y3603D1*
X9950Y3599D1*
X10069Y3603D1*
X10067Y3768D1*
X9530Y3765D1*
X8437D1*
X8314Y3795D1*
X8344Y3781D1*
X8241Y3846D1*
X8006Y4081D1*
X7616Y4082D1*
X7613Y3720D1*
X7730Y3603D1*
X8376Y3599D1*
X8485Y3603D1*
X9006Y3599D1*
X9114Y3603D1*
X9635Y3599D1*
X9744Y3603D1*
X9994D1*
X10067Y3720D1*
Y3763D1*
Y4317D2*
X10071Y4366D1*
X10067Y4475D1*
X10071Y4996D1*
X10067Y5014D1*
X10071Y5940D1*
X10067Y6059D1*
X9619Y6061D1*
X9510Y6057D1*
X8989Y6061D1*
X8881Y6057D1*
X8360Y6061D1*
X8251Y6057D1*
X7730Y6061D1*
X7613Y6056D1*
X7609Y5609D1*
X7613Y5525D1*
X7616Y5235D1*
X7609Y5294D1*
X7613Y5236D1*
Y5294D1*
X1467Y7391D2*
Y7118D1*
X908D1*
X910Y7047D1*
X1311D1*
X1316Y6657D1*
X1413Y6681D1*
X1541Y6684D1*
X1640Y6673D1*
X1675Y6663D1*
X1676Y7115D1*
X1533Y7118D1*
Y7418D1*
X4709Y6085D2*
X4710Y5226D1*
X4572D1*
X4570Y5181D1*
X4647Y5131D1*
X4710Y5068D1*
X4750Y5044D1*
X4817D1*
X4844Y5090D1*
X4842Y6129D1*
X4710Y6254D1*
X4706Y5895D1*
X11969Y8266D2*
X13276D1*
Y7014D1*
X13152D1*
X13212Y6916D1*
X13255Y6799D1*
X13275Y6676D1*
X13268Y6540D1*
X13236Y6420D1*
X13180Y6308D1*
X13104Y6209D1*
X13027Y6140D1*
X13130Y6041D1*
X13200Y5938D1*
X13248Y5823D1*
X13276Y5640D1*
X13263Y5516D1*
X13227Y5397D1*
X13167Y5287D1*
X13087Y5191D1*
X13023Y5140D1*
X13130Y5041D1*
X13200Y4938D1*
X13248Y4823D1*
X13276Y4640D1*
X13263Y4516D1*
X13227Y4397D1*
X13167Y4287D1*
X13087Y4191D1*
X13023Y4140D1*
X13130Y4041D1*
X13200Y3938D1*
X13248Y3823D1*
X13276Y3640D1*
X13263Y3516D1*
X13227Y3397D1*
X13167Y3287D1*
X13087Y3191D1*
X12989Y3114D1*
X12895Y3066D1*
X12898Y2420D1*
X12868Y2296D1*
X12882Y2327D1*
X12817Y2223D1*
X11787Y1193D1*
X11678Y1127D1*
X11709Y1139D1*
X11590Y1112D1*
X11531D1*
X11534Y980D1*
X11046D1*
X11032Y927D1*
X10967Y823D1*
X10517Y373D1*
X10408Y307D1*
X10439Y319D1*
X10320Y292D1*
X8960D1*
X8836Y322D1*
X8867Y308D1*
X8763Y373D1*
X8617Y520D1*
X8554Y537D1*
X8471Y581D1*
Y498D1*
X7454D1*
Y1400D1*
X6615Y1401D1*
X6568Y1391D1*
X6444Y1393D1*
X6326Y1433D1*
X6227Y1508D1*
X6156Y1610D1*
X6120Y1729D1*
X6124Y1854D1*
X6166Y1971D1*
X6246Y2072D1*
X6347Y2145D1*
X6469Y2182D1*
X6899Y2187D1*
X7637D1*
X7705Y2232D1*
X7819Y2281D1*
X7915Y2297D1*
X7852Y2322D1*
X7734Y2281D1*
X7610Y2284D1*
X7494Y2330D1*
X7402Y2413D1*
X7344Y2523D1*
X7327Y2646D1*
X7355Y2767D1*
X7416Y2862D1*
X7415Y3407D1*
X7250Y3405D1*
X7268Y3359D1*
X7305D1*
Y2421D1*
X6643Y2425D1*
X6592Y2421D1*
X5895D1*
Y3359D1*
X6000D1*
X6002Y3500D1*
X6032Y3624D1*
X6018Y3593D1*
X6083Y3697D1*
X6153Y3767D1*
X5647D1*
X5648Y3410D1*
X5630Y3287D1*
X5576Y3170D1*
X5520Y3100D1*
X5200Y2780D1*
X5100Y2706D1*
X4979Y2662D1*
X4890Y2652D1*
X4589D1*
Y1992D1*
X3611D1*
Y2214D1*
X2980Y2217D1*
X1914D1*
X1815Y2122D1*
X1805Y2070D1*
X1759Y1954D1*
X1685Y1854D1*
X1622Y1802D1*
X1704Y1726D1*
X1760Y1644D1*
X1799Y1552D1*
X1819Y1454D1*
X1815Y1332D1*
X1790Y1235D1*
X1746Y1145D1*
X1685Y1066D1*
X1609Y1001D1*
X1522Y953D1*
X1427Y923D1*
X1328Y913D1*
X1228Y924D1*
X1133Y954D1*
X1046Y1002D1*
X970Y1067D1*
X909Y1146D1*
X865Y1236D1*
X841Y1333D1*
X836Y1432D1*
X851Y1531D1*
X886Y1625D1*
X939Y1709D1*
X1008Y1781D1*
X1032Y1800D1*
X923Y1913D1*
X865Y2023D1*
X838Y2145D1*
X841Y2270D1*
X876Y2389D1*
X939Y2497D1*
X1028Y2584D1*
X1135Y2647D1*
X1255Y2681D1*
X1353Y2683D1*
X1503Y2837D1*
X1605Y2908D1*
X1745Y2943D1*
X3608D1*
X3611Y3324D1*
X3120Y3326D1*
Y3783D1*
X2570Y3786D1*
Y4566D1*
X2500Y4608D1*
X2415Y4699D1*
X2362Y4812D1*
X2347Y4935D1*
X2378Y5068D1*
X2300Y5070D1*
X2248Y4990D1*
X2152Y4912D1*
X2034Y4871D1*
X1910Y4874D1*
X1856Y4895D1*
X1857Y4634D1*
X1911Y4558D1*
X1949Y4466D1*
X1964Y4355D1*
X1952Y4256D1*
X1917Y4163D1*
X1861Y4080D1*
X1787Y4013D1*
X1699Y3965D1*
X1603Y3940D1*
X1465Y3936D1*
X1375Y3945D1*
X1310Y3965D1*
X1311Y3551D1*
X909D1*
X910Y3316D1*
X35D1*
Y286D1*
X260Y275D1*
X3611D1*
Y1648D1*
X4589D1*
Y274D1*
X14454Y275D1*
X14465Y500D1*
Y10944D1*
X14240Y10955D1*
X46D1*
X35Y10730D1*
Y9397D1*
X677D1*
Y9081D1*
X744Y9019D1*
X743Y9397D1*
X1425D1*
Y9315D1*
X1475D1*
X1735Y9573D1*
X1774Y9718D1*
X1837Y9825D1*
X1926Y9913D1*
X2033Y9976D1*
X2153Y10009D1*
X2278Y10012D1*
X2399Y9984D1*
X2510Y9925D1*
X2617Y9819D1*
X2713Y9913D1*
X2821Y9976D1*
X2941Y10009D1*
X3065Y10012D1*
X3187Y9984D1*
X3297Y9925D1*
X3389Y9841D1*
X3457Y9737D1*
X3497Y9619D1*
X3507Y9522D1*
X3500Y9431D1*
X4004D1*
X4005Y9512D1*
X4687D1*
Y8915D1*
X4753Y8923D1*
Y9512D1*
X5109D1*
X5106Y10117D1*
X1176D1*
X1074Y10011D1*
X1073Y9883D1*
X1050Y9757D1*
X1051Y9463D1*
X369D1*
Y9756D1*
X347Y9883D1*
Y10160D1*
X368Y10283D1*
X443Y10406D1*
X773Y10737D1*
X875Y10808D1*
X1015Y10843D1*
X5555D1*
X5700Y10812D1*
X5743Y10827D1*
X5783Y10867D1*
X5877Y10928D1*
X5980Y10948D1*
X9250D1*
X9374Y10918D1*
X9343Y10932D1*
X9447Y10867D1*
X10817Y9497D1*
X10883Y9388D1*
X10871Y9419D1*
X10898Y9300D1*
Y9116D1*
X10934Y9120D1*
Y8497D1*
X10272D1*
Y9120D1*
X10338D1*
X10342Y9187D1*
X9134Y10393D1*
X8691Y10392D1*
X8694Y10210D1*
Y9690D1*
X7904D1*
Y9501D1*
X8060Y9504D1*
X8296D1*
Y9494D1*
X8651D1*
X8652Y9663D1*
X9668D1*
Y9495D1*
X10032D1*
X10068Y9459D1*
Y8873D1*
X9669D1*
X9668Y8747D1*
X10068D1*
Y8182D1*
X10760Y8184D1*
Y8172D1*
X11345Y8170D1*
X11944Y8169D1*
Y8266D1*
X11969D1*
X12346Y3058D2*
X12204Y3132D1*
X12111Y3214D1*
X12036Y3314D1*
X11982Y3427D1*
X11949Y3583D1*
X11047Y3582D1*
X11050Y1800D1*
X11534D1*
Y1726D1*
X12341Y2534D1*
X12342Y3057D1*
X3715Y7742D2*
Y7378D1*
X4530D1*
X4653Y7358D1*
X4766Y7297D1*
X4804Y7264D1*
X5188Y6880D1*
X5187Y7825D1*
X5059Y7824D1*
X5061Y7768D1*
X4379D1*
Y8061D1*
X4364Y8117D1*
X4361Y8242D1*
X4380Y8297D1*
X4348Y8355D1*
X3783Y7791D1*
X3341Y8757D2*
Y8265D1*
X3472Y8268D1*
X3960Y8753D1*
X3342Y8755D1*
X6883Y637D2*
X6826Y527D1*
X6737Y439D1*
X6626Y384D1*
X6502Y367D1*
X6380Y389D1*
X6270Y448D1*
X6185Y539D1*
X6132Y652D1*
X6117Y775D1*
X6142Y897D1*
X6203Y1006D1*
X6295Y1089D1*
X6409Y1140D1*
X6533Y1152D1*
X6655Y1125D1*
X6762Y1062D1*
X6843Y968D1*
X6892Y853D1*
X6903Y760D1*
X6883Y637D1*
X7777Y5096D2*
X8551Y4322D1*
X10067Y4320D1*
X10071Y4681D1*
X10067Y4764D1*
Y5625D1*
Y5984D1*
X9950Y6057D1*
X9304Y6061D1*
X9195Y6057D1*
X8674Y6061D1*
X8566Y6057D1*
X8045Y6061D1*
X7936Y6057D1*
X7686D1*
X7613Y5940D1*
Y5315D1*
X11310Y4215D2*
D16*
X11719D1*
X5810Y4236D2*
Y3768D1*
X6580Y6675D2*
Y6246D1*
X6171Y6675D2*
X6580D1*
X8540Y9494D2*
Y9065D1*
X8265Y10100D2*
Y9691D1*
Y10100D2*
X8694D1*
X9537Y2301D2*
Y1794D1*
X10045D1*
X1328Y1406D2*
Y914D1*
X836Y1406D2*
X1821D1*
X7150Y5302D2*
X7613D1*
X10067Y4987D2*
X10530D1*
X7916Y9504D2*
Y9232D1*
X1874Y7956D2*
Y7537D1*
X1534D2*
X2214D1*
X4300Y5655D2*
X4709D1*
X12610Y8266D2*
Y7640D1*
X13275D1*
X11945Y6640D2*
X13275D1*
X1504Y6684D2*
Y6265D1*
X1505Y4355D2*
Y3936D1*
Y4355D2*
X1963D1*
X323Y3922D2*
Y3316D1*
X1379Y4798D2*
X1857D1*
X9737Y9495D2*
Y8873D1*
Y9184D2*
X10068D1*
X6600Y2890D2*
Y2422D1*
X3374Y7537D2*
X3714D1*
X4100Y1648D2*
Y874D1*
X3612D2*
X4588D1*
X11585Y7090D2*
Y6681D1*
Y8169D2*
Y7760D1*
X9160Y9662D2*
Y9194D1*
D28*
X560Y7735D3*
Y8405D3*
X6430Y4335D3*
Y5005D3*
X11310Y4215D3*
Y4885D3*
D29*
X5810Y4236D3*
Y4984D3*
D28*
X6580Y6675D3*
Y7345D3*
X7250Y6675D3*
Y7345D3*
X8540Y8395D3*
Y9065D3*
D30*
X7595Y10100D3*
X8265D3*
D32*
X7963Y1006D3*
D33*
X8750D3*
X9537D3*
Y1794D3*
X8750D3*
X7963D3*
D35*
X1328Y2194D3*
Y1406D3*
X3014Y9522D3*
X2226D3*
D37*
X7150Y5932D3*
Y5617D3*
Y5302D3*
Y4987D3*
Y4673D3*
Y4358D3*
Y4043D3*
Y3728D3*
D38*
X7738Y3140D3*
X8053D3*
X8368D3*
X8683D3*
X8997D3*
X9312D3*
X9627D3*
X9942D3*
D37*
X10530Y3728D3*
Y4043D3*
Y4358D3*
Y4673D3*
Y4987D3*
Y5302D3*
Y5617D3*
Y5932D3*
D38*
X9942Y6520D3*
X9627D3*
X9312D3*
X8997D3*
X8683D3*
X8368D3*
X8053D3*
X7738D3*
D40*
X6365Y9232D3*
X6364Y9035D3*
Y8838D3*
Y8642D3*
Y8445D3*
Y8248D3*
D41*
X6648Y7964D3*
X6845D3*
X7042D3*
X7238D3*
X7435D3*
X7632D3*
D40*
X7916Y8248D3*
Y8445D3*
Y8642D3*
Y8838D3*
Y9035D3*
Y9232D3*
D41*
X7632Y9516D3*
X7435D3*
X7238D3*
X7042D3*
X6845D3*
X6648D3*
D42*
X7140Y8740D3*
D28*
X2980Y4215D3*
Y4885D3*
D44*
X1126Y7537D3*
X1874D3*
X1500Y8443D3*
D30*
X5535Y9740D3*
X6205D3*
X5715Y10320D3*
X6385D3*
D28*
X4300Y5655D3*
Y6325D3*
X2710Y6165D3*
Y5495D3*
D45*
X12610Y7640D3*
D46*
Y6640D3*
Y5640D3*
Y4640D3*
Y3640D3*
D48*
X1504Y6265D3*
X1505Y4355D3*
D49*
X323Y6698D3*
Y3922D3*
D50*
X1379Y5822D3*
Y5566D3*
Y5310D3*
Y5054D3*
Y4798D3*
D51*
X325Y5764D3*
Y4858D3*
D53*
X9737Y9184D3*
Y8436D3*
X10603Y8809D3*
D55*
X3245Y5417D3*
X3403D3*
X3560D3*
X3717D3*
X3875D3*
Y6283D3*
X3717D3*
X3560D3*
X3403D3*
X3245D3*
D57*
X3560Y5850D3*
D59*
X6226Y2890D3*
D60*
X6600D3*
D59*
X6974D3*
D44*
X336Y8977D3*
X1084D3*
X710Y9883D3*
X2626Y7537D3*
X3374D3*
X3000Y8443D3*
X5094Y9093D3*
X4346D3*
X4720Y8187D3*
D30*
X2105Y6990D3*
X2775D3*
D61*
X4100Y2766D3*
Y874D3*
D28*
X3530Y3755D3*
Y4425D3*
X4110Y4615D3*
Y3945D3*
X4660Y4615D3*
Y3945D3*
X11130Y6495D3*
Y5825D3*
X10350Y7755D3*
Y7085D3*
D30*
X11585Y7090D3*
X10915D3*
X11585Y7760D3*
X10915D3*
X11105Y1390D3*
X10435D3*
D29*
X9160Y9194D3*
Y8446D3*
M02*
