G04 DipTrace 2.4.0.2*
%INTopMask.gbr*%
%MOIN*%
%ADD28C,0.064*%
%ADD29C,0.056*%
%ADD31R,0.05X0.022*%
%ADD32R,0.022X0.05*%
%ADD58R,0.0591X0.0236*%
%ADD60R,0.0591X0.0315*%
%ADD62R,0.0472X0.0197*%
%ADD64R,0.0315X0.0276*%
%ADD66R,0.0827X0.0827*%
%ADD68R,0.0827X0.0787*%
%ADD70R,0.0709X0.0906*%
%ADD72R,0.061X0.0236*%
%ADD74O,0.0984X0.0906*%
%ADD76R,0.0984X0.0906*%
%ADD78R,0.0492X0.0335*%
%ADD80R,0.0335X0.0492*%
%ADD82R,0.1043X0.1043*%
%ADD84R,0.0413X0.0197*%
%ADD86R,0.0197X0.0413*%
%ADD94R,0.0512X0.0433*%
%ADD96R,0.0591X0.0669*%
%ADD98R,0.0472X0.0512*%
%ADD100R,0.0512X0.0472*%
%ADD102R,0.0669X0.0591*%
%FSLAX44Y44*%
G04*
G70*
G90*
G75*
G01*
%LNTopMask*%
%LPD*%
D102*
X-4990Y-4060D3*
Y-3312D3*
D100*
X-5700Y2290D3*
X-5031D3*
D98*
X-2454Y266D3*
Y-403D3*
X2490Y40D3*
Y-629D3*
D102*
X-3080Y380D3*
Y-368D3*
D96*
X-3300Y4090D3*
X-2552D3*
D98*
X-2490Y2800D3*
Y3469D3*
D100*
X-1341Y2160D3*
X-671D3*
D102*
X350Y3040D3*
Y2292D3*
D94*
X-2560Y-2944D3*
Y-3889D3*
D28*
X-500Y-4620D3*
Y-3620D3*
X-1500D3*
Y-4620D3*
X500D3*
Y-3620D3*
D29*
X-6310Y-3260D3*
Y-4047D3*
X-6730Y4010D3*
X-5943D3*
D31*
X-1610Y500D3*
Y185D3*
Y-130D3*
Y-445D3*
Y-760D3*
Y-1075D3*
Y-1390D3*
Y-1705D3*
D32*
X-1022Y-2292D3*
X-707D3*
X-392D3*
X-77D3*
X237D3*
X552D3*
X867D3*
X1182D3*
D31*
X1770Y-1705D3*
Y-1390D3*
Y-1075D3*
Y-760D3*
Y-445D3*
Y-130D3*
Y185D3*
Y500D3*
D32*
X1182Y1088D3*
X867D3*
X552D3*
X237D3*
X-77D3*
X-392D3*
X-707D3*
X-1022D3*
D86*
X-610Y4330D3*
X-807D3*
X-1004D3*
X-1201D3*
X-1397D3*
X-1594D3*
D84*
X-1878Y4047D3*
Y3850D3*
Y3653D3*
Y3456D3*
Y3259D3*
Y3062D3*
D86*
X-1594Y2779D3*
X-1397D3*
X-1201D3*
X-1004D3*
X-807D3*
X-610D3*
D84*
X-327Y3062D3*
Y3259D3*
Y3456D3*
Y3653D3*
Y3850D3*
Y4047D3*
D82*
X-1102Y3555D3*
D80*
X-4720Y3120D3*
X-3972D3*
X-4346Y4026D3*
D78*
X-3220Y-3690D3*
Y-2942D3*
X-4126Y-3316D3*
D100*
X1980Y3570D3*
X1311D3*
X1540Y4070D3*
X871D3*
X-4620Y-1480D3*
X-3951D3*
X-3910Y-4490D3*
X-3241D3*
D76*
X3390Y2000D3*
D74*
Y1000D3*
Y0D3*
Y-1000D3*
Y-2000D3*
D72*
X-6010Y510D3*
Y254D3*
Y-2D3*
Y-258D3*
Y-514D3*
D70*
X-6059Y1219D3*
Y-1222D3*
D68*
X-7063Y1573D3*
Y-1577D3*
D66*
Y471D3*
Y-474D3*
D64*
X-1820Y1290D3*
Y2038D3*
X-2686Y1665D3*
D62*
X-4110Y-1030D3*
Y-833D3*
Y-636D3*
Y-439D3*
X-4819D3*
Y-636D3*
Y-833D3*
Y-1030D3*
D60*
X-2460Y-1410D3*
D58*
Y-1784D3*
D60*
Y-2158D3*
M02*
