G04 DipTrace 2.4.0.2*
%INTopPaste.gbr*%
%MOIN*%
%ADD37R,0.05X0.022*%
%ADD38R,0.022X0.05*%
%ADD56O,0.0031X0.0255*%
%ADD58R,0.059X0.0275*%
%ADD70R,0.0472X0.1043*%
%ADD72R,0.0079X0.0433*%
%ADD74R,0.0157X0.0433*%
%ADD80R,0.0157X0.0118*%
%ADD82R,0.0669X0.063*%
%ADD84R,0.0453X0.0079*%
%ADD94R,0.0177X0.0335*%
%ADD96R,0.0886X0.0886*%
%ADD98R,0.0039X0.0256*%
%ADD100R,0.0256X0.0039*%
%ADD112R,0.0354X0.0315*%
%ADD114R,0.0512X0.0433*%
%ADD116R,0.0315X0.0354*%
%FSLAX44Y44*%
G04*
G70*
G90*
G75*
G01*
%LNTopPaste*%
%LPD*%
D116*
X560Y7735D3*
Y8405D3*
X6430Y4335D3*
Y5005D3*
X11310Y4215D3*
Y4885D3*
D114*
X5810Y4236D3*
Y4984D3*
D116*
X6580Y6675D3*
Y7345D3*
X7250Y6675D3*
Y7345D3*
X8540Y8395D3*
Y9065D3*
D112*
X7595Y10100D3*
X8265D3*
D37*
X7150Y5932D3*
Y5617D3*
Y5302D3*
Y4987D3*
Y4673D3*
Y4358D3*
Y4043D3*
Y3728D3*
D38*
X7738Y3140D3*
X8053D3*
X8368D3*
X8683D3*
X8997D3*
X9312D3*
X9627D3*
X9942D3*
D37*
X10530Y3728D3*
Y4043D3*
Y4358D3*
Y4673D3*
Y4987D3*
Y5302D3*
Y5617D3*
Y5932D3*
D38*
X9942Y6520D3*
X9627D3*
X9312D3*
X8997D3*
X8683D3*
X8368D3*
X8053D3*
X7738D3*
D100*
X6365Y9232D3*
X6364Y9035D3*
Y8838D3*
Y8642D3*
Y8445D3*
Y8248D3*
D98*
X6648Y7964D3*
X6845D3*
X7042D3*
X7238D3*
X7435D3*
X7632D3*
D100*
X7916Y8248D3*
Y8445D3*
Y8642D3*
Y8838D3*
Y9035D3*
Y9232D3*
D98*
X7632Y9516D3*
X7435D3*
X7238D3*
X7042D3*
X6845D3*
X6648D3*
D96*
X7140Y8740D3*
D116*
X2980Y4215D3*
Y4885D3*
D94*
X1126Y7537D3*
X1874D3*
X1500Y8443D3*
D112*
X5535Y9740D3*
X6205D3*
X5715Y10320D3*
X6385D3*
D116*
X4300Y5655D3*
Y6325D3*
X2710Y6165D3*
Y5495D3*
D84*
X1379Y5822D3*
Y5566D3*
Y5310D3*
Y5054D3*
Y4798D3*
D82*
X325Y5764D3*
Y4858D3*
D80*
X9737Y9184D3*
Y8436D3*
X10603Y8809D3*
D56*
X3245Y5417D3*
X3403D3*
X3560D3*
X3717D3*
X3875D3*
Y6283D3*
X3717D3*
X3560D3*
X3403D3*
X3245D3*
D58*
X3560Y5850D3*
D74*
X6226Y2890D3*
D72*
X6600D3*
D74*
X6974D3*
D94*
X336Y8977D3*
X1084D3*
X710Y9883D3*
X2626Y7537D3*
X3374D3*
X3000Y8443D3*
X5094Y9093D3*
X4346D3*
X4720Y8187D3*
D112*
X2105Y6990D3*
X2775D3*
D70*
X4100Y2766D3*
Y874D3*
D116*
X3530Y3755D3*
Y4425D3*
X4110Y4615D3*
Y3945D3*
X4660Y4615D3*
Y3945D3*
X11130Y6495D3*
Y5825D3*
X10350Y7755D3*
Y7085D3*
D112*
X11585Y7090D3*
X10915D3*
X11585Y7760D3*
X10915D3*
X11105Y1390D3*
X10435D3*
D114*
X9160Y9194D3*
Y8446D3*
M02*
