M48
INCH
T01C0.0150
T02C0.0400
T03C0.0196
%
T01
X+002007Y-001797
X+002401Y-001108
X+002893Y-002978
X+001909Y+003911
X-006259Y-000222
X-004291Y-004159
X-006259Y-005438
X-001141Y+004009
X-002814Y+003517
X-005078Y+005584
X-002322Y+004994
X+002007Y+005683
X+001614Y+003616
X+003779Y+003753
X-000255Y+003616
X+000629Y+003616
X-005866Y+004698
X-005866Y+003812
X+001220Y-001206
X-003110Y+003812
T02
X+007913Y+001966
X+007913Y+000966
X+007913Y-000033
X+007913Y-001033
X+007913Y-002033
X+001401Y-005907
X+001401Y-004907
X+002401Y-005907
X+002401Y-004907
X+003401Y-005907
X+003401Y-004907
T03
X-008228Y-004120
X-008228Y-004927
X-007440Y+005328
X-008248Y+005328
M30
