G04 DipTrace 2.4.0.2*
%INTop.gbr*%
%MOIN*%
%ADD10C,0.0098*%
%ADD13C,0.013*%
%ADD14C,0.0118*%
%ADD15C,0.02*%
%ADD16C,0.0087*%
%ADD17C,0.0071*%
%ADD18C,0.008*%
%ADD19C,0.04*%
%ADD20C,0.025*%
%ADD21C,0.03*%
%ADD23C,0.0197*%
%ADD24C,0.0433*%
%ADD25C,0.035*%
%ADD26C,0.05*%
%ADD27C,0.036*%
%ADD28C,0.028*%
%ADD29C,0.01*%
%ADD30C,0.016*%
%ADD31R,0.0591X0.0512*%
%ADD32R,0.0551X0.1122*%
%ADD33R,0.0394X0.0433*%
%ADD34R,0.0433X0.0394*%
%ADD35R,0.0512X0.0591*%
%ADD36R,0.0598X0.0661*%
%ADD38R,0.0709X0.0709*%
%ADD39C,0.0709*%
%ADD41C,0.056*%
%ADD43R,0.05X0.022*%
%ADD44R,0.022X0.05*%
%ADD46R,0.0335X0.0118*%
%ADD47R,0.0118X0.0335*%
%ADD48R,0.0965X0.0965*%
%ADD50R,0.0256X0.0413*%
%ADD51R,0.0787X0.0236*%
%ADD52R,0.0906X0.0827*%
%ADD53O,0.0906X0.0827*%
%ADD55R,0.0531X0.0157*%
%ADD56R,0.063X0.0669*%
%ADD57R,0.0748X0.0709*%
%ADD58R,0.0748X0.0748*%
%ADD60R,0.0236X0.0197*%
%ADD61R,0.0433X0.0236*%
%ADD63O,0.0295X0.0071*%
%ADD64R,0.0315X0.063*%
%ADD65R,0.0236X0.0512*%
%ADD66R,0.0157X0.0512*%
%ADD68C,0.0295*%
%ADD69C,0.0591*%
%FSLAX44Y44*%
G04*
G70*
G90*
G75*
G01*
%LNTop*%
%LPD*%
X10500Y8756D2*
D13*
X10007D1*
X9923Y8840D1*
X9230D1*
X9180Y8789D1*
X8605Y8543D2*
D14*
X8934D1*
D13*
X9180Y8789D1*
X7534Y8260D2*
D14*
Y7825D1*
D13*
X7269D1*
Y7738D1*
X7554Y7684D2*
X7324D1*
X7269Y7738D1*
X8637Y8268D2*
Y8511D1*
D14*
X8605Y8543D1*
X13450Y2150D2*
D13*
Y1502D1*
X13398Y1450D1*
D15*
X13850D1*
X14200Y1800D1*
Y3850D1*
X13750Y4300D1*
X13500D1*
X8742Y3534D2*
D13*
Y3071D1*
X8694Y3024D1*
X5350Y10750D2*
X4726D1*
X6499Y4630D2*
X7020D1*
X7119Y4729D1*
X7839Y5066D2*
X7456D1*
X7119Y4729D1*
X7054Y9527D2*
D16*
X7337D1*
X7829Y9035D1*
X8605Y9527D2*
X8321D1*
X7829Y9035D1*
X7731Y8260D2*
D14*
Y8590D1*
D13*
Y8937D1*
X7829Y9035D1*
X8124Y8260D2*
D14*
Y8590D1*
D13*
Y8740D1*
X7829Y9035D1*
X7269Y7069D2*
X7988D1*
X7839Y5696D2*
X7547D1*
X7249Y5994D1*
X6348D1*
X7988Y7069D2*
Y6776D1*
X8440Y6324D1*
Y6152D1*
X8465Y6127D1*
X9055Y4134D2*
X8415D1*
X8022Y3740D1*
Y2800D1*
X7338D1*
X7230Y2908D1*
Y3284D1*
X3433Y2865D2*
D17*
Y2965D1*
D13*
Y3448D1*
X3485Y3500D1*
X3000Y2550D2*
Y3015D1*
X3485Y3500D1*
X1578Y7460D2*
X693D1*
X574Y7579D1*
X1578Y4547D2*
X693D1*
X574Y4429D1*
X10631Y3534D2*
Y3150D1*
X10579Y3098D1*
X9319Y2166D2*
D10*
Y2232D1*
X10285Y3199D1*
Y3503D1*
X10316Y3534D1*
X8321Y8260D2*
D14*
Y8126D1*
D13*
Y7019D1*
X8427Y6914D1*
X6856Y3284D2*
X6900D1*
Y3825D1*
X7469Y4394D1*
X7796D1*
X7839Y4436D1*
X8124Y9811D2*
D14*
Y10044D1*
D13*
X8432Y10351D1*
Y10371D1*
X12300Y6785D2*
Y7200D1*
X12850Y7750D1*
Y8265D1*
X12950Y8365D1*
X7604Y3284D2*
Y4121D1*
X7839D1*
X11219Y5066D2*
X12284D1*
X12416Y4934D1*
X12299D1*
X11800Y7135D2*
Y7150D1*
X12450Y7800D1*
Y8365D1*
X3433Y2393D2*
D18*
X3957D1*
X4050Y2300D1*
X9371Y3534D2*
D13*
Y3096D1*
X9444Y3024D1*
X12387Y2150D2*
X11800D1*
X11750Y2200D1*
X11265Y7585D2*
Y7700D1*
X11650D1*
X11950Y8000D1*
Y8365D1*
X2815Y3500D2*
D18*
X2650D1*
Y2900D1*
X2615Y2865D1*
X2567D1*
Y2707D2*
X2343D1*
X2150Y2900D1*
X9069Y3024D2*
D13*
Y3521D1*
X9057Y3534D1*
X7927Y8260D2*
D14*
Y8042D1*
D13*
Y7738D1*
X7988D1*
X12387Y2898D2*
X11779D1*
X11750Y2869D1*
X3433Y2550D2*
D18*
X3700D1*
X4000Y2850D1*
X4200D1*
X1317Y1787D2*
D19*
X1713D1*
X2300Y1200D1*
X2600D1*
X4950D1*
D20*
X5302Y1552D1*
Y1750D1*
X2567Y2235D2*
D17*
Y2135D1*
D21*
Y1233D1*
D13*
X2600Y1200D1*
X4869Y2850D2*
Y2450D1*
X4719Y2300D1*
Y2069D1*
X4435Y1785D1*
X2600Y11250D2*
D21*
X1600D1*
X876Y10526D1*
Y9738D2*
D20*
X2588D1*
X2600Y9750D1*
X10631Y6914D2*
D13*
X11264D1*
X11265Y6915D1*
X11219Y6011D2*
X12196D1*
X12300Y6115D1*
X11800Y6465D2*
Y6350D1*
X11195D1*
X11219Y6326D1*
X8427Y3534D2*
Y3131D1*
X8320Y3024D1*
X5350Y10250D2*
X4726D1*
X9371Y6914D2*
Y7406D1*
X9389Y7424D1*
Y7775D1*
X9488Y7874D1*
X9057Y6914D2*
Y7382D1*
X9014Y7424D1*
X1529Y6260D2*
X2665D1*
X2669Y6264D1*
X9319Y1166D2*
D10*
Y1199D1*
X9301Y1181D1*
Y1033D1*
X9744Y591D1*
X10778D1*
X10950Y763D1*
Y4134D1*
X11231D1*
X11219Y4121D1*
X7653Y10369D2*
D14*
X7534D1*
Y9811D1*
X9686Y6914D2*
D13*
Y7371D1*
X9764Y7448D1*
X7997Y10335D2*
X7687D1*
X7653Y10369D1*
X10001Y6914D2*
Y7287D1*
X10138Y7424D1*
X7337Y9811D2*
X7266D1*
X7210Y9867D1*
X7185D1*
X7111Y9941D1*
D14*
Y10369D1*
X7087D1*
X8742Y6914D2*
D13*
Y7322D1*
X8640Y7424D1*
X1529Y6004D2*
X2530D1*
X2669Y5864D1*
X6499Y5378D2*
Y5354D1*
X7074D1*
X7119Y5398D1*
X7164D1*
X7219Y5344D1*
X7801D1*
X7839Y5381D1*
D23*
X8319D1*
X8946Y4754D1*
X7841D1*
X7839Y4751D1*
X11219Y4436D2*
Y4429D1*
X9271D1*
X8946Y4754D1*
X7087Y11038D2*
D13*
Y11040D1*
Y11038D2*
X7653D1*
X7963Y10728D1*
X10274D1*
X11309Y9694D1*
Y9129D1*
X11366D1*
X10157Y7874D2*
Y7992D1*
X10442D1*
X11300Y8850D1*
Y9129D1*
X7087Y11038D2*
Y10900D1*
X6800D1*
X6450Y10550D1*
D19*
Y10050D1*
D24*
X5807Y9407D1*
Y8296D1*
Y5378D1*
D20*
X6499D1*
X5676Y844D2*
D25*
Y4900D1*
X5150D1*
Y8296D2*
D21*
Y8700D1*
X3300D1*
Y9950D1*
X3000Y10250D1*
X2600D1*
Y10750D2*
D20*
Y10250D1*
X5150Y8296D2*
D19*
X5807D1*
X6499Y5378D2*
D20*
X5828D1*
D26*
X5350Y4900D1*
X5150D1*
X11219Y4436D2*
D13*
X11614D1*
X11800Y4250D1*
Y3800D1*
X12350Y3250D1*
X12700D1*
X12900Y3050D1*
Y2550D1*
X12850Y2500D1*
X12411D1*
X12387Y2524D1*
X13450Y2898D2*
X12948D1*
X12900Y2850D1*
Y2600D1*
X12824Y2524D1*
X12387D1*
X3400Y8650D2*
X3350D1*
X3300Y8700D1*
X8319Y2166D2*
D27*
X7234D1*
Y2165D1*
X2567Y2393D2*
D17*
X2354D1*
D13*
X2157D1*
X2100Y2450D1*
X3433Y2235D2*
D18*
Y2133D1*
D28*
X3250Y1950D1*
X3765Y1785D2*
D18*
X3415D1*
X3250Y1950D1*
X1529Y6516D2*
D13*
Y6600D1*
D25*
X2000D1*
X3433Y2707D2*
D17*
X3607D1*
D18*
X3750Y2850D1*
Y3050D1*
X3250Y5050D2*
D20*
X3661D1*
X3811Y4900D1*
X6685Y1085D2*
D13*
Y1115D1*
X6050Y1750D1*
X7234Y2165D2*
Y1950D1*
X6250D1*
X6050Y1750D1*
D27*
X4600Y6000D3*
X3250Y5050D3*
D68*
X7554Y7684D3*
D27*
X6348Y5994D3*
X11263Y3346D3*
D68*
X10579Y3098D3*
D69*
X7234Y2165D3*
D27*
X3250Y1950D3*
X3750Y9200D3*
D68*
X10138Y7424D3*
X9764Y7448D3*
X9014Y7424D3*
X8640D3*
X8637Y8268D3*
X9389Y7424D3*
X9069Y3024D3*
X8694D3*
X8320D3*
X9444D3*
X5350Y10750D3*
Y10250D3*
X2669Y6264D3*
Y5864D3*
X7997Y10335D3*
X7111Y9941D3*
D27*
X6348Y7372D3*
X7480Y8686D3*
X8971Y5659D3*
X9129Y9916D3*
X12750Y6496D3*
X8145Y9350D3*
X10531Y5640D3*
D68*
X2100Y2450D3*
D27*
X2450Y4600D3*
X2461Y5519D3*
X3550Y500D3*
D69*
X640Y11294D3*
D27*
X6348Y4035D3*
X12750Y4577D3*
Y5463D3*
D68*
X3750Y3050D3*
D27*
X5900Y10250D3*
X5150Y7350D3*
X5200Y3350D3*
X2000Y6600D3*
X10531Y9990D3*
D69*
X14813Y11294D3*
Y591D3*
X640D3*
D27*
X9055Y4134D3*
X7997Y3740D3*
X11263Y1286D3*
X6700Y2400D3*
X3750Y11400D3*
X2850Y9300D3*
X7350Y1550D3*
D68*
X2450Y7350D3*
X450Y8300D3*
X3000Y2550D3*
D27*
X5996Y11393D3*
X8169D3*
X10098Y8327D3*
X480Y3745D3*
X8465Y6127D3*
X404Y11307D2*
D20*
X1120D1*
X3232D2*
X4096D1*
X5357D2*
X6651D1*
X8088D2*
X15092D1*
X404Y11058D2*
X870D1*
X3232D2*
X4096D1*
X5564D2*
X6542D1*
X8088D2*
X15092D1*
X1697Y10809D2*
X1967D1*
X3232D2*
X4096D1*
X5732D2*
X6104D1*
X10611D2*
X15089D1*
X1447Y10560D2*
X1967D1*
X3232D2*
X4096D1*
X5681D2*
X6010D1*
X10861D2*
X15089D1*
X1346Y10312D2*
X1967D1*
X3474D2*
X4096D1*
X5728D2*
X6010D1*
X9556D2*
X10272D1*
X11107D2*
X15089D1*
X400Y10063D2*
X478D1*
X3670D2*
X4096D1*
X5681D2*
X5831D1*
X9556D2*
X10522D1*
X11357D2*
X15089D1*
X3689Y9814D2*
X4096D1*
X5357D2*
X5581D1*
X8619D2*
X8745D1*
X11584D2*
X15085D1*
X3689Y9566D2*
X4096D1*
X10857D2*
X11006D1*
X11611D2*
X15085D1*
X396Y9317D2*
X596D1*
X1158D2*
X2913D1*
X3689D2*
X5354D1*
X6349D2*
X6647D1*
X10857D2*
X11006D1*
X13385D2*
X15085D1*
X396Y9068D2*
X2159D1*
X3892D2*
X4635D1*
X6260D2*
X6647D1*
X10455D2*
X10999D1*
X13385D2*
X15085D1*
X396Y8820D2*
X2159D1*
X6260D2*
X6647D1*
X13385D2*
X15081D1*
X392Y8571D2*
X2159D1*
X6260D2*
X6647D1*
X13385D2*
X15081D1*
X392Y8322D2*
X2159D1*
X3892D2*
X4635D1*
X6260D2*
X6647D1*
X9127D2*
X10354D1*
X11189D2*
X11514D1*
X13385D2*
X15081D1*
X1185Y8074D2*
X4635D1*
X6260D2*
X6835D1*
X10943D2*
X11514D1*
X13385D2*
X15081D1*
X2131Y7825D2*
X4635D1*
X6260D2*
X6835D1*
X8623D2*
X9034D1*
X10693D2*
X10831D1*
X14189D2*
X15077D1*
X2131Y7576D2*
X4635D1*
X6260D2*
X6835D1*
X10611D2*
X10831D1*
X14189D2*
X15077D1*
X2131Y7328D2*
X5354D1*
X6260D2*
X6835D1*
X14189D2*
X15077D1*
X2131Y7079D2*
X4635D1*
X6260D2*
X6835D1*
X14189D2*
X15073D1*
X2342Y6830D2*
X4635D1*
X6260D2*
X6835D1*
X14189D2*
X15073D1*
X2865Y6581D2*
X4635D1*
X6260D2*
X7350D1*
X12736D2*
X12876D1*
X14123D2*
X15073D1*
X3049Y6333D2*
X4635D1*
X6260D2*
X7350D1*
X8326D2*
X10733D1*
X12736D2*
X12814D1*
X14189D2*
X15073D1*
X3006Y6084D2*
X4635D1*
X6260D2*
X7350D1*
X8326D2*
X10733D1*
X12736D2*
X12845D1*
X14154D2*
X15069D1*
X3053Y5835D2*
X4635D1*
X7033D2*
X7350D1*
X8326D2*
X10733D1*
X12736D2*
X13014D1*
X13986D2*
X15069D1*
X2033Y5587D2*
X2413D1*
X2924D2*
X5354D1*
X8580D2*
X10733D1*
X11705D2*
X12878D1*
X14123D2*
X15069D1*
X2033Y5338D2*
X2960D1*
X4349D2*
X4612D1*
X8826D2*
X10733D1*
X12732D2*
X12811D1*
X14189D2*
X15069D1*
X2131Y5089D2*
X2835D1*
X4349D2*
X4612D1*
X9076D2*
X10733D1*
X12732D2*
X12846D1*
X14154D2*
X15065D1*
X2131Y4841D2*
X2893D1*
X4349D2*
X4612D1*
X9326D2*
X10733D1*
X12732D2*
X13010D1*
X13990D2*
X15065D1*
X2131Y4592D2*
X3276D1*
X4349D2*
X4612D1*
X12732D2*
X12881D1*
X14119D2*
X15065D1*
X2131Y4343D2*
X5264D1*
X8326D2*
X8893D1*
X12732D2*
X12811D1*
X14189D2*
X15065D1*
X2131Y4095D2*
X5264D1*
X6088D2*
X6753D1*
X8326D2*
X10663D1*
X12732D2*
X12842D1*
X14424D2*
X15061D1*
X373Y3846D2*
X1714D1*
X3939D2*
X5264D1*
X6088D2*
X6596D1*
X12732D2*
X13003D1*
X14537D2*
X15061D1*
X373Y3597D2*
X1714D1*
X3939D2*
X5264D1*
X6088D2*
X6499D1*
X7959D2*
X8081D1*
X11236D2*
X11585D1*
X12420D2*
X13862D1*
X14537D2*
X15061D1*
X373Y3349D2*
X1714D1*
X3978D2*
X5264D1*
X6088D2*
X6499D1*
X7959D2*
X8081D1*
X11236D2*
X11835D1*
X13017D2*
X13862D1*
X14537D2*
X15061D1*
X369Y3100D2*
X1714D1*
X6088D2*
X6499D1*
X11236D2*
X11314D1*
X14537D2*
X15057D1*
X369Y2851D2*
X1714D1*
X6088D2*
X6499D1*
X11236D2*
X11314D1*
X14537D2*
X15057D1*
X369Y2602D2*
X1714D1*
X6088D2*
X6952D1*
X7517D2*
X7932D1*
X11236D2*
X11314D1*
X14537D2*
X15057D1*
X369Y2354D2*
X1729D1*
X6088D2*
X6737D1*
X11236D2*
X11314D1*
X14537D2*
X15053D1*
X365Y2105D2*
X917D1*
X11236D2*
X11314D1*
X14537D2*
X15053D1*
X365Y1856D2*
X803D1*
X11236D2*
X11314D1*
X14537D2*
X15053D1*
X365Y1608D2*
X835D1*
X6611D2*
X7725D1*
X9701D2*
X9936D1*
X11236D2*
X12155D1*
X14471D2*
X15053D1*
X365Y1359D2*
X956D1*
X7119D2*
X7725D1*
X11236D2*
X12155D1*
X14228D2*
X15049D1*
X361Y1110D2*
X811D1*
X6088D2*
X6249D1*
X7119D2*
X7725D1*
X11236D2*
X12155D1*
X13892D2*
X15049D1*
X361Y862D2*
X819D1*
X1814D2*
X2038D1*
X6088D2*
X6249D1*
X7119D2*
X7725D1*
X11236D2*
X15049D1*
X361Y613D2*
X987D1*
X1646D2*
X2065D1*
X3135D2*
X5311D1*
X6041D2*
X6249D1*
X7119D2*
X7725D1*
X8912D2*
X9167D1*
X11189D2*
X15049D1*
X361Y364D2*
X2065D1*
X3135D2*
X6249D1*
X7119D2*
X9589D1*
X10935D2*
X15046D1*
X9531Y10057D2*
X10431D1*
Y9815D1*
X10794D1*
X10159Y10450D1*
X9528D1*
X9531Y10106D1*
Y10056D1*
X9415Y9944D1*
Y9960D1*
X8592Y9961D1*
X8593Y9797D1*
X8749Y9799D1*
X8770Y9804D1*
Y9888D1*
X9415Y9894D1*
Y9944D1*
X10431Y9193D2*
Y9070D1*
X10831Y9067D1*
Y8774D1*
X11022Y8965D1*
X11026Y9176D1*
X11031Y9578D1*
X10831Y9779D1*
Y9192D1*
X10432D1*
X10431Y8445D2*
Y8373D1*
X10502Y8446D1*
X10428Y8444D1*
X10306Y8371D1*
X9591D1*
X9590Y8360D1*
X9140D1*
X9025Y8281D1*
X8998Y8278D1*
X8976Y8145D1*
X8914Y8037D1*
X8819Y7957D1*
X8703Y7913D1*
X8598Y7912D1*
X8599Y7778D1*
X8690Y7781D1*
X8824Y7731D1*
X8940Y7777D1*
X9061Y7781D1*
X9059Y8284D1*
X9918Y8280D1*
X10341Y8284D1*
X4786Y9070D2*
X5376D1*
X5378Y9407D1*
X5396Y9530D1*
X5442Y9633D1*
X5503Y9711D1*
X6036Y10244D1*
X6037Y10550D1*
X6056Y10673D1*
X6110Y10785D1*
X6196Y10876D1*
X6304Y10937D1*
X6426Y10962D1*
X6469Y10958D1*
X6607Y11099D1*
X6677Y11234D1*
Y11468D1*
X7496Y11464D1*
X7743Y11468D1*
X8062D1*
Y11019D1*
X8088Y11006D1*
X10274D1*
X10398Y10976D1*
X10368Y10990D1*
X10471Y10925D1*
X11506Y9890D1*
X11572Y9781D1*
X11560Y9813D1*
X11587Y9694D1*
X11590Y9464D1*
X13360D1*
Y7936D1*
X13129D1*
X13134Y7926D1*
X14166D1*
Y6674D1*
X14042D1*
X14090Y6598D1*
X14138Y6483D1*
X14166Y6300D1*
X14153Y6176D1*
X14117Y6057D1*
X14057Y5947D1*
X13977Y5851D1*
X13913Y5800D1*
X14020Y5701D1*
X14090Y5598D1*
X14138Y5483D1*
X14166Y5300D1*
X14153Y5176D1*
X14117Y5057D1*
X14057Y4947D1*
X13977Y4851D1*
X13913Y4800D1*
X14020Y4701D1*
X14090Y4598D1*
X14138Y4483D1*
X14164Y4328D1*
X14421Y4071D1*
X14490Y3968D1*
X14513Y3850D1*
Y1800D1*
X14488Y1678D1*
X14421Y1579D1*
X14071Y1229D1*
X13953Y1155D1*
X13867Y1083D1*
Y942D1*
X12929Y946D1*
X12844Y942D1*
X12181D1*
Y1819D1*
X12160Y1770D1*
X11340D1*
X11344Y2630D1*
X11340Y3190D1*
Y3299D1*
X11907D1*
X11603Y3603D1*
X11537Y3712D1*
X11548Y3684D1*
X11432Y3798D1*
X11209D1*
X11212Y3009D1*
Y763D1*
X11180Y636D1*
X11135Y578D1*
X10963Y405D1*
X10850Y339D1*
X10778Y328D1*
X9744D1*
X9617Y361D1*
X9559Y405D1*
X9363Y601D1*
X9211Y609D1*
X9092Y646D1*
X8984Y708D1*
X8885Y802D1*
X8886Y599D1*
X7752D1*
Y1733D1*
X7951D1*
X7819Y1773D1*
X7557D1*
X7516Y1742D1*
X7404Y1686D1*
X7283Y1659D1*
X7158Y1663D1*
X7109Y1672D1*
X6519D1*
X6680Y1513D1*
X7094Y1514D1*
X7091Y655D1*
X7094Y570D1*
Y314D1*
X15072Y315D1*
X15118Y11508D1*
X5333Y11539D1*
Y11110D1*
X5400Y11107D1*
X5519Y11069D1*
X5617Y10992D1*
X5683Y10887D1*
X5711Y10750D1*
X5689Y10627D1*
X5627Y10520D1*
X5607Y10502D1*
X5683Y10387D1*
X5711Y10250D1*
X5689Y10127D1*
X5627Y10020D1*
X5533Y9939D1*
X5416Y9895D1*
X5334D1*
X5333Y9419D1*
X4119D1*
X4123Y10581D1*
X4119Y10669D1*
X4123Y11081D1*
X4119Y11069D1*
X4118Y11543D1*
X3208Y11546D1*
X3203Y10919D1*
X3207Y10831D1*
Y10546D1*
X3257Y10507D1*
X3557Y10207D1*
X3628Y10105D1*
X3663Y9965D1*
Y9157D1*
X3869Y9158D1*
Y9061D1*
X4663Y9063D1*
X4661Y9070D1*
X4786D1*
X7010Y5828D2*
X7377D1*
X7376Y6639D1*
X6859Y6640D1*
Y8168D1*
X7066D1*
X7065Y8274D1*
X6673Y8271D1*
X6677Y8815D1*
X6673Y8915D1*
X6677Y9209D1*
X6673Y9308D1*
X6677Y9603D1*
X6673Y9666D1*
X6237Y9230D1*
Y5846D1*
X7007Y5847D1*
Y5827D1*
X12708Y4694D2*
X12709Y3835D1*
X12158D1*
X12463Y3530D1*
X12700Y3528D1*
X12824Y3498D1*
X12793Y3512D1*
X12897Y3447D1*
X13099Y3243D1*
X13145Y3229D1*
X13880D1*
X13876Y2567D1*
X13880Y2455D1*
X13879Y2193D1*
X13887Y2175D1*
Y3718D1*
X13768Y3717D1*
X13648Y3683D1*
X13461Y3674D1*
X13321Y3689D1*
X13202Y3729D1*
X13094Y3792D1*
X13001Y3874D1*
X12926Y3974D1*
X12872Y4087D1*
X12841Y4207D1*
X12835Y4332D1*
X12854Y4456D1*
X12897Y4573D1*
X12962Y4679D1*
X13047Y4770D1*
X13088Y4800D1*
X13001Y4874D1*
X12926Y4974D1*
X12872Y5087D1*
X12841Y5207D1*
X12835Y5332D1*
X12854Y5456D1*
X12897Y5573D1*
X12962Y5679D1*
X13047Y5770D1*
X13088Y5800D1*
X13001Y5874D1*
X12926Y5974D1*
X12872Y6087D1*
X12841Y6207D1*
X12835Y6332D1*
X12854Y6456D1*
X12897Y6573D1*
X12960Y6676D1*
X12834Y6674D1*
Y7342D1*
X12710Y7214D1*
X12706Y6355D1*
X12710Y5795D1*
Y5686D1*
X11890D1*
Y5737D1*
X11684Y5733D1*
X11678Y5688D1*
X11682Y5604D1*
X11678Y5373D1*
X11682Y5346D1*
X11887Y5344D1*
X11889Y5363D1*
X12709D1*
X12705Y4504D1*
X6842Y4161D2*
X6064D1*
Y2170D1*
X6131Y2201D1*
X6250Y2228D1*
X6730D1*
X6749Y2316D1*
X6800Y2430D1*
X6878Y2528D1*
X6977Y2603D1*
X7091Y2653D1*
X7214Y2673D1*
X7338Y2663D1*
X7456Y2623D1*
X7558Y2557D1*
X7910Y2559D1*
X8034Y2657D1*
X8144Y2709D1*
X8048Y2787D1*
X7983Y2894D1*
X7959Y3016D1*
X7978Y3139D1*
X8037Y3248D1*
X8104Y3307D1*
Y3801D1*
X7884Y3798D1*
X7898Y3753D1*
X7935D1*
Y2815D1*
X7273Y2819D1*
X7222Y2815D1*
X6525D1*
Y3753D1*
X6622D1*
Y3825D1*
X6652Y3949D1*
X6638Y3918D1*
X6703Y4021D1*
X6844Y4162D1*
X3108Y788D2*
X3104Y731D1*
X3108Y646D1*
Y314D1*
X6276D1*
X6275Y1136D1*
X6077Y1330D1*
X6064Y1275D1*
Y844D1*
X6044Y722D1*
X6017Y670D1*
Y425D1*
X5335D1*
Y663D1*
X5299Y751D1*
X5288Y844D1*
Y966D1*
X5222Y890D1*
X5118Y822D1*
X4997Y790D1*
X3950Y787D1*
X3110D1*
X3108Y721D1*
X3424Y5444D2*
X4324D1*
Y4356D1*
X3299D1*
Y4657D1*
X3242D1*
X3120Y4679D1*
X3010Y4738D1*
X2925Y4829D1*
X2872Y4942D1*
X2857Y5065D1*
X2882Y5187D1*
X2943Y5296D1*
X3035Y5379D1*
X3149Y5430D1*
X3273Y5442D1*
X3300Y5436D1*
X3299Y5444D1*
X3424D1*
X9582Y1665D2*
X9628Y1642D1*
X9724Y1563D1*
X9816Y1433D1*
X9934Y1583D1*
X10052Y1665D1*
X9945Y1740D1*
X9861Y1832D1*
X9819Y1899D1*
X9767Y1818D1*
X9680Y1728D1*
X9585Y1666D1*
X1366Y10506D2*
X1353Y10402D1*
X1307Y10286D1*
X1233Y10186D1*
X1169Y10134D1*
X1251Y10076D1*
X1997Y10081D1*
X1993Y10581D1*
Y10884D1*
X1752Y10887D1*
X1368Y10504D1*
X11540Y8018D2*
Y8710D1*
X11408Y8565D1*
X10635Y7794D1*
X10587Y7659D1*
Y7464D1*
X10497D1*
X10490Y7374D1*
X10859Y7377D1*
X10856Y7780D1*
X10859Y8014D1*
X11539D1*
X8302Y4442D2*
X8298Y4428D1*
X8321Y4442D1*
X8302D1*
X8298Y4113D1*
X8302Y3995D1*
X8750Y3993D1*
X8859Y3997D1*
X9380Y3993D1*
X9488Y3997D1*
X10009Y3993D1*
X10118Y3997D1*
X10639Y3993D1*
X10687Y3997D1*
X10688Y4115D1*
X9271Y4118D1*
X9149Y4142D1*
X9051Y4209D1*
X8816Y4444D1*
X8321Y4442D1*
X8302Y4440D2*
Y4069D1*
X8419Y3997D1*
X9065Y3993D1*
X9173Y3997D1*
X9694Y3993D1*
X9803Y3997D1*
X10324Y3993D1*
X10433Y3997D1*
X10683D1*
X10756Y4740D2*
X10760Y4759D1*
X10756Y5074D1*
X10758Y5373D1*
X10756Y6019D1*
Y6378D1*
X10639Y6451D1*
X9993Y6455D1*
X9884Y6451D1*
X9363Y6455D1*
X9255Y6451D1*
X8734Y6455D1*
X8625Y6451D1*
X8302Y6450D1*
X8298Y6003D1*
X8302Y5919D1*
Y5693D1*
X8440Y5668D1*
X8539Y5601D1*
X9401Y4739D1*
X10756Y4743D1*
X10760Y5389D1*
X10756Y5408D1*
X10760Y6334D1*
X10756Y6452D1*
X10308Y6455D1*
X10199Y6451D1*
X9678Y6455D1*
X9569Y6451D1*
X9048Y6455D1*
X8940Y6451D1*
X8419Y6455D1*
X8300Y6451D1*
X8302Y5709D1*
X1740Y2474D2*
X1744Y3330D1*
X1740Y3415D1*
Y3999D1*
X2560D1*
X2562Y3910D1*
X3245Y3906D1*
X3180Y3910D1*
X3914D1*
X3919Y3369D1*
X4017Y3292D1*
X4036Y3263D1*
X4630Y3260D1*
X5289D1*
X5287Y4356D1*
X4638D1*
Y5444D1*
X5235D1*
X5379Y5584D1*
X5378Y5630D1*
X4661D1*
Y7178D1*
X5378D1*
X5377Y7522D1*
X4661D1*
Y8338D1*
X3873Y8337D1*
X3869Y8142D1*
X2931Y8146D1*
X2846Y8142D1*
X2183D1*
Y9158D1*
X2935D1*
X2937Y9423D1*
X2695Y9419D1*
X2588Y9400D1*
X1233Y9398D1*
X1136Y9320D1*
X1023Y9268D1*
X900Y9246D1*
X776Y9255D1*
X658Y9296D1*
X554Y9365D1*
X470Y9457D1*
X413Y9568D1*
X385Y9689D1*
X388Y9814D1*
X423Y9934D1*
X487Y10041D1*
X578Y10131D1*
X470Y10245D1*
X413Y10355D1*
X385Y10477D1*
X388Y10601D1*
X423Y10721D1*
X487Y10829D1*
X575Y10916D1*
X683Y10979D1*
X803Y11013D1*
X853Y11014D1*
X1361Y11522D1*
X1368Y11552D1*
X381Y11555D1*
X367Y8145D1*
X1161Y8146D1*
Y8008D1*
X2106D1*
Y6978D1*
X2145Y6965D1*
X2252Y6902D1*
X2333Y6808D1*
X2382Y6693D1*
X2393Y6600D1*
X2383Y6535D1*
X2431Y6538D1*
X2480Y6571D1*
X2595Y6617D1*
X2719Y6621D1*
X2838Y6582D1*
X2936Y6506D1*
X3002Y6401D1*
X3030Y6264D1*
X3008Y6141D1*
X2968Y6070D1*
X3002Y6002D1*
X3030Y5864D1*
X3008Y5742D1*
X2946Y5634D1*
X2852Y5554D1*
X2735Y5510D1*
X2611Y5509D1*
X2493Y5550D1*
X2397Y5628D1*
X2339Y5725D1*
X2010Y5726D1*
X2004Y5712D1*
X2008Y5659D1*
Y5200D1*
X1515D1*
X1525Y5095D1*
X2106D1*
Y3999D1*
X1161Y3996D1*
Y3862D1*
X350D1*
X335Y317D1*
X1882Y314D1*
X2089D1*
X2092Y533D1*
Y843D1*
X2008Y908D1*
X1795Y1121D1*
X1810Y1000D1*
X1800Y901D1*
X1770Y805D1*
X1722Y718D1*
X1657Y642D1*
X1578Y581D1*
X1488Y538D1*
X1391Y513D1*
X1292Y508D1*
X1193Y523D1*
X1099Y558D1*
X1015Y611D1*
X942Y680D1*
X886Y762D1*
X846Y853D1*
X827Y951D1*
Y1051D1*
X847Y1149D1*
X887Y1240D1*
X944Y1322D1*
X1021Y1394D1*
X912Y1507D1*
X854Y1617D1*
X827Y1739D1*
X830Y1863D1*
X865Y1983D1*
X928Y2090D1*
X1017Y2178D1*
X1124Y2241D1*
X1244Y2275D1*
X1369Y2278D1*
X1490Y2249D1*
X1583Y2200D1*
X1713D1*
X1861Y2173D1*
X1969Y2111D1*
X2206Y1878D1*
X2204Y2104D1*
X2166Y2095D1*
X2042Y2094D1*
X1950Y2126D1*
X1828Y2213D1*
X1764Y2320D1*
X1739Y2442D1*
X1744Y2469D1*
X9923Y10056D2*
D29*
Y9588D1*
X5150Y7178D2*
Y5631D1*
X4662Y6404D2*
X5150D1*
X12299Y4265D2*
Y3836D1*
Y4265D2*
X12708D1*
X6499Y4630D2*
Y4161D1*
X7269Y7069D2*
Y6640D1*
X6860Y7069D2*
X7269D1*
X9180Y9887D2*
Y9458D1*
X9101Y10371D2*
Y9961D1*
Y10371D2*
X9530D1*
X12650Y1450D2*
Y942D1*
X12182Y1450D2*
X12650D1*
X3485Y3909D2*
Y3500D1*
X3914D1*
X2092Y452D2*
X3108D1*
X10319Y2166D2*
D23*
X9918Y1765D1*
X1317Y1000D2*
D29*
Y507D1*
X825Y1000D2*
X1810D1*
X12950Y9464D2*
Y9035D1*
X13359D1*
X12450Y9464D2*
Y9035D1*
X11950Y9464D2*
Y9035D1*
X7839Y5696D2*
X8301D1*
X10756Y5381D2*
X11681D1*
X6674Y9527D2*
X7054D1*
X8605Y9799D2*
Y9527D1*
X2150Y3998D2*
Y3569D1*
X1741D2*
X2150D1*
X6275Y415D2*
X7094D1*
X4726Y9750D2*
Y9419D1*
X4120Y9750D2*
X5332D1*
X4120Y11250D2*
X5332D1*
X13500Y7926D2*
Y7300D1*
X12835D2*
X14165D1*
X1529Y5492D2*
Y5201D1*
Y5492D2*
X2007D1*
X1578Y8008D2*
Y7460D1*
X2106D1*
X1578Y5094D2*
Y4000D1*
Y4547D2*
X2106D1*
X574Y8145D2*
D30*
Y7579D1*
Y4429D2*
Y3862D1*
X10500Y9815D2*
D29*
Y9193D1*
Y9504D2*
X10830D1*
X13450Y2524D2*
X13879D1*
X7230Y3284D2*
Y2815D1*
X2652Y9158D2*
Y8142D1*
X2184Y8650D2*
X2652D1*
D31*
X9923Y9588D3*
Y8840D3*
D32*
X5150Y8296D3*
Y6404D3*
D33*
X7119Y4729D3*
Y5398D3*
X12299Y4265D3*
Y4934D3*
D31*
X6499Y4630D3*
Y5378D3*
D33*
X7269Y7069D3*
Y7738D3*
X7988Y7069D3*
Y7738D3*
X9180Y8789D3*
Y9458D3*
D34*
X8432Y10371D3*
X9101D3*
D35*
X13398Y1450D3*
X12650D3*
D33*
X11750Y2869D3*
Y2200D3*
D34*
X3485Y3500D3*
X2815D3*
D35*
X3400Y8650D3*
X2652D3*
D31*
X2600Y1200D3*
Y452D3*
D36*
X5150Y4900D3*
X3811D3*
D34*
X4050Y2300D3*
X4719D3*
X4200Y2850D3*
X4869D3*
D38*
X8319Y1166D3*
D39*
X9319D3*
X10319D3*
Y2166D3*
X9319D3*
X8319D3*
D41*
X1317Y1787D3*
Y1000D3*
X876Y9738D3*
Y10526D3*
D33*
X12950Y9035D3*
Y8365D3*
X12450Y9035D3*
Y8365D3*
X11950Y9035D3*
Y8365D3*
D43*
X7839Y6326D3*
Y6011D3*
Y5696D3*
Y5381D3*
Y5066D3*
Y4751D3*
Y4436D3*
Y4121D3*
D44*
X8427Y3534D3*
X8742D3*
X9057D3*
X9371D3*
X9686D3*
X10001D3*
X10316D3*
X10631D3*
D43*
X11219Y4121D3*
Y4436D3*
Y4751D3*
Y5066D3*
Y5381D3*
Y5696D3*
Y6011D3*
Y6326D3*
D44*
X10631Y6914D3*
X10316D3*
X10001D3*
X9686D3*
X9371D3*
X9057D3*
X8742D3*
X8427D3*
D46*
X7054Y9527D3*
X7053Y9331D3*
Y9134D3*
Y8937D3*
Y8740D3*
Y8543D3*
D47*
X7337Y8260D3*
X7534D3*
X7731D3*
X7927D3*
X8124D3*
X8321D3*
D46*
X8605Y8543D3*
Y8740D3*
Y8937D3*
Y9134D3*
Y9331D3*
Y9527D3*
D47*
X8321Y9811D3*
X8124D3*
X7927D3*
X7731D3*
X7534D3*
X7337D3*
D48*
X7829Y9035D3*
D50*
X6050Y1750D3*
X5302D3*
X5676Y844D3*
D33*
X7087Y11038D3*
Y10369D3*
X7653Y11038D3*
Y10369D3*
D34*
X10157Y7874D3*
X9488D3*
D33*
X12300Y6785D3*
Y6115D3*
X11800Y7135D3*
Y6465D3*
X11265Y7585D3*
Y6915D3*
X2150Y2900D3*
Y3569D3*
D34*
X3765Y1785D3*
X4435D3*
D33*
X6685Y415D3*
Y1085D3*
D51*
X2600Y11250D3*
Y10750D3*
Y10250D3*
Y9750D3*
X4726D3*
Y10250D3*
Y10750D3*
Y11250D3*
D52*
X13500Y7300D3*
D53*
Y6300D3*
Y5300D3*
Y4300D3*
D55*
X1529Y6516D3*
Y6260D3*
Y6004D3*
Y5748D3*
Y5492D3*
D56*
X1578Y7460D3*
Y4547D3*
D57*
X574Y7579D3*
Y4429D3*
D58*
Y6476D3*
Y5531D3*
D60*
X10500Y9504D3*
Y8756D3*
X11366Y9129D3*
D61*
X13450Y2150D3*
Y2524D3*
Y2898D3*
X12387D3*
Y2524D3*
Y2150D3*
D63*
X3433Y2235D3*
Y2393D3*
Y2550D3*
Y2707D3*
Y2865D3*
X2567D3*
Y2707D3*
Y2550D3*
Y2393D3*
Y2235D3*
D64*
X3000Y2550D3*
D65*
X6856Y3284D3*
D66*
X7230D3*
D65*
X7604D3*
M02*
