G04 DipTrace 2.4.0.2*
%INTopSilk.gbr*%
%MOIN*%
%ADD10C,0.0098*%
%ADD37C,0.0354*%
%ADD40C,0.005*%
%ADD42C,0.006*%
%ADD45O,0.0162X0.0154*%
%ADD49C,0.0154*%
%ADD54C,0.0157*%
%ADD59C,0.0188*%
%ADD62C,0.0039*%
%ADD132C,0.0046*%
%ADD138C,0.0062*%
%FSLAX44Y44*%
G04*
G70*
G90*
G75*
G01*
%LNTopSilk*%
%LPD*%
X9667Y10001D2*
D10*
X10179D1*
X6449Y6051D2*
X5583D1*
X6449D2*
Y8216D1*
X6016Y8649D2*
X6449Y8216D1*
X6016Y8649D2*
X5583D1*
X4717Y6051D2*
X3851D1*
Y8216D1*
X4284Y8649D2*
X3851Y8216D1*
X4717Y8649D2*
X4284D1*
X4441Y8413D2*
Y7901D1*
X4185Y8157D2*
X4697D1*
X4441Y6759D2*
Y6248D1*
X6755Y4216D2*
X6243D1*
X13812Y1706D2*
Y1194D1*
X3814Y8906D2*
Y8394D1*
X2344Y1614D2*
X2856D1*
X5418Y4400D2*
X3543D1*
X5418Y5400D2*
X3543D1*
X4731Y4587D2*
Y5212D1*
X7823Y2650D2*
X10815D1*
Y682D1*
X7823D1*
Y2650D1*
D37*
X7488Y977D3*
X1986Y2575D2*
D40*
Y1590D1*
X2183D1*
Y1197D1*
X1986D1*
Y213D1*
X215D1*
Y2575D1*
X1986D1*
X206Y8951D2*
Y9935D1*
X9D1*
Y10329D1*
X206D1*
Y11313D1*
X1978D1*
Y8951D1*
X206D1*
X10909Y6604D2*
D42*
Y3844D1*
X8149D1*
Y6464D1*
X8289Y6604D2*
X10909D1*
X8289D2*
X8149Y6464D1*
X8308Y6304D2*
G02X8308Y6304I141J0D01*
G01*
D45*
X6689Y9525D3*
D49*
X6358Y1897D3*
X6266Y1396D2*
D10*
X5085D1*
Y1199D1*
X6266D1*
Y1396D1*
X3151Y11484D2*
Y9516D1*
X4175Y11484D2*
Y9516D1*
X3151D2*
X4175D1*
X3466Y11484D2*
X3151D1*
X3860D2*
X4175D1*
X3466D2*
G03X3860Y11484I197J0D01*
G01*
X14189Y7906D2*
X12902D1*
Y3694D1*
X14189D1*
Y7906D1*
X15402Y14265D2*
X12902D1*
Y-2665D1*
X15402D1*
Y14265D1*
X21Y4507D2*
X-274D1*
Y7598D2*
Y4409D1*
Y7598D2*
X-510D1*
D54*
X2088Y6516D3*
X21Y7500D2*
D10*
X-274D1*
Y4409D2*
X-510D1*
Y7598D2*
Y4409D1*
X11183Y9755D2*
X10683D1*
Y8505D1*
X11183D1*
Y9755D1*
D59*
X10902Y9536D3*
D49*
X13616Y1881D3*
X13076Y1933D2*
D10*
Y3115D1*
X12761Y1933D2*
Y3115D1*
X13076D2*
X12761D1*
X13076Y1933D2*
X12761D1*
D49*
X3736Y2222D3*
X3472Y3022D2*
D62*
X2528D1*
X3472Y2078D2*
X2528D1*
X6580Y3618D2*
D10*
X7880D1*
Y2949D1*
X6580D1*
Y3618D1*
X9580Y10424D2*
D132*
X9609Y10439D1*
X9652Y10482D1*
Y10180D1*
X9831Y10482D2*
X9788Y10467D1*
X9759Y10424D1*
X9744Y10353D1*
Y10309D1*
X9759Y10238D1*
X9788Y10195D1*
X9831Y10180D1*
X9859D1*
X9902Y10195D1*
X9931Y10238D1*
X9945Y10309D1*
Y10353D1*
X9931Y10424D1*
X9902Y10467D1*
X9859Y10482D1*
X9831D1*
X9931Y10424D2*
X9759Y10238D1*
X10038Y10381D2*
Y10238D1*
X10052Y10195D1*
X10081Y10180D1*
X10124D1*
X10153Y10195D1*
X10196Y10238D1*
Y10381D2*
Y10180D1*
X10475Y10482D2*
X10289D1*
Y10180D1*
Y10338D2*
X10403D1*
X3956Y7388D2*
X3984Y7403D1*
X4027Y7446D1*
Y7145D1*
X4206Y7446D2*
X4163Y7431D1*
X4134Y7388D1*
X4120Y7317D1*
Y7274D1*
X4134Y7202D1*
X4163Y7159D1*
X4206Y7145D1*
X4235D1*
X4278Y7159D1*
X4306Y7202D1*
X4321Y7274D1*
Y7317D1*
X4306Y7388D1*
X4278Y7431D1*
X4235Y7446D1*
X4206D1*
X4306Y7388D2*
X4134Y7202D1*
X4500Y7446D2*
X4457Y7431D1*
X4428Y7388D1*
X4414Y7317D1*
Y7274D1*
X4428Y7202D1*
X4457Y7159D1*
X4500Y7145D1*
X4528D1*
X4572Y7159D1*
X4600Y7202D1*
X4615Y7274D1*
Y7317D1*
X4600Y7388D1*
X4572Y7431D1*
X4528Y7446D1*
X4500D1*
X4600Y7388D2*
X4428Y7202D1*
X4707Y7346D2*
Y7202D1*
X4722Y7159D1*
X4750Y7145D1*
X4794D1*
X4822Y7159D1*
X4865Y7202D1*
Y7346D2*
Y7145D1*
X5144Y7446D2*
X4958D1*
Y7145D1*
Y7302D2*
X5073D1*
X6540Y4469D2*
X6526Y4498D1*
X6483Y4541D1*
X6784D1*
X6483Y4720D2*
X6497Y4677D1*
X6540Y4648D1*
X6612Y4634D1*
X6655D1*
X6727Y4648D1*
X6770Y4677D1*
X6784Y4720D1*
Y4749D1*
X6770Y4792D1*
X6727Y4820D1*
X6655Y4835D1*
X6612D1*
X6540Y4820D1*
X6497Y4792D1*
X6483Y4749D1*
Y4720D1*
X6540Y4820D2*
X6727Y4648D1*
X6483Y5014D2*
X6497Y4971D1*
X6540Y4942D1*
X6612Y4927D1*
X6655D1*
X6727Y4942D1*
X6770Y4971D1*
X6784Y5014D1*
Y5042D1*
X6770Y5085D1*
X6727Y5114D1*
X6655Y5128D1*
X6612D1*
X6540Y5114D1*
X6497Y5085D1*
X6483Y5042D1*
Y5014D1*
X6540Y5114D2*
X6727Y4942D1*
X6583Y5221D2*
X6784D1*
X6641D2*
X6598Y5264D1*
X6583Y5293D1*
Y5336D1*
X6598Y5365D1*
X6641Y5379D1*
X6784D1*
X6483Y5658D2*
Y5471D1*
X6784D1*
X6626D2*
Y5586D1*
X11720Y3855D2*
X11706Y3884D1*
X11663Y3927D1*
X11964D1*
X11663Y4106D2*
X11677Y4062D1*
X11720Y4034D1*
X11792Y4019D1*
X11835D1*
X11907Y4034D1*
X11950Y4062D1*
X11964Y4106D1*
Y4134D1*
X11950Y4177D1*
X11907Y4206D1*
X11835Y4220D1*
X11792D1*
X11720Y4206D1*
X11677Y4177D1*
X11663Y4134D1*
Y4106D1*
X11720Y4206D2*
X11907Y4034D1*
X11663Y4399D2*
X11677Y4356D1*
X11720Y4327D1*
X11792Y4313D1*
X11835D1*
X11907Y4327D1*
X11950Y4356D1*
X11964Y4399D1*
Y4428D1*
X11950Y4471D1*
X11907Y4499D1*
X11835Y4514D1*
X11792D1*
X11720Y4499D1*
X11677Y4471D1*
X11663Y4428D1*
Y4399D1*
X11720Y4499D2*
X11907Y4327D1*
X11763Y4607D2*
X11964D1*
X11821D2*
X11778Y4650D1*
X11763Y4678D1*
Y4721D1*
X11778Y4750D1*
X11821Y4764D1*
X11964D1*
X11663Y5044D2*
Y4857D1*
X11964D1*
X11806D2*
Y4972D1*
X5822Y4477D2*
X5807Y4506D1*
X5765Y4549D1*
X6066D1*
X5765Y4728D2*
X5779Y4685D1*
X5822Y4656D1*
X5894Y4642D1*
X5937D1*
X6008Y4656D1*
X6052Y4685D1*
X6066Y4728D1*
Y4757D1*
X6052Y4800D1*
X6008Y4828D1*
X5937Y4843D1*
X5894D1*
X5822Y4828D1*
X5779Y4800D1*
X5765Y4757D1*
Y4728D1*
X5822Y4828D2*
X6008Y4656D1*
X5865Y4935D2*
X6008D1*
X6051Y4950D1*
X6066Y4978D1*
Y5022D1*
X6051Y5050D1*
X6008Y5093D1*
X5865D2*
X6066D1*
X5764Y5373D2*
Y5186D1*
X6066D1*
X5908D2*
Y5301D1*
X6790Y6816D2*
X6776Y6845D1*
X6733Y6888D1*
X7034D1*
X6733Y7067D2*
X6747Y7024D1*
X6790Y6995D1*
X6862Y6981D1*
X6905D1*
X6977Y6995D1*
X7020Y7024D1*
X7034Y7067D1*
Y7095D1*
X7020Y7138D1*
X6977Y7167D1*
X6905Y7182D1*
X6862D1*
X6790Y7167D1*
X6747Y7138D1*
X6733Y7095D1*
Y7067D1*
X6790Y7167D2*
X6977Y6995D1*
X6833Y7274D2*
X7034D1*
X6891D2*
X6848Y7317D1*
X6833Y7346D1*
Y7389D1*
X6848Y7418D1*
X6891Y7432D1*
X7034D1*
X6733Y7711D2*
Y7525D1*
X7034D1*
X6876D2*
Y7639D1*
X7510Y6709D2*
X7495Y6738D1*
X7452Y6781D1*
X7753D1*
X7452Y6960D2*
X7467Y6917D1*
X7510Y6888D1*
X7581Y6874D1*
X7624D1*
X7696Y6888D1*
X7739Y6917D1*
X7753Y6960D1*
Y6989D1*
X7739Y7032D1*
X7696Y7060D1*
X7624Y7075D1*
X7581D1*
X7510Y7060D1*
X7467Y7032D1*
X7452Y6989D1*
Y6960D1*
X7510Y7060D2*
X7696Y6888D1*
X7452Y7254D2*
X7467Y7211D1*
X7510Y7182D1*
X7581Y7167D1*
X7624D1*
X7696Y7182D1*
X7739Y7211D1*
X7753Y7254D1*
Y7282D1*
X7739Y7325D1*
X7696Y7354D1*
X7624Y7368D1*
X7581D1*
X7510Y7354D1*
X7467Y7325D1*
X7452Y7282D1*
Y7254D1*
X7510Y7354D2*
X7696Y7182D1*
X7552Y7461D2*
X7753D1*
X7610D2*
X7567Y7504D1*
X7552Y7533D1*
Y7576D1*
X7567Y7605D1*
X7610Y7619D1*
X7753D1*
X7452Y7898D2*
Y7711D1*
X7753D1*
X7596D2*
Y7826D1*
X8988Y8405D2*
X9017Y8420D1*
X9060Y8463D1*
Y8162D1*
X9239Y8463D2*
X9196Y8448D1*
X9167Y8405D1*
X9153Y8334D1*
Y8291D1*
X9167Y8219D1*
X9196Y8176D1*
X9239Y8162D1*
X9268D1*
X9311Y8176D1*
X9339Y8219D1*
X9354Y8291D1*
Y8334D1*
X9339Y8405D1*
X9311Y8448D1*
X9268Y8463D1*
X9239D1*
X9339Y8405D2*
X9167Y8219D1*
X9533Y8463D2*
X9490Y8448D1*
X9461Y8405D1*
X9447Y8334D1*
Y8291D1*
X9461Y8219D1*
X9490Y8176D1*
X9533Y8162D1*
X9561D1*
X9604Y8176D1*
X9633Y8219D1*
X9648Y8291D1*
Y8334D1*
X9633Y8405D1*
X9604Y8448D1*
X9561Y8463D1*
X9533D1*
X9633Y8405D2*
X9461Y8219D1*
X9740Y8363D2*
Y8162D1*
Y8305D2*
X9783Y8348D1*
X9812Y8363D1*
X9855D1*
X9884Y8348D1*
X9898Y8305D1*
Y8162D1*
X10177Y8463D2*
X9991D1*
Y8162D1*
Y8319D2*
X10105D1*
X8208Y10935D2*
Y10949D1*
X8223Y10978D1*
X8237Y10992D1*
X8266Y11007D1*
X8323D1*
X8352Y10992D1*
X8366Y10978D1*
X8380Y10949D1*
Y10921D1*
X8366Y10892D1*
X8337Y10849D1*
X8194Y10705D1*
X8395D1*
X8502Y10734D2*
X8487Y10720D1*
X8502Y10705D1*
X8516Y10720D1*
X8502Y10734D1*
X8623Y10935D2*
Y10949D1*
X8638Y10978D1*
X8652Y10992D1*
X8681Y11007D1*
X8738D1*
X8767Y10992D1*
X8781Y10978D1*
X8795Y10949D1*
Y10921D1*
X8781Y10892D1*
X8752Y10849D1*
X8609Y10705D1*
X8810D1*
X8902Y10906D2*
Y10705D1*
Y10849D2*
X8945Y10892D1*
X8974Y10906D1*
X9017D1*
X9046Y10892D1*
X9060Y10849D1*
Y10705D1*
X9340Y11007D2*
X9153D1*
Y10705D1*
Y10863D2*
X9268D1*
X12905Y1077D2*
X12934Y1092D1*
X12977Y1134D1*
Y833D1*
X13156Y1134D2*
X13113Y1120D1*
X13084Y1077D1*
X13070Y1005D1*
Y962D1*
X13084Y891D1*
X13113Y847D1*
X13156Y833D1*
X13185D1*
X13228Y847D1*
X13256Y891D1*
X13271Y962D1*
Y1005D1*
X13256Y1077D1*
X13228Y1120D1*
X13185Y1134D1*
X13156D1*
X13256Y1077D2*
X13084Y891D1*
X13363Y1034D2*
Y891D1*
X13378Y848D1*
X13406Y833D1*
X13450D1*
X13478Y848D1*
X13521Y891D1*
Y1034D2*
Y833D1*
X13801Y1135D2*
X13614D1*
Y833D1*
Y991D2*
X13729D1*
X11572Y1434D2*
X11557Y1463D1*
X11514Y1506D1*
X11815D1*
X11614Y1598D2*
X11758D1*
X11801Y1613D1*
X11815Y1641D1*
Y1685D1*
X11801Y1713D1*
X11758Y1756D1*
X11614D2*
X11815D1*
X11514Y2036D2*
Y1849D1*
X11815D1*
X11657D2*
Y1964D1*
X2678Y4086D2*
X2635Y4072D1*
X2606Y4028D1*
X2592Y3957D1*
Y3914D1*
X2606Y3842D1*
X2635Y3799D1*
X2678Y3785D1*
X2706D1*
X2749Y3799D1*
X2778Y3842D1*
X2793Y3914D1*
Y3957D1*
X2778Y4028D1*
X2749Y4072D1*
X2706Y4086D1*
X2678D1*
X2778Y4028D2*
X2606Y3842D1*
X2899Y3814D2*
X2885Y3799D1*
X2899Y3785D1*
X2914Y3799D1*
X2899Y3814D1*
X3007Y4028D2*
X3036Y4043D1*
X3079Y4086D1*
Y3785D1*
X3171Y3986D2*
Y3842D1*
X3186Y3799D1*
X3214Y3785D1*
X3257D1*
X3286Y3799D1*
X3329Y3842D1*
Y3986D2*
Y3785D1*
X3608Y4086D2*
X3422D1*
Y3785D1*
Y3943D2*
X3536D1*
X3023Y207D2*
X3008Y236D1*
X2966Y279D1*
X3267D1*
X2966Y458D2*
X2980Y415D1*
X3023Y386D1*
X3095Y372D1*
X3138D1*
X3209Y386D1*
X3253Y415D1*
X3267Y458D1*
Y486D1*
X3253Y530D1*
X3209Y558D1*
X3138Y573D1*
X3095D1*
X3023Y558D1*
X2980Y530D1*
X2966Y486D1*
Y458D1*
X3023Y558D2*
X3209Y386D1*
X3066Y665D2*
X3209D1*
X3252Y680D1*
X3267Y708D1*
Y752D1*
X3252Y780D1*
X3209Y823D1*
X3066D2*
X3267D1*
X2965Y1103D2*
Y916D1*
X3267D1*
X3109D2*
Y1031D1*
X7093Y11342D2*
Y11643D1*
X6949Y11442D1*
X7165D1*
X7271Y11370D2*
X7257Y11356D1*
X7271Y11342D1*
X7286Y11356D1*
X7271Y11370D1*
X7436Y11342D2*
X7580Y11643D1*
X7379D1*
X7672D2*
Y11342D1*
X7816Y11543D2*
X7672Y11399D1*
X7730Y11456D2*
X7830Y11342D1*
X6818Y10407D2*
X6517D1*
X6717Y10263D1*
Y10479D1*
X6789Y10585D2*
X6804Y10571D1*
X6818Y10585D1*
X6804Y10600D1*
X6789Y10585D1*
X6818Y10750D2*
X6517Y10894D1*
Y10693D1*
X6516Y10986D2*
X6818D1*
X6617Y11130D2*
X6760Y10986D1*
X6703Y11044D2*
X6818Y11144D1*
X8595Y7963D2*
X8624Y7977D1*
X8667Y8020D1*
Y7719D1*
X8846Y8020D2*
X8803Y8006D1*
X8774Y7963D1*
X8759Y7891D1*
Y7848D1*
X8774Y7776D1*
X8803Y7733D1*
X8846Y7719D1*
X8874D1*
X8917Y7733D1*
X8946Y7776D1*
X8960Y7848D1*
Y7891D1*
X8946Y7963D1*
X8917Y8006D1*
X8874Y8020D1*
X8846D1*
X8946Y7963D2*
X8774Y7776D1*
X9053Y8020D2*
Y7719D1*
X9197Y7920D2*
X9053Y7776D1*
X9110Y7834D2*
X9211Y7719D1*
X11263Y6517D2*
X11248Y6546D1*
X11205Y6589D1*
X11506D1*
X11478Y6696D2*
X11492Y6681D1*
X11506Y6696D1*
X11492Y6710D1*
X11478Y6696D1*
X11205Y6874D2*
X11220Y6832D1*
X11248Y6817D1*
X11277D1*
X11305Y6832D1*
X11320Y6860D1*
X11334Y6918D1*
X11349Y6961D1*
X11377Y6989D1*
X11406Y7003D1*
X11449D1*
X11478Y6989D1*
X11492Y6975D1*
X11506Y6932D1*
Y6874D1*
X11492Y6832D1*
X11478Y6817D1*
X11449Y6803D1*
X11406D1*
X11377Y6817D1*
X11349Y6846D1*
X11334Y6889D1*
X11320Y6946D1*
X11305Y6975D1*
X11277Y6989D1*
X11248D1*
X11220Y6975D1*
X11205Y6932D1*
Y6874D1*
Y7096D2*
X11506D1*
X11205Y7297D2*
X11406Y7096D1*
X11334Y7168D2*
X11506Y7297D1*
X11583Y5752D2*
X11612Y5766D1*
X11655Y5809D1*
Y5508D1*
X11762Y5537D2*
X11748Y5522D1*
X11762Y5508D1*
X11776Y5522D1*
X11762Y5537D1*
X11941Y5809D2*
X11898Y5795D1*
X11883Y5766D1*
Y5737D1*
X11898Y5709D1*
X11926Y5694D1*
X11984Y5680D1*
X12027Y5666D1*
X12055Y5637D1*
X12070Y5608D1*
Y5565D1*
X12055Y5537D1*
X12041Y5522D1*
X11998Y5508D1*
X11941D1*
X11898Y5522D1*
X11883Y5537D1*
X11869Y5565D1*
Y5608D1*
X11883Y5637D1*
X11912Y5666D1*
X11955Y5680D1*
X12012Y5694D1*
X12041Y5709D1*
X12055Y5737D1*
Y5766D1*
X12041Y5795D1*
X11998Y5809D1*
X11941D1*
X12162D2*
Y5508D1*
X12363Y5809D2*
X12162Y5608D1*
X12234Y5680D2*
X12363Y5508D1*
X10687Y6860D2*
X10672Y6889D1*
X10629Y6932D1*
X10931D1*
X10902Y7039D2*
X10916Y7024D1*
X10931Y7039D1*
X10916Y7053D1*
X10902Y7039D1*
X10629Y7218D2*
X10644Y7175D1*
X10672Y7160D1*
X10701D1*
X10730Y7175D1*
X10744Y7203D1*
X10758Y7261D1*
X10773Y7304D1*
X10802Y7332D1*
X10830Y7347D1*
X10873D1*
X10902Y7332D1*
X10916Y7318D1*
X10931Y7275D1*
Y7218D1*
X10916Y7175D1*
X10902Y7160D1*
X10873Y7146D1*
X10830D1*
X10802Y7160D1*
X10773Y7189D1*
X10758Y7232D1*
X10744Y7289D1*
X10730Y7318D1*
X10701Y7332D1*
X10672D1*
X10644Y7318D1*
X10629Y7275D1*
Y7218D1*
Y7439D2*
X10931D1*
X10629Y7640D2*
X10830Y7439D1*
X10758Y7511D2*
X10931Y7640D1*
X1915Y2838D2*
X1614D1*
X1815Y2694D1*
Y2909D1*
X1886Y3016D2*
X1901Y3002D1*
X1915Y3016D1*
X1901Y3031D1*
X1886Y3016D1*
X1915Y3181D2*
X1614Y3325D1*
Y3124D1*
Y3417D2*
X1915D1*
X1714Y3561D2*
X1858Y3417D1*
X1801Y3475D2*
X1915Y3575D1*
X3781Y1413D2*
X3810Y1428D1*
X3853Y1471D1*
Y1169D1*
X3960Y1198D2*
X3946Y1184D1*
X3960Y1169D1*
X3975Y1184D1*
X3960Y1198D1*
X4082Y1399D2*
Y1413D1*
X4096Y1442D1*
X4110Y1456D1*
X4139Y1471D1*
X4197D1*
X4225Y1456D1*
X4239Y1442D1*
X4254Y1413D1*
Y1385D1*
X4239Y1356D1*
X4211Y1313D1*
X4067Y1169D1*
X4268D1*
X4361Y1471D2*
Y1169D1*
X4505Y1370D2*
X4361Y1227D1*
X4418Y1284D2*
X4519Y1169D1*
X7056Y192D2*
X7042Y221D1*
X6999Y264D1*
X7300D1*
X6999Y443D2*
X7013Y400D1*
X7056Y371D1*
X7128Y357D1*
X7171D1*
X7243Y371D1*
X7286Y400D1*
X7300Y443D1*
Y471D1*
X7286Y514D1*
X7243Y543D1*
X7171Y558D1*
X7128D1*
X7056Y543D1*
X7013Y514D1*
X6999Y471D1*
Y443D1*
X7056Y543D2*
X7243Y371D1*
X6998Y650D2*
X7300D1*
X7099Y794D2*
X7243Y650D1*
X7185Y708D2*
X7300Y808D1*
X6476Y4000D2*
X6504Y4015D1*
X6547Y4057D1*
Y3756D1*
X6812Y4015D2*
X6798Y4043D1*
X6755Y4057D1*
X6726D1*
X6683Y4043D1*
X6654Y4000D1*
X6640Y3928D1*
Y3857D1*
X6654Y3799D1*
X6683Y3771D1*
X6726Y3756D1*
X6741D1*
X6783Y3771D1*
X6812Y3799D1*
X6827Y3842D1*
Y3857D1*
X6812Y3900D1*
X6783Y3928D1*
X6741Y3943D1*
X6726D1*
X6683Y3928D1*
X6654Y3900D1*
X6640Y3857D1*
X7440Y3756D2*
Y4058D1*
X7325Y3756D1*
X7211Y4058D1*
Y3756D1*
X7533Y4058D2*
Y3756D1*
X7734Y4058D2*
Y3756D1*
X7533Y3914D2*
X7734D1*
X7826Y3957D2*
X7984D1*
X7826Y3756D1*
X7984D1*
X13775Y3457D2*
D138*
X13373Y3304D1*
X13775Y3151D1*
X13680Y2740D2*
X13718Y2759D1*
X13756Y2798D1*
X13775Y2836D1*
Y2912D1*
X13756Y2951D1*
X13718Y2989D1*
X13680Y3008D1*
X13622Y3027D1*
X13526D1*
X13469Y3008D1*
X13431Y2989D1*
X13393Y2951D1*
X13373Y2912D1*
Y2836D1*
X13393Y2798D1*
X13431Y2759D1*
X13469Y2740D1*
X13680Y2330D2*
X13718Y2349D1*
X13756Y2387D1*
X13775Y2425D1*
Y2502D1*
X13756Y2540D1*
X13718Y2578D1*
X13680Y2598D1*
X13622Y2617D1*
X13526D1*
X13469Y2598D1*
X13431Y2578D1*
X13393Y2540D1*
X13373Y2502D1*
Y2425D1*
X13393Y2387D1*
X13431Y2349D1*
X13469Y2330D1*
X13640Y8941D2*
X13678Y8960D1*
X13717Y8998D1*
X13736Y9036D1*
Y9113D1*
X13717Y9151D1*
X13678Y9189D1*
X13640Y9209D1*
X13583Y9228D1*
X13487D1*
X13430Y9209D1*
X13391Y9189D1*
X13353Y9151D1*
X13334Y9113D1*
Y9036D1*
X13353Y8998D1*
X13391Y8960D1*
X13430Y8941D1*
X13487D1*
Y9036D1*
X13736Y8549D2*
X13334D1*
X13736Y8817D1*
X13334D1*
X13736Y8426D2*
X13334D1*
Y8292D1*
X13353Y8234D1*
X13391Y8196D1*
X13430Y8177D1*
X13487Y8158D1*
X13583D1*
X13640Y8177D1*
X13678Y8196D1*
X13717Y8234D1*
X13736Y8292D1*
Y8426D1*
M02*
