G04 DipTrace 2.4.0.2*
%INTopAssy.gbr*%
%MOIN*%
%FSLAX44Y44*%
G04*
G70*
G90*
G75*
G01*
%LNTopAssy*%
%LPD*%
G36*
X7739Y6236D2*
X8129D1*
Y6416D1*
X7739D1*
Y6236D1*
G37*
G36*
Y5921D2*
X8129D1*
Y6101D1*
X7739D1*
Y5921D1*
G37*
G36*
Y5606D2*
X8129D1*
Y5786D1*
X7739D1*
Y5606D1*
G37*
G36*
Y5291D2*
X8129D1*
Y5471D1*
X7739D1*
Y5291D1*
G37*
G36*
Y4976D2*
X8129D1*
Y5157D1*
X7739D1*
Y4976D1*
G37*
G36*
Y4661D2*
X8129D1*
Y4842D1*
X7739D1*
Y4661D1*
G37*
G36*
Y4346D2*
X8129D1*
Y4526D1*
X7739D1*
Y4346D1*
G37*
G36*
Y4031D2*
X8129D1*
Y4211D1*
X7739D1*
Y4031D1*
G37*
G36*
X8337Y3434D2*
X8517D1*
Y3823D1*
X8337D1*
Y3434D1*
G37*
G36*
X8652D2*
X8832D1*
Y3823D1*
X8652D1*
Y3434D1*
G37*
G36*
X8966D2*
X9147D1*
Y3823D1*
X8966D1*
Y3434D1*
G37*
G36*
X9281D2*
X9462D1*
Y3823D1*
X9281D1*
Y3434D1*
G37*
G36*
X9596D2*
X9777D1*
Y3823D1*
X9596D1*
Y3434D1*
G37*
G36*
X9911D2*
X10092D1*
Y3823D1*
X9911D1*
Y3434D1*
G37*
G36*
X10226D2*
X10406D1*
Y3823D1*
X10226D1*
Y3434D1*
G37*
G36*
X10541D2*
X10721D1*
Y3823D1*
X10541D1*
Y3434D1*
G37*
G36*
X10929Y4031D2*
X11319D1*
Y4211D1*
X10929D1*
Y4031D1*
G37*
G36*
Y4346D2*
X11319D1*
Y4526D1*
X10929D1*
Y4346D1*
G37*
G36*
Y4661D2*
X11319D1*
Y4842D1*
X10929D1*
Y4661D1*
G37*
G36*
Y4976D2*
X11319D1*
Y5157D1*
X10929D1*
Y4976D1*
G37*
G36*
Y5291D2*
X11319D1*
Y5471D1*
X10929D1*
Y5291D1*
G37*
G36*
Y5606D2*
X11319D1*
Y5786D1*
X10929D1*
Y5606D1*
G37*
G36*
Y5921D2*
X11319D1*
Y6101D1*
X10929D1*
Y5921D1*
G37*
G36*
Y6236D2*
X11319D1*
Y6416D1*
X10929D1*
Y6236D1*
G37*
G36*
X10541Y6624D2*
X10721D1*
Y7014D1*
X10541D1*
Y6624D1*
G37*
G36*
X10226D2*
X10406D1*
Y7014D1*
X10226D1*
Y6624D1*
G37*
G36*
X9911D2*
X10092D1*
Y7014D1*
X9911D1*
Y6624D1*
G37*
G36*
X9596D2*
X9777D1*
Y7014D1*
X9596D1*
Y6624D1*
G37*
G36*
X9281D2*
X9462D1*
Y7014D1*
X9281D1*
Y6624D1*
G37*
G36*
X8966D2*
X9147D1*
Y7014D1*
X8966D1*
Y6624D1*
G37*
G36*
X8652D2*
X8832D1*
Y7014D1*
X8652D1*
Y6624D1*
G37*
G36*
X8337D2*
X8517D1*
Y7014D1*
X8337D1*
Y6624D1*
G37*
M02*
