G04 DipTrace 2.4.0.2*
%INBottom.gbr*%
%MOIN*%
%ADD14C,0.013*%
%ADD19C,0.03*%
%ADD20C,0.007*%
%ADD28C,0.064*%
%ADD29C,0.056*%
%ADD40R,0.0906X0.0827*%
%ADD41O,0.0906X0.0827*%
%FSLAX44Y44*%
G04*
G70*
G90*
G75*
G01*
%LNBottom*%
%LPD*%
X-1937Y2691D2*
D14*
Y1897D1*
X-1660Y1620D1*
X-1230D1*
X-1220Y1610D1*
X3390Y-1000D2*
X2390D1*
X2120Y-1270D1*
Y-2850D1*
X1870Y-3100D1*
X-140D1*
X-250Y-2990D1*
Y-2780D1*
X-240Y-2770D1*
X140D2*
X1630D1*
X1820Y-2580D1*
Y-890D1*
X2700Y-10D1*
X3380D1*
X3390Y0D1*
X-710Y-2770D2*
Y-650D1*
X290Y350D1*
Y2500D1*
X-330Y3120D1*
X-5360D1*
X-5370Y3110D1*
X500Y-4620D2*
X490D1*
X-20Y-4110D1*
X-890D1*
X-990Y-4010D1*
Y-3130D1*
X-1140Y-2980D1*
Y-510D1*
X-110Y520D1*
Y1610D1*
X-5440Y210D2*
Y390D1*
X-5290Y540D1*
X-750D1*
X-480Y810D1*
Y1610D1*
X-850D2*
Y1240D1*
X-1170Y920D1*
X-5410D1*
X-5770Y560D1*
Y-60D1*
X-5670Y-160D1*
X-5450D1*
X3390Y-2000D2*
X3840D1*
X4180Y-1660D1*
Y3740D1*
X3870Y4050D1*
X2020D1*
X1990Y4020D1*
X-2910Y-800D2*
D19*
X-5970D1*
X-6420Y-350D1*
Y1540D1*
X-6030Y1930D1*
X-4640D1*
X-5050Y20D2*
D14*
X-2430D1*
X-1500Y-910D1*
Y-3620D1*
D19*
X-1937Y2691D3*
X-1220Y1610D3*
X-5450Y-160D3*
X-5440Y210D3*
X-850Y1610D3*
X-480D3*
X-110D3*
X140Y-2770D3*
X-240D3*
X-710D3*
X-5370Y3110D3*
X-5050Y20D3*
X-2910Y-800D3*
X1990Y4020D3*
X-4640Y1930D3*
X-7252Y4680D2*
D20*
X-7440Y4492D1*
X-7054Y4680D2*
X-7440Y4294D1*
X-6856Y4680D2*
X-7440Y4096D1*
X-6658Y4680D2*
X-6921Y4417D1*
X-7138Y4200D2*
X-7440Y3898D1*
X-6460Y4680D2*
X-6680Y4460D1*
X-7180Y3960D2*
X-7440Y3700D1*
X-6262Y4680D2*
X-6526Y4416D1*
X-7136Y3806D2*
X-7440Y3502D1*
X-6064Y4680D2*
X-6410Y4334D1*
X-7054Y3690D2*
X-7440Y3304D1*
X-5866Y4680D2*
X-6124Y4422D1*
X-6939Y3607D2*
X-7440Y3106D1*
X-5668Y4680D2*
X-5888Y4460D1*
X-6788Y3561D2*
X-7440Y2908D1*
X-5470Y4680D2*
X-5736Y4414D1*
X-6555Y3595D2*
X-7440Y2710D1*
X-5272Y4680D2*
X-5621Y4331D1*
X-6264Y3688D2*
X-7440Y2512D1*
X-5074Y4680D2*
X-5538Y4216D1*
X-6149Y3605D2*
X-7440Y2314D1*
X-4876Y4680D2*
X-5493Y4063D1*
X-5996Y3560D2*
X-7440Y2116D1*
X-4678Y4680D2*
X-5532Y3826D1*
X-5759Y3599D2*
X-7440Y1918D1*
X-4480Y4680D2*
X-7440Y1720D1*
X-4282Y4680D2*
X-7440Y1522D1*
X-4085Y4680D2*
X-5333Y3431D1*
X-5691Y3073D2*
X-7440Y1325D1*
X-3887Y4680D2*
X-5188Y3379D1*
X-5638Y2928D2*
X-7440Y1127D1*
X-3689Y4680D2*
X-5010Y3358D1*
X-5536Y2832D2*
X-6095Y2273D1*
X-6723Y1646D2*
X-7440Y929D1*
X-3491Y4680D2*
X-4812Y3358D1*
X-5382Y2788D2*
X-5877Y2293D1*
X-6743Y1428D2*
X-7440Y731D1*
X-3293Y4680D2*
X-4614Y3358D1*
X-5090Y2882D2*
X-5679Y2293D1*
X-6743Y1230D2*
X-7440Y533D1*
X-3095Y4680D2*
X-4416Y3358D1*
X-4892Y2882D2*
X-5481Y2293D1*
X-6743Y1032D2*
X-7440Y335D1*
X-2897Y4680D2*
X-4218Y3358D1*
X-4694Y2882D2*
X-5283Y2293D1*
X-6743Y834D2*
X-7440Y137D1*
X-2699Y4680D2*
X-4020Y3358D1*
X-4496Y2882D2*
X-5085Y2293D1*
X-5731Y1647D2*
X-6098Y1280D1*
X-6743Y636D2*
X-7440Y-61D1*
X-2501Y4680D2*
X-3822Y3358D1*
X-4298Y2882D2*
X-4887Y2293D1*
X-5533Y1647D2*
X-6098Y1082D1*
X-6743Y438D2*
X-7440Y-259D1*
X-2303Y4680D2*
X-3624Y3358D1*
X-4100Y2882D2*
X-4689Y2293D1*
X-5335Y1647D2*
X-6098Y884D1*
X-6743Y240D2*
X-7440Y-457D1*
X-2105Y4680D2*
X-3427Y3358D1*
X-3902Y2882D2*
X-4528Y2256D1*
X-5137Y1647D2*
X-6098Y686D1*
X-6743Y42D2*
X-7440Y-655D1*
X-1907Y4680D2*
X-3229Y3358D1*
X-3704Y2882D2*
X-4419Y2168D1*
X-4939Y1647D2*
X-5430Y1156D1*
X-6006Y580D2*
X-6098Y488D1*
X-6743Y-156D2*
X-7440Y-853D1*
X-1709Y4680D2*
X-3031Y3358D1*
X-3506Y2882D2*
X-4339Y2049D1*
X-4760Y1629D2*
X-5231Y1157D1*
X-6007Y381D2*
X-6098Y290D1*
X-6743Y-354D2*
X-7440Y-1051D1*
X-1511Y4680D2*
X-2833Y3358D1*
X-3308Y2882D2*
X-4325Y1865D1*
X-4575Y1615D2*
X-5033Y1157D1*
X-6007Y183D2*
X-6098Y92D1*
X-6702Y-511D2*
X-7440Y-1249D1*
X-1313Y4680D2*
X-2635Y3358D1*
X-3110Y2882D2*
X-4835Y1157D1*
X-6007Y-15D2*
X-6098Y-106D1*
X-6610Y-618D2*
X-7440Y-1447D1*
X-1115Y4680D2*
X-2437Y3358D1*
X-2912Y2882D2*
X-4637Y1157D1*
X-5976Y-182D2*
X-6053Y-259D1*
X-6511Y-717D2*
X-7440Y-1645D1*
X-917Y4680D2*
X-2239Y3358D1*
X-2714Y2882D2*
X-4439Y1157D1*
X-5883Y-286D2*
X-5954Y-358D1*
X-6412Y-816D2*
X-7440Y-1843D1*
X-719Y4680D2*
X-2041Y3358D1*
X-2516Y2882D2*
X-4241Y1157D1*
X-5774Y-375D2*
X-5855Y-457D1*
X-6313Y-915D2*
X-7440Y-2041D1*
X-521Y4680D2*
X-1843Y3358D1*
X-2318Y2882D2*
X-4043Y1157D1*
X-5631Y-430D2*
X-5678Y-478D1*
X-6214Y-1014D2*
X-7440Y-2239D1*
X-323Y4680D2*
X-1645Y3358D1*
X-2253Y2749D2*
X-3845Y1157D1*
X-4700Y302D2*
X-4745Y257D1*
X-6099Y-1097D2*
X-7440Y-2437D1*
X-125Y4680D2*
X-1447Y3358D1*
X-2237Y2568D2*
X-3647Y1157D1*
X-4502Y302D2*
X-4547Y257D1*
X-5103Y-299D2*
X-5282Y-478D1*
X-5927Y-1122D2*
X-7440Y-2635D1*
X73Y4680D2*
X-1249Y3358D1*
X-2174Y2432D2*
X-3449Y1157D1*
X-4304Y302D2*
X-4349Y257D1*
X-4824Y-217D2*
X-5084Y-478D1*
X-5729Y-1122D2*
X-7440Y-2833D1*
X271Y4680D2*
X-1051Y3358D1*
X-1526Y2882D2*
X-1627Y2782D1*
X-2174Y2234D2*
X-3251Y1157D1*
X-4106Y302D2*
X-4151Y257D1*
X-4626Y-217D2*
X-4886Y-478D1*
X-5531Y-1122D2*
X-7440Y-3031D1*
X469Y4680D2*
X-853Y3358D1*
X-1328Y2882D2*
X-1641Y2570D1*
X-2174Y2036D2*
X-3053Y1157D1*
X-3908Y302D2*
X-3953Y257D1*
X-4428Y-217D2*
X-4688Y-478D1*
X-5333Y-1122D2*
X-7440Y-3229D1*
X667Y4680D2*
X-655Y3358D1*
X-1130Y2882D2*
X-1700Y2313D1*
X-2170Y1843D2*
X-2855Y1157D1*
X-3710Y302D2*
X-3755Y257D1*
X-4230Y-217D2*
X-4490Y-478D1*
X-5135Y-1122D2*
X-7440Y-3427D1*
X865Y4680D2*
X-457Y3358D1*
X-932Y2882D2*
X-1700Y2115D1*
X-2097Y1718D2*
X-2657Y1157D1*
X-3512Y302D2*
X-3557Y257D1*
X-4032Y-217D2*
X-4292Y-478D1*
X-4937Y-1122D2*
X-7440Y-3625D1*
X1063Y4680D2*
X-266Y3350D1*
X-734Y2882D2*
X-1659Y1958D1*
X-1998Y1619D2*
X-2459Y1157D1*
X-3314Y302D2*
X-3359Y257D1*
X-3834Y-217D2*
X-4094Y-478D1*
X-4739Y-1122D2*
X-6447Y-2830D1*
X-6740Y-3123D2*
X-7440Y-3823D1*
X1261Y4680D2*
X-145Y3273D1*
X-536Y2882D2*
X-1560Y1859D1*
X-1899Y1520D2*
X-2261Y1157D1*
X-3116Y302D2*
X-3161Y257D1*
X-3636Y-217D2*
X-3896Y-478D1*
X-4541Y-1122D2*
X-6232Y-2813D1*
X-6757Y-3338D2*
X-7440Y-4021D1*
X1459Y4680D2*
X-46Y3174D1*
X-385Y2836D2*
X-1300Y1921D1*
X-1797Y1424D2*
X-2063Y1157D1*
X-2918Y302D2*
X-2963Y257D1*
X-3438Y-217D2*
X-3698Y-478D1*
X-4343Y-1122D2*
X-6085Y-2865D1*
X-6705Y-3484D2*
X-7440Y-4219D1*
X1657Y4680D2*
X53Y3075D1*
X-286Y2737D2*
X-1109Y1914D1*
X-1640Y1383D2*
X-1865Y1157D1*
X-2720Y302D2*
X-2765Y257D1*
X-3240Y-217D2*
X-3500Y-478D1*
X-4145Y-1122D2*
X-5975Y-2952D1*
X-6617Y-3595D2*
X-7440Y-4417D1*
X1855Y4680D2*
X152Y2976D1*
X-187Y2638D2*
X-896Y1929D1*
X-1446Y1378D2*
X-1667Y1157D1*
X-2522Y302D2*
X-2567Y257D1*
X-3042Y-217D2*
X-3302Y-478D1*
X-3947Y-1122D2*
X-5897Y-3072D1*
X-6498Y-3674D2*
X-7440Y-4615D1*
X2053Y4680D2*
X251Y2877D1*
X-88Y2539D2*
X-720Y1907D1*
X-1323Y1303D2*
X-1469Y1157D1*
X-2324Y302D2*
X-2375Y252D1*
X-2844Y-217D2*
X-3104Y-478D1*
X-3749Y-1122D2*
X-5858Y-3232D1*
X-6338Y-3712D2*
X-7440Y-4813D1*
X2251Y4680D2*
X1899Y4328D1*
X1682Y4110D2*
X350Y2778D1*
X11Y2440D2*
X-497Y1932D1*
X-1125Y1304D2*
X-1271Y1157D1*
X-2126Y302D2*
X-2250Y178D1*
X-2646Y-217D2*
X-2906Y-478D1*
X-3551Y-1122D2*
X-5935Y-3506D1*
X-6064Y-3636D2*
X-7348Y-4920D1*
X2449Y4680D2*
X2096Y4326D1*
X1683Y3914D2*
X449Y2680D1*
X52Y2283D2*
X-332Y1898D1*
X-1928Y302D2*
X-2151Y79D1*
X-2490Y-259D2*
X-2749Y-518D1*
X-3353Y-1122D2*
X-7150Y-4920D1*
X2647Y4680D2*
X2255Y4287D1*
X1759Y3792D2*
X522Y2555D1*
X52Y2085D2*
X-100Y1932D1*
X-1730Y302D2*
X-2052Y-20D1*
X-2391Y-358D2*
X-2645Y-613D1*
X-3155Y-1122D2*
X-6952Y-4920D1*
X2845Y4680D2*
X2453Y4287D1*
X1881Y3715D2*
X528Y2362D1*
X-1532Y302D2*
X-1953Y-119D1*
X-2292Y-457D2*
X-2590Y-755D1*
X-2957Y-1122D2*
X-6754Y-4920D1*
X3043Y4680D2*
X2651Y4287D1*
X2073Y3710D2*
X528Y2164D1*
X-717Y919D2*
X-859Y778D1*
X-1334Y302D2*
X-1854Y-218D1*
X-2193Y-556D2*
X-6556Y-4920D1*
X3241Y4680D2*
X2849Y4287D1*
X2374Y3813D2*
X528Y1966D1*
X-1136Y302D2*
X-1755Y-317D1*
X-2094Y-655D2*
X-6358Y-4920D1*
X3439Y4680D2*
X3047Y4287D1*
X2572Y3813D2*
X528Y1768D1*
X-938Y302D2*
X-1656Y-416D1*
X-1995Y-754D2*
X-6160Y-4920D1*
X3637Y4680D2*
X3245Y4287D1*
X2770Y3813D2*
X528Y1570D1*
X-740Y303D2*
X-1557Y-515D1*
X-1896Y-853D2*
X-5962Y-4920D1*
X3835Y4680D2*
X3443Y4287D1*
X2968Y3813D2*
X528Y1372D1*
X-1378Y-533D2*
X-1458Y-614D1*
X-1797Y-952D2*
X-5764Y-4920D1*
X4033Y4680D2*
X3641Y4287D1*
X3166Y3813D2*
X528Y1174D1*
X-1737Y-1091D2*
X-5566Y-4920D1*
X4231Y4680D2*
X3839Y4287D1*
X3364Y3813D2*
X528Y976D1*
X-1737Y-1289D2*
X-5369Y-4920D1*
X4429Y4680D2*
X4000Y4251D1*
X3562Y3813D2*
X528Y778D1*
X-1737Y-1487D2*
X-5171Y-4920D1*
X4627Y4680D2*
X4103Y4156D1*
X3760Y3813D2*
X528Y580D1*
X-1737Y-1685D2*
X-4973Y-4920D1*
X4825Y4680D2*
X4202Y4057D1*
X3863Y3718D2*
X528Y383D1*
X-1737Y-1883D2*
X-4775Y-4920D1*
X5023Y4680D2*
X4301Y3958D1*
X3943Y3599D2*
X-472Y-815D1*
X-1737Y-2081D2*
X-4577Y-4920D1*
X5160Y4618D2*
X4392Y3851D1*
X3942Y3401D2*
X-472Y-1014D1*
X-1737Y-2279D2*
X-4379Y-4920D1*
X5160Y4420D2*
X4418Y3678D1*
X3942Y3203D2*
X-472Y-1212D1*
X-1737Y-2477D2*
X-4181Y-4920D1*
X5160Y4222D2*
X4418Y3480D1*
X3942Y3005D2*
X-472Y-1410D1*
X-1737Y-2675D2*
X-3983Y-4920D1*
X5160Y4024D2*
X4418Y3283D1*
X3942Y2807D2*
X-472Y-1608D1*
X-1737Y-2873D2*
X-3785Y-4920D1*
X5160Y3826D2*
X4418Y3085D1*
X3942Y2609D2*
X-472Y-1806D1*
X-1737Y-3071D2*
X-3587Y-4920D1*
X5160Y3628D2*
X4418Y2887D1*
X3942Y2411D2*
X-472Y-2004D1*
X-1979Y-3510D2*
X-3389Y-4920D1*
X5160Y3430D2*
X4418Y2689D1*
X3942Y2213D2*
X-472Y-2202D1*
X-1984Y-3713D2*
X-3191Y-4920D1*
X5160Y3232D2*
X4418Y2491D1*
X3942Y2015D2*
X-472Y-2400D1*
X-1932Y-3860D2*
X-2993Y-4920D1*
X5160Y3034D2*
X4418Y2293D1*
X3942Y1817D2*
X-340Y-2465D1*
X-1847Y-3973D2*
X-2795Y-4920D1*
X5160Y2836D2*
X4418Y2095D1*
X3942Y1619D2*
X-139Y-2462D1*
X-1733Y-4056D2*
X-2597Y-4920D1*
X5160Y2638D2*
X4418Y1897D1*
X3942Y1421D2*
X2749Y228D1*
X1583Y-939D2*
X63Y-2458D1*
X-487Y-3008D2*
X-623Y-3144D1*
X-1584Y-4106D2*
X-1623Y-4144D1*
X-1976Y-4497D2*
X-2399Y-4920D1*
X5160Y2440D2*
X4418Y1699D1*
X3942Y1223D2*
X3303Y583D1*
X1583Y-1137D2*
X253Y-2466D1*
X-1376Y-4095D2*
X-1415Y-4134D1*
X-1986Y-4705D2*
X-2201Y-4920D1*
X5160Y2242D2*
X4418Y1501D1*
X3942Y1025D2*
X3500Y583D1*
X1583Y-1335D2*
X385Y-2533D1*
X-1202Y-4120D2*
X-1267Y-4184D1*
X-1936Y-4853D2*
X-2003Y-4920D1*
X5160Y2044D2*
X4418Y1303D1*
X3942Y827D2*
X3657Y542D1*
X2834Y-281D2*
X2348Y-767D1*
X1583Y-1533D2*
X583Y-2533D1*
X-1112Y-4227D2*
X-1153Y-4268D1*
X5160Y1846D2*
X4418Y1105D1*
X3942Y629D2*
X3783Y470D1*
X2917Y-396D2*
X2551Y-762D1*
X1583Y-1731D2*
X781Y-2533D1*
X-24Y-3338D2*
X-67Y-3380D1*
X-1006Y-4319D2*
X-1067Y-4380D1*
X5160Y1648D2*
X4418Y907D1*
X3942Y431D2*
X3884Y373D1*
X3023Y-488D2*
X2749Y-762D1*
X1583Y-1928D2*
X979Y-2533D1*
X174Y-3338D2*
X-15Y-3526D1*
X-971Y-4482D2*
X-1015Y-4526D1*
X5160Y1450D2*
X4418Y709D1*
X1583Y-2126D2*
X1177Y-2533D1*
X372Y-3338D2*
X-21Y-3731D1*
X-987Y-4696D2*
X-1021Y-4731D1*
X5160Y1252D2*
X4418Y511D1*
X2669Y-1238D2*
X2358Y-1550D1*
X1583Y-2324D2*
X1375Y-2533D1*
X570Y-3338D2*
X30Y-3877D1*
X-939Y-4847D2*
X-1013Y-4920D1*
X5160Y1055D2*
X4418Y313D1*
X2831Y-1274D2*
X2358Y-1748D1*
X768Y-3338D2*
X157Y-3948D1*
X5160Y857D2*
X4418Y115D1*
X3942Y-361D2*
X3777Y-526D1*
X2912Y-1391D2*
X2358Y-1946D1*
X966Y-3338D2*
X256Y-4047D1*
X5160Y659D2*
X4418Y-83D1*
X3942Y-559D2*
X3880Y-622D1*
X3017Y-1484D2*
X2358Y-2144D1*
X1164Y-3338D2*
X355Y-4146D1*
X16Y-4485D2*
X-17Y-4518D1*
X5160Y461D2*
X4418Y-281D1*
X2770Y-1929D2*
X2358Y-2342D1*
X1362Y-3338D2*
X568Y-4131D1*
X11Y-4688D2*
X-19Y-4718D1*
X5160Y263D2*
X4418Y-479D1*
X2776Y-2121D2*
X2358Y-2540D1*
X1560Y-3338D2*
X719Y-4178D1*
X58Y-4840D2*
X-23Y-4920D1*
X5160Y65D2*
X4418Y-677D1*
X2827Y-2268D2*
X2358Y-2738D1*
X1757Y-3338D2*
X837Y-4258D1*
X5160Y-133D2*
X4418Y-875D1*
X3942Y-1351D2*
X3771Y-1522D1*
X2907Y-2386D2*
X2317Y-2976D1*
X1996Y-3297D2*
X925Y-4368D1*
X5160Y-331D2*
X4418Y-1073D1*
X3942Y-1549D2*
X3875Y-1616D1*
X3011Y-2480D2*
X981Y-4510D1*
X5160Y-529D2*
X4418Y-1271D1*
X3140Y-2549D2*
X984Y-4705D1*
X5160Y-727D2*
X4418Y-1469D1*
X3303Y-2584D2*
X967Y-4920D1*
X5160Y-925D2*
X4417Y-1668D1*
X3505Y-2580D2*
X1165Y-4920D1*
X5160Y-1123D2*
X1363Y-4920D1*
X5160Y-1321D2*
X1561Y-4920D1*
X5160Y-1519D2*
X1759Y-4920D1*
X5160Y-1717D2*
X1957Y-4920D1*
X5160Y-1915D2*
X2155Y-4920D1*
X5160Y-2113D2*
X2353Y-4920D1*
X5160Y-2311D2*
X2551Y-4920D1*
X5160Y-2509D2*
X2749Y-4920D1*
X5160Y-2707D2*
X2947Y-4920D1*
X5160Y-2905D2*
X3145Y-4920D1*
X5160Y-3103D2*
X3343Y-4920D1*
X5160Y-3301D2*
X3541Y-4920D1*
X5160Y-3499D2*
X3739Y-4920D1*
X5160Y-3697D2*
X3937Y-4920D1*
X5160Y-3895D2*
X4135Y-4920D1*
X5160Y-4093D2*
X4333Y-4920D1*
X5160Y-4291D2*
X4531Y-4920D1*
X5160Y-4489D2*
X4729Y-4920D1*
X5160Y-4687D2*
X4927Y-4920D1*
X5157Y-4888D2*
X5128Y-4916D1*
X4972Y4680D2*
X5160Y4492D1*
X4774Y4680D2*
X5160Y4294D1*
X4576Y4680D2*
X5160Y4096D1*
X4378Y4680D2*
X5160Y3898D1*
X4180Y4680D2*
X5160Y3700D1*
X3982Y4680D2*
X5160Y3502D1*
X3784Y4680D2*
X5160Y3304D1*
X3586Y4680D2*
X5160Y3106D1*
X3388Y4680D2*
X3781Y4287D1*
X4418Y3650D2*
X5160Y2908D1*
X3190Y4680D2*
X3583Y4287D1*
X4418Y3452D2*
X5160Y2710D1*
X2992Y4680D2*
X3385Y4287D1*
X4418Y3254D2*
X5160Y2512D1*
X2794Y4680D2*
X3187Y4287D1*
X3661Y3813D2*
X3942Y3532D1*
X4418Y3056D2*
X5160Y2314D1*
X2596Y4680D2*
X2989Y4287D1*
X3463Y3813D2*
X3942Y3334D1*
X4418Y2858D2*
X5160Y2116D1*
X2398Y4680D2*
X2791Y4287D1*
X3265Y3813D2*
X3942Y3136D1*
X4418Y2660D2*
X5160Y1918D1*
X2201Y4680D2*
X2593Y4287D1*
X3067Y3813D2*
X3942Y2938D1*
X4418Y2462D2*
X5160Y1720D1*
X2003Y4680D2*
X2395Y4287D1*
X2869Y3813D2*
X3942Y2740D1*
X4418Y2264D2*
X5160Y1522D1*
X1805Y4680D2*
X2197Y4287D1*
X2672Y3813D2*
X3942Y2542D1*
X4418Y2066D2*
X5160Y1325D1*
X1607Y4680D2*
X1946Y4340D1*
X2474Y3813D2*
X3942Y2344D1*
X4418Y1868D2*
X5160Y1127D1*
X1409Y4680D2*
X1803Y4285D1*
X2276Y3813D2*
X3942Y2146D1*
X4418Y1670D2*
X5160Y929D1*
X1211Y4680D2*
X1709Y4181D1*
X2152Y3738D2*
X3942Y1948D1*
X4418Y1472D2*
X5160Y731D1*
X1013Y4680D2*
X1668Y4024D1*
X1995Y3697D2*
X3942Y1750D1*
X4418Y1274D2*
X5160Y533D1*
X815Y4680D2*
X3942Y1552D1*
X4418Y1076D2*
X5160Y335D1*
X617Y4680D2*
X3942Y1354D1*
X4418Y878D2*
X5160Y137D1*
X419Y4680D2*
X3942Y1156D1*
X4418Y680D2*
X5160Y-61D1*
X221Y4680D2*
X3942Y958D1*
X4418Y482D2*
X5160Y-259D1*
X23Y4680D2*
X3942Y760D1*
X4418Y284D2*
X5160Y-457D1*
X-175Y4680D2*
X3942Y562D1*
X4418Y86D2*
X5160Y-655D1*
X-373Y4680D2*
X3942Y364D1*
X4418Y-112D2*
X5160Y-853D1*
X-571Y4680D2*
X3532Y576D1*
X4418Y-310D2*
X5160Y-1051D1*
X-769Y4680D2*
X3324Y586D1*
X4418Y-508D2*
X5160Y-1249D1*
X-967Y4680D2*
X3157Y555D1*
X4418Y-706D2*
X5160Y-1447D1*
X-1165Y4680D2*
X3025Y489D1*
X3886Y-371D2*
X3942Y-428D1*
X4418Y-903D2*
X5160Y-1645D1*
X-1363Y4680D2*
X2918Y398D1*
X3784Y-468D2*
X3942Y-626D1*
X4418Y-1101D2*
X5160Y-1843D1*
X-1561Y4680D2*
X-180Y3298D1*
X468Y2650D2*
X2836Y283D1*
X4418Y-1299D2*
X5160Y-2041D1*
X-1759Y4680D2*
X-437Y3358D1*
X528Y2393D2*
X2693Y228D1*
X4418Y-1497D2*
X5160Y-2239D1*
X-1957Y4680D2*
X-635Y3358D1*
X528Y2195D2*
X2548Y174D1*
X4416Y-1693D2*
X5160Y-2437D1*
X-2155Y4680D2*
X-833Y3358D1*
X528Y1997D2*
X2448Y76D1*
X2787Y-262D2*
X3031Y-507D1*
X3890Y-1365D2*
X3942Y-1418D1*
X4351Y-1827D2*
X5160Y-2635D1*
X-2353Y4680D2*
X-1031Y3358D1*
X-556Y2882D2*
X52Y2274D1*
X528Y1799D2*
X2349Y-23D1*
X2688Y-361D2*
X2923Y-597D1*
X3791Y-1464D2*
X3914Y-1587D1*
X4252Y-1926D2*
X5160Y-2833D1*
X-2551Y4680D2*
X-1229Y3358D1*
X-754Y2882D2*
X52Y2076D1*
X528Y1601D2*
X2250Y-122D1*
X2589Y-460D2*
X2839Y-710D1*
X4153Y-2025D2*
X5160Y-3031D1*
X-2749Y4680D2*
X-1427Y3358D1*
X-952Y2882D2*
X36Y1895D1*
X528Y1403D2*
X2151Y-221D1*
X2490Y-559D2*
X2693Y-762D1*
X4054Y-2124D2*
X5160Y-3229D1*
X-2947Y4680D2*
X-1625Y3358D1*
X-1150Y2882D2*
X-191Y1923D1*
X528Y1205D2*
X2052Y-320D1*
X2391Y-658D2*
X2495Y-762D1*
X3968Y-2235D2*
X5160Y-3427D1*
X-3145Y4680D2*
X-1823Y3358D1*
X-1348Y2882D2*
X-380Y1915D1*
X528Y1007D2*
X1953Y-419D1*
X2292Y-757D2*
X2309Y-775D1*
X2772Y-1238D2*
X2891Y-1356D1*
X2995Y-1460D2*
X3037Y-1503D1*
X3894Y-2360D2*
X5160Y-3625D1*
X-3343Y4680D2*
X-2021Y3358D1*
X-1546Y2882D2*
X-581Y1918D1*
X528Y809D2*
X1854Y-518D1*
X2574Y-1238D2*
X2928Y-1591D1*
X3796Y-2460D2*
X5160Y-3823D1*
X-3541Y4680D2*
X-2219Y3358D1*
X-1624Y2762D2*
X-787Y1925D1*
X528Y611D2*
X1755Y-617D1*
X2433Y-1295D2*
X2843Y-1704D1*
X3673Y-2535D2*
X5160Y-4021D1*
X-3739Y4680D2*
X-2417Y3358D1*
X-1635Y2575D2*
X-970Y1911D1*
X528Y413D2*
X1656Y-716D1*
X2358Y-1417D2*
X2785Y-1844D1*
X3520Y-2579D2*
X5160Y-4219D1*
X-3937Y4680D2*
X-2615Y3358D1*
X-1700Y2442D2*
X-1188Y1930D1*
X502Y240D2*
X1587Y-844D1*
X2358Y-1615D2*
X2765Y-2023D1*
X3328Y-2586D2*
X5160Y-4417D1*
X-4135Y4680D2*
X-2813Y3358D1*
X-2338Y2882D2*
X-2246Y2790D1*
X-1700Y2244D2*
X-1359Y1903D1*
X412Y133D2*
X1583Y-1038D1*
X2358Y-1813D2*
X2863Y-2319D1*
X3032Y-2487D2*
X5160Y-4615D1*
X-4333Y4680D2*
X-3011Y3358D1*
X-2536Y2882D2*
X-2240Y2587D1*
X-1700Y2046D2*
X-1511Y1857D1*
X313Y34D2*
X1583Y-1236D1*
X2358Y-2011D2*
X5160Y-4813D1*
X-4531Y4680D2*
X-3209Y3358D1*
X-2734Y2882D2*
X-2174Y2323D1*
X-801Y950D2*
X-740Y888D1*
X214Y-65D2*
X1583Y-1434D1*
X2358Y-2209D2*
X5068Y-4920D1*
X-4729Y4680D2*
X-3407Y3358D1*
X-2932Y2882D2*
X-2174Y2125D1*
X-1389Y1339D2*
X-1239Y1190D1*
X-900Y851D2*
X-839Y789D1*
X115Y-164D2*
X1583Y-1632D1*
X2358Y-2407D2*
X4870Y-4920D1*
X-4927Y4680D2*
X-3605Y3358D1*
X-3130Y2882D2*
X-2174Y1927D1*
X-1630Y1383D2*
X-1405Y1157D1*
X16Y-263D2*
X1583Y-1830D1*
X2358Y-2605D2*
X4672Y-4920D1*
X-5125Y4680D2*
X-3803Y3358D1*
X-3328Y2882D2*
X-1603Y1157D1*
X-748Y302D2*
X-707Y262D1*
X-83Y-362D2*
X1583Y-2028D1*
X2358Y-2803D2*
X4474Y-4920D1*
X-5323Y4680D2*
X-4001Y3358D1*
X-3526Y2882D2*
X-1801Y1157D1*
X-946Y302D2*
X-806Y163D1*
X-182Y-461D2*
X1583Y-2226D1*
X2327Y-2970D2*
X4276Y-4920D1*
X-5521Y4680D2*
X-4199Y3358D1*
X-3724Y2882D2*
X-1999Y1157D1*
X-1144Y302D2*
X-905Y64D1*
X-281Y-560D2*
X1583Y-2424D1*
X2234Y-3075D2*
X4078Y-4920D1*
X-5719Y4680D2*
X-4397Y3358D1*
X-3922Y2882D2*
X-2197Y1157D1*
X-1342Y302D2*
X-1004Y-35D1*
X-380Y-659D2*
X1493Y-2532D1*
X2135Y-3174D2*
X3880Y-4920D1*
X-5917Y4680D2*
X-4595Y3358D1*
X-4120Y2882D2*
X-2395Y1157D1*
X-1540Y302D2*
X-1103Y-134D1*
X-472Y-765D2*
X1295Y-2532D1*
X2036Y-3273D2*
X3682Y-4920D1*
X-6115Y4680D2*
X-5895Y4459D1*
X-5493Y4058D2*
X-4793Y3358D1*
X-4318Y2882D2*
X-2593Y1157D1*
X-1738Y302D2*
X-1202Y-233D1*
X-472Y-963D2*
X1097Y-2532D1*
X1900Y-3336D2*
X3484Y-4920D1*
X-6313Y4680D2*
X-6077Y4444D1*
X-5510Y3876D2*
X-4991Y3358D1*
X-4516Y2882D2*
X-2791Y1157D1*
X-1936Y302D2*
X-1301Y-332D1*
X-472Y-1161D2*
X899Y-2532D1*
X1704Y-3337D2*
X3287Y-4920D1*
X-6511Y4680D2*
X-6209Y4378D1*
X-5574Y3743D2*
X-5228Y3396D1*
X-4714Y2882D2*
X-2989Y1157D1*
X-2134Y302D2*
X-1372Y-459D1*
X-472Y-1359D2*
X701Y-2532D1*
X1506Y-3337D2*
X3089Y-4920D1*
X-6709Y4680D2*
X-6309Y4280D1*
X-5673Y3644D2*
X-5452Y3423D1*
X-4912Y2882D2*
X-3187Y1157D1*
X-2332Y302D2*
X-1378Y-652D1*
X-472Y-1557D2*
X503Y-2532D1*
X1308Y-3337D2*
X2891Y-4920D1*
X-6907Y4680D2*
X-6687Y4460D1*
X-5805Y3578D2*
X-5583Y3355D1*
X-5110Y2882D2*
X-3385Y1157D1*
X-2530Y302D2*
X-2485Y257D1*
X-472Y-1755D2*
X237Y-2464D1*
X1110Y-3337D2*
X2693Y-4920D1*
X-7105Y4680D2*
X-6867Y4442D1*
X-5985Y3560D2*
X-5666Y3241D1*
X-5239Y2813D2*
X-4718Y2293D1*
X-4319Y1894D2*
X-3583Y1157D1*
X-2728Y302D2*
X-2683Y257D1*
X-472Y-1953D2*
X37Y-2463D1*
X912Y-3337D2*
X2495Y-4920D1*
X-7303Y4680D2*
X-7000Y4376D1*
X-6364Y3741D2*
X-5689Y3065D1*
X-5414Y2791D2*
X-4916Y2293D1*
X-4371Y1748D2*
X-3781Y1157D1*
X-2926Y302D2*
X-2881Y257D1*
X-472Y-2151D2*
X-166Y-2457D1*
X714Y-3337D2*
X2297Y-4920D1*
X-7440Y4618D2*
X-7098Y4276D1*
X-6464Y3642D2*
X-5114Y2293D1*
X-4473Y1652D2*
X-3979Y1157D1*
X-3124Y303D2*
X-3079Y258D1*
X-2604Y-218D2*
X-1737Y-1084D1*
X-472Y-2349D2*
X-354Y-2467D1*
X516Y-3338D2*
X2099Y-4920D1*
X-7440Y4420D2*
X-7163Y4144D1*
X-6596Y3577D2*
X-5312Y2293D1*
X-4627Y1607D2*
X-4177Y1157D1*
X-3322Y303D2*
X-3277Y258D1*
X-2802Y-218D2*
X-1737Y-1282D1*
X318Y-3338D2*
X1901Y-4920D1*
X-7440Y4222D2*
X-7180Y3962D1*
X-6778Y3560D2*
X-5510Y2293D1*
X-4865Y1648D2*
X-4375Y1157D1*
X-3520Y303D2*
X-3475Y258D1*
X-3000Y-218D2*
X-1737Y-1480D1*
X120Y-3338D2*
X1703Y-4920D1*
X-7440Y4024D2*
X-5708Y2293D1*
X-5063Y1648D2*
X-4573Y1157D1*
X-3718Y303D2*
X-3673Y258D1*
X-3198Y-218D2*
X-2938Y-478D1*
X-2588Y-827D2*
X-1737Y-1678D1*
X-78Y-3338D2*
X1505Y-4920D1*
X-7440Y3826D2*
X-5906Y2293D1*
X-5261Y1648D2*
X-4771Y1157D1*
X-3916Y303D2*
X-3871Y258D1*
X-3396Y-218D2*
X-3136Y-478D1*
X-2638Y-976D2*
X-1737Y-1876D1*
X-557Y-3056D2*
X-485Y-3128D1*
X-8Y-3605D2*
X515Y-4128D1*
X992Y-4605D2*
X1307Y-4920D1*
X-7440Y3628D2*
X-6089Y2278D1*
X-5459Y1648D2*
X-4969Y1157D1*
X-4114Y303D2*
X-4069Y258D1*
X-3594Y-218D2*
X-3334Y-478D1*
X-2737Y-1075D2*
X-1737Y-2074D1*
X-719Y-3092D2*
X-659Y-3152D1*
X-32Y-3779D2*
X94Y-3905D1*
X968Y-4779D2*
X1109Y-4920D1*
X-7440Y3430D2*
X-6214Y2205D1*
X-5657Y1648D2*
X-5166Y1157D1*
X-4312Y303D2*
X-4267Y258D1*
X-3792Y-218D2*
X-3532Y-478D1*
X-2887Y-1122D2*
X-1737Y-2272D1*
X-7440Y3232D2*
X-6313Y2106D1*
X-5854Y1647D2*
X-5364Y1157D1*
X-4510Y303D2*
X-4465Y258D1*
X-3990Y-218D2*
X-3730Y-478D1*
X-3085Y-1123D2*
X-1737Y-2470D1*
X-7440Y3034D2*
X-6412Y2007D1*
X-5953Y1548D2*
X-5532Y1126D1*
X-4708Y303D2*
X-4663Y258D1*
X-4188Y-218D2*
X-3928Y-478D1*
X-3283Y-1123D2*
X-1737Y-2668D1*
X-7440Y2836D2*
X-6511Y1908D1*
X-6052Y1449D2*
X-5636Y1033D1*
X-4386Y-218D2*
X-4125Y-478D1*
X-3481Y-1123D2*
X-1737Y-2866D1*
X-8Y-4595D2*
X8Y-4611D1*
X-7440Y2638D2*
X-6610Y1809D1*
X-6098Y1297D2*
X-5735Y934D1*
X-4584Y-218D2*
X-4323Y-478D1*
X-3679Y-1123D2*
X-1737Y-3064D1*
X-30Y-4772D2*
X101Y-4902D1*
X-7440Y2440D2*
X-6701Y1702D1*
X-6098Y1099D2*
X-5834Y835D1*
X-4781Y-218D2*
X-4521Y-478D1*
X-3877Y-1123D2*
X-1784Y-3216D1*
X-95Y-4904D2*
X-79Y-4920D1*
X-7440Y2242D2*
X-6743Y1545D1*
X-6098Y901D2*
X-5933Y736D1*
X-4920Y-277D2*
X-4719Y-478D1*
X-4075Y-1123D2*
X-1887Y-3311D1*
X-7440Y2044D2*
X-6743Y1347D1*
X-6098Y703D2*
X-6003Y608D1*
X-5097Y-298D2*
X-4917Y-478D1*
X-4273Y-1123D2*
X-1958Y-3437D1*
X-1317Y-4079D2*
X-958Y-4437D1*
X-7440Y1846D2*
X-6743Y1149D1*
X-6098Y505D2*
X-6007Y414D1*
X-5212Y-381D2*
X-5115Y-478D1*
X-4471Y-1123D2*
X-1992Y-3601D1*
X-1481Y-4113D2*
X-1464Y-4129D1*
X-1009Y-4584D2*
X-993Y-4600D1*
X-7440Y1648D2*
X-6743Y951D1*
X-6098Y307D2*
X-6007Y216D1*
X-5330Y-461D2*
X-5314Y-478D1*
X-4669Y-1123D2*
X-1920Y-3871D1*
X-1751Y-4040D2*
X-1644Y-4148D1*
X-1027Y-4764D2*
X-920Y-4871D1*
X-7440Y1450D2*
X-6743Y753D1*
X-6098Y109D2*
X-6007Y18D1*
X-4867Y-1123D2*
X-1778Y-4211D1*
X-1091Y-4898D2*
X-1069Y-4920D1*
X-7440Y1252D2*
X-6743Y556D1*
X-6098Y-89D2*
X-5709Y-478D1*
X-5065Y-1123D2*
X-1882Y-4305D1*
X-7440Y1055D2*
X-6743Y358D1*
X-5263Y-1123D2*
X-1956Y-4429D1*
X-7440Y857D2*
X-6743Y160D1*
X-5461Y-1123D2*
X-1992Y-4591D1*
X-7440Y659D2*
X-6743Y-38D1*
X-5659Y-1123D2*
X-1934Y-4847D1*
X-7440Y461D2*
X-6743Y-236D1*
X-5857Y-1123D2*
X-2059Y-4920D1*
X-7440Y263D2*
X-6723Y-454D1*
X-6074Y-1103D2*
X-2257Y-4920D1*
X-7440Y65D2*
X-2455Y-4920D1*
X-7440Y-133D2*
X-2653Y-4920D1*
X-7440Y-331D2*
X-2851Y-4920D1*
X-7440Y-529D2*
X-3049Y-4920D1*
X-7440Y-727D2*
X-3247Y-4920D1*
X-7440Y-925D2*
X-3445Y-4920D1*
X-7440Y-1123D2*
X-3643Y-4920D1*
X-7440Y-1321D2*
X-3841Y-4920D1*
X-7440Y-1519D2*
X-6092Y-2867D1*
X-5917Y-3042D2*
X-4039Y-4920D1*
X-7440Y-1717D2*
X-6348Y-2809D1*
X-5859Y-3298D2*
X-4237Y-4920D1*
X-7440Y-1915D2*
X-6505Y-2850D1*
X-5900Y-3455D2*
X-4435Y-4920D1*
X-7440Y-2113D2*
X-6623Y-2930D1*
X-5980Y-3573D2*
X-4633Y-4920D1*
X-7440Y-2311D2*
X-6709Y-3042D1*
X-6092Y-3659D2*
X-4831Y-4920D1*
X-7440Y-2509D2*
X-6758Y-3191D1*
X-6241Y-3708D2*
X-5029Y-4920D1*
X-7440Y-2707D2*
X-6733Y-3414D1*
X-6464Y-3683D2*
X-5227Y-4920D1*
X-7440Y-2905D2*
X-5425Y-4920D1*
X-7440Y-3103D2*
X-5623Y-4920D1*
X-7440Y-3301D2*
X-5821Y-4920D1*
X-7440Y-3499D2*
X-6019Y-4920D1*
X-7440Y-3697D2*
X-6217Y-4920D1*
X-7440Y-3895D2*
X-6415Y-4920D1*
X-7440Y-4093D2*
X-6613Y-4920D1*
X-7440Y-4291D2*
X-6811Y-4920D1*
X-7440Y-4489D2*
X-7009Y-4920D1*
X-7440Y-4687D2*
X-7207Y-4920D1*
X-7437Y-4888D2*
X-7408Y-4916D1*
X-14Y-4655D2*
X-24Y-4724D1*
X-43Y-4791D1*
X-73Y-4855D1*
X-111Y-4914D1*
X-119Y-4925D1*
X120D1*
X86Y-4878D1*
X54Y-4816D1*
X30Y-4751D1*
X16Y-4682D1*
X12Y-4612D1*
X18Y-4543D1*
X30Y-4490D1*
X-71Y-4388D1*
X-51Y-4431D1*
X-28Y-4497D1*
X-15Y-4566D1*
X-12Y-4620D1*
X-14Y-4655D1*
X-880Y-4925D2*
X-914Y-4878D1*
X-946Y-4816D1*
X-970Y-4751D1*
X-984Y-4682D1*
X-988Y-4612D1*
X-982Y-4543D1*
X-966Y-4474D1*
X-940Y-4409D1*
X-905Y-4349D1*
X-902Y-4342D1*
X-936Y-4338D1*
X-970Y-4328D1*
X-1002Y-4314D1*
X-1031Y-4295D1*
X-1079Y-4250D1*
X-1155Y-4175D1*
X-1177Y-4148D1*
X-1196Y-4118D1*
X-1210Y-4086D1*
X-1221Y-4038D1*
X-1238Y-4032D1*
X-1300Y-4065D1*
X-1366Y-4089D1*
X-1434Y-4103D1*
X-1504Y-4108D1*
X-1574Y-4102D1*
X-1642Y-4087D1*
X-1707Y-4062D1*
X-1768Y-4027D1*
X-1824Y-3985D1*
X-1873Y-3935D1*
X-1914Y-3878D1*
X-1946Y-3816D1*
X-1970Y-3751D1*
X-1984Y-3682D1*
X-1988Y-3612D1*
X-1982Y-3543D1*
X-1966Y-3474D1*
X-1940Y-3409D1*
X-1905Y-3349D1*
X-1862Y-3293D1*
X-1812Y-3245D1*
X-1755Y-3204D1*
X-1733Y-3192D1*
Y-1007D1*
X-2527Y-212D1*
X-3480Y-213D1*
X-4833D1*
X-4876Y-246D1*
X-4906Y-263D1*
X-4938Y-277D1*
X-4972Y-288D1*
X-5006Y-295D1*
X-5041Y-298D1*
X-5076Y-297D1*
X-5111Y-292D1*
X-5156Y-279D1*
X-5179Y-326D1*
X-5199Y-355D1*
X-5222Y-381D1*
X-5248Y-405D1*
X-5276Y-426D1*
X-5306Y-443D1*
X-5338Y-457D1*
X-5372Y-468D1*
X-5406Y-475D1*
X-5441Y-478D1*
X-5476Y-477D1*
X-5511Y-472D1*
X-5544Y-463D1*
X-5577Y-451D1*
X-5608Y-435D1*
X-5638Y-416D1*
X-5666Y-393D1*
X-5705Y-390D1*
X-5739Y-382D1*
X-5771Y-369D1*
X-5802Y-352D1*
X-5835Y-325D1*
X-5935Y-225D1*
X-5957Y-198D1*
X-5976Y-168D1*
X-5990Y-136D1*
X-5999Y-103D1*
X-6003Y-60D1*
Y560D1*
X-6000Y595D1*
X-5992Y629D1*
X-5979Y661D1*
X-5962Y692D1*
X-5935Y725D1*
X-5575Y1085D1*
X-5548Y1107D1*
X-5518Y1126D1*
X-5486Y1140D1*
X-5453Y1149D1*
X-5410Y1153D1*
X-1266D1*
X-1105Y1314D1*
X-1142Y1302D1*
X-1176Y1295D1*
X-1211Y1292D1*
X-1246Y1293D1*
X-1281Y1298D1*
X-1314Y1307D1*
X-1347Y1319D1*
X-1378Y1335D1*
X-1408Y1354D1*
X-1446Y1388D1*
X-1660Y1387D1*
X-1695Y1390D1*
X-1729Y1398D1*
X-1761Y1411D1*
X-1792Y1428D1*
X-1825Y1455D1*
X-2102Y1733D1*
X-2124Y1759D1*
X-2143Y1789D1*
X-2157Y1821D1*
X-2166Y1855D1*
X-2170Y1897D1*
Y2476D1*
X-2198Y2509D1*
X-2216Y2539D1*
X-2231Y2571D1*
X-2243Y2604D1*
X-2250Y2638D1*
X-2254Y2673D1*
Y2708D1*
X-2251Y2743D1*
X-2243Y2777D1*
X-2232Y2810D1*
X-2217Y2842D1*
X-2186Y2888D1*
X-4705Y2887D1*
X-5144D1*
X-5168Y2865D1*
X-5196Y2844D1*
X-5226Y2827D1*
X-5258Y2813D1*
X-5292Y2802D1*
X-5326Y2795D1*
X-5361Y2792D1*
X-5396Y2793D1*
X-5431Y2798D1*
X-5464Y2807D1*
X-5497Y2819D1*
X-5528Y2835D1*
X-5558Y2854D1*
X-5585Y2876D1*
X-5609Y2901D1*
X-5631Y2929D1*
X-5649Y2958D1*
X-5664Y2990D1*
X-5676Y3023D1*
X-5683Y3057D1*
X-5687Y3092D1*
Y3127D1*
X-5684Y3162D1*
X-5676Y3196D1*
X-5665Y3229D1*
X-5650Y3261D1*
X-5632Y3290D1*
X-5610Y3318D1*
X-5586Y3343D1*
X-5559Y3366D1*
X-5530Y3385D1*
X-5498Y3401D1*
X-5466Y3413D1*
X-5432Y3422D1*
X-5397Y3427D1*
X-5362Y3428D1*
X-5327Y3425D1*
X-5293Y3418D1*
X-5260Y3408D1*
X-5227Y3394D1*
X-5197Y3377D1*
X-5165Y3352D1*
X-2665Y3353D1*
X-330D1*
X-295Y3350D1*
X-261Y3342D1*
X-229Y3329D1*
X-198Y3312D1*
X-165Y3285D1*
X455Y2665D1*
X477Y2638D1*
X496Y2608D1*
X510Y2576D1*
X519Y2543D1*
X523Y2500D1*
Y350D1*
X520Y315D1*
X512Y281D1*
X499Y249D1*
X482Y218D1*
X455Y185D1*
X-477Y-746D1*
Y-2554D1*
X-429Y-2514D1*
X-400Y-2495D1*
X-368Y-2479D1*
X-336Y-2467D1*
X-302Y-2458D1*
X-267Y-2453D1*
X-232Y-2452D1*
X-197Y-2455D1*
X-163Y-2462D1*
X-130Y-2472D1*
X-97Y-2486D1*
X-50Y-2516D1*
X-20Y-2495D1*
X12Y-2479D1*
X44Y-2467D1*
X78Y-2458D1*
X113Y-2453D1*
X148Y-2452D1*
X183Y-2455D1*
X217Y-2462D1*
X250Y-2472D1*
X283Y-2486D1*
X313Y-2503D1*
X356Y-2538D1*
X840Y-2537D1*
X1535D1*
X1587Y-2484D1*
Y-890D1*
X1590Y-855D1*
X1598Y-821D1*
X1611Y-789D1*
X1628Y-758D1*
X1655Y-725D1*
X2535Y155D1*
X2562Y177D1*
X2592Y196D1*
X2624Y210D1*
X2657Y219D1*
X2700Y223D1*
X2815D1*
X2833Y264D1*
X2869Y325D1*
X2911Y380D1*
X2960Y430D1*
X3015Y474D1*
X3074Y511D1*
X3137Y541D1*
X3204Y562D1*
X3272Y576D1*
X3350Y581D1*
X3429Y580D1*
X3456D1*
X3526Y573D1*
X3594Y557D1*
X3659Y534D1*
X3722Y502D1*
X3780Y463D1*
X3833Y418D1*
X3881Y366D1*
X3921Y309D1*
X3947Y263D1*
Y3644D1*
X3773Y3818D1*
X2235Y3817D1*
X2192Y3775D1*
X2164Y3754D1*
X2134Y3737D1*
X2102Y3723D1*
X2068Y3712D1*
X2034Y3705D1*
X1999Y3702D1*
X1964Y3703D1*
X1929Y3708D1*
X1896Y3717D1*
X1863Y3729D1*
X1832Y3745D1*
X1802Y3764D1*
X1775Y3786D1*
X1751Y3811D1*
X1729Y3839D1*
X1711Y3868D1*
X1696Y3900D1*
X1684Y3933D1*
X1677Y3967D1*
X1673Y4002D1*
Y4037D1*
X1676Y4072D1*
X1684Y4106D1*
X1695Y4139D1*
X1710Y4171D1*
X1728Y4200D1*
X1750Y4228D1*
X1774Y4253D1*
X1801Y4276D1*
X1830Y4295D1*
X1862Y4311D1*
X1894Y4323D1*
X1928Y4332D1*
X1963Y4337D1*
X1998Y4338D1*
X2033Y4335D1*
X2067Y4328D1*
X2100Y4318D1*
X2133Y4304D1*
X2169Y4282D1*
X2930Y4283D1*
X3870D1*
X3905Y4280D1*
X3939Y4272D1*
X3971Y4259D1*
X4002Y4242D1*
X4035Y4215D1*
X4345Y3905D1*
X4367Y3878D1*
X4386Y3848D1*
X4400Y3816D1*
X4409Y3783D1*
X4413Y3740D1*
Y-1660D1*
X4410Y-1695D1*
X4402Y-1729D1*
X4389Y-1761D1*
X4372Y-1792D1*
X4345Y-1825D1*
X3995Y-2173D1*
X3973Y-2205D1*
X3944Y-2269D1*
X3908Y-2329D1*
X3865Y-2384D1*
X3816Y-2434D1*
X3761Y-2477D1*
X3701Y-2514D1*
X3637Y-2543D1*
X3571Y-2564D1*
X3502Y-2577D1*
X3427Y-2581D1*
X3351Y-2580D1*
X3318D1*
X3249Y-2572D1*
X3181Y-2556D1*
X3115Y-2531D1*
X3053Y-2499D1*
X2995Y-2460D1*
X2943Y-2414D1*
X2896Y-2362D1*
X2856Y-2305D1*
X2823Y-2243D1*
X2797Y-2178D1*
X2780Y-2110D1*
X2771Y-2041D1*
X2770Y-1971D1*
X2778Y-1901D1*
X2794Y-1833D1*
X2818Y-1767D1*
X2850Y-1705D1*
X2889Y-1647D1*
X2935Y-1594D1*
X2987Y-1547D1*
X3044Y-1507D1*
X3053Y-1499D1*
X2995Y-1460D1*
X2943Y-1414D1*
X2896Y-1362D1*
X2856Y-1305D1*
X2823Y-1243D1*
X2818Y-1232D1*
X2515Y-1233D1*
X2485D1*
X2353Y-1366D1*
Y-2850D1*
X2350Y-2885D1*
X2342Y-2919D1*
X2329Y-2951D1*
X2312Y-2982D1*
X2285Y-3015D1*
X2035Y-3265D1*
X2008Y-3287D1*
X1978Y-3306D1*
X1946Y-3320D1*
X1913Y-3329D1*
X1870Y-3333D1*
X-106D1*
X-82Y-3368D1*
X-51Y-3431D1*
X-28Y-3497D1*
X-15Y-3566D1*
X-12Y-3620D1*
X-17Y-3690D1*
X-32Y-3758D1*
X-57Y-3824D1*
X-87Y-3878D1*
X-20Y-3877D1*
X15Y-3880D1*
X49Y-3888D1*
X81Y-3901D1*
X112Y-3918D1*
X145Y-3945D1*
X354Y-4155D1*
X407Y-4141D1*
X477Y-4133D1*
X547Y-4135D1*
X616Y-4146D1*
X682Y-4168D1*
X745Y-4198D1*
X803Y-4238D1*
X854Y-4285D1*
X899Y-4339D1*
X935Y-4399D1*
X962Y-4463D1*
X980Y-4531D1*
X987Y-4601D1*
X986Y-4655D1*
X976Y-4724D1*
X957Y-4791D1*
X927Y-4855D1*
X889Y-4914D1*
X880Y-4925D1*
X5098D1*
X5125Y-4921D1*
X5145Y-4910D1*
X5156Y-4896D1*
X5162Y-4883D1*
X5165Y-4856D1*
Y4619D1*
X5161Y4645D1*
X5150Y4665D1*
X5136Y4676D1*
X5123Y4682D1*
X5096Y4685D1*
X-7378D1*
X-7405Y4681D1*
X-7425Y4670D1*
X-7436Y4656D1*
X-7442Y4643D1*
X-7445Y4616D1*
Y-4859D1*
X-7441Y-4885D1*
X-7430Y-4905D1*
X-7416Y-4917D1*
X-7403Y-4922D1*
X-7376Y-4925D1*
X-1881D1*
X-1914Y-4878D1*
X-1946Y-4816D1*
X-1970Y-4751D1*
X-1984Y-4682D1*
X-1988Y-4612D1*
X-1982Y-4543D1*
X-1966Y-4474D1*
X-1940Y-4409D1*
X-1905Y-4349D1*
X-1862Y-4293D1*
X-1812Y-4245D1*
X-1755Y-4204D1*
X-1693Y-4172D1*
X-1627Y-4149D1*
X-1558Y-4136D1*
X-1488Y-4132D1*
X-1419Y-4139D1*
X-1351Y-4156D1*
X-1286Y-4182D1*
X-1225Y-4217D1*
X-1171Y-4260D1*
X-1123Y-4311D1*
X-1082Y-4368D1*
X-1051Y-4431D1*
X-1028Y-4497D1*
X-1015Y-4566D1*
X-1012Y-4620D1*
X-1017Y-4690D1*
X-1032Y-4758D1*
X-1057Y-4824D1*
X-1090Y-4885D1*
X-1119Y-4925D1*
X-879D1*
X-758Y-3206D2*
X-693Y-3172D1*
X-627Y-3149D1*
X-558Y-3136D1*
X-488Y-3132D1*
X-431Y-3138D1*
X-456Y-3098D1*
X-470Y-3066D1*
X-479Y-3033D1*
X-483Y-2997D1*
X-481Y-3018D1*
X-508Y-3015D1*
X-536Y-3036D1*
X-566Y-3053D1*
X-598Y-3067D1*
X-632Y-3078D1*
X-666Y-3085D1*
X-701Y-3088D1*
X-763Y-3083D1*
X-757Y-3123D1*
Y-3205D1*
X-5864Y-3295D2*
X-5875Y-3364D1*
X-5896Y-3431D1*
X-5928Y-3493D1*
X-5969Y-3550D1*
X-6018Y-3599D1*
X-6074Y-3641D1*
X-6136Y-3673D1*
X-6203Y-3695D1*
X-6272Y-3706D1*
X-6342Y-3707D1*
X-6411Y-3696D1*
X-6478Y-3675D1*
X-6540Y-3644D1*
X-6597Y-3604D1*
X-6647Y-3555D1*
X-6689Y-3499D1*
X-6721Y-3437D1*
X-6744Y-3370D1*
X-6756Y-3301D1*
X-6757Y-3232D1*
X-6747Y-3162D1*
X-6726Y-3096D1*
X-6696Y-3033D1*
X-6656Y-2975D1*
X-6607Y-2925D1*
X-6551Y-2883D1*
X-6490Y-2850D1*
X-6424Y-2827D1*
X-6355Y-2815D1*
X-6285Y-2813D1*
X-6216Y-2822D1*
X-6149Y-2842D1*
X-6086Y-2873D1*
X-6028Y-2912D1*
X-5977Y-2960D1*
X-5935Y-3016D1*
X-5901Y-3077D1*
X-5878Y-3143D1*
X-5865Y-3212D1*
X-5862Y-3260D1*
X-5864Y-3295D1*
X-6336Y3797D2*
X-6367Y3748D1*
X-6412Y3695D1*
X-6465Y3649D1*
X-6525Y3612D1*
X-6589Y3585D1*
X-6657Y3568D1*
X-6727Y3562D1*
X-6796Y3567D1*
X-6865Y3583D1*
X-6929Y3609D1*
X-6989Y3645D1*
X-7043Y3690D1*
X-7089Y3743D1*
X-7126Y3802D1*
X-7154Y3866D1*
X-7171Y3934D1*
X-7178Y4003D1*
X-7173Y4073D1*
X-7158Y4141D1*
X-7132Y4207D1*
X-7097Y4267D1*
X-7052Y4321D1*
X-7000Y4367D1*
X-6941Y4405D1*
X-6877Y4433D1*
X-6809Y4451D1*
X-6740Y4458D1*
X-6670Y4454D1*
X-6602Y4439D1*
X-6536Y4414D1*
X-6476Y4379D1*
X-6422Y4335D1*
X-6375Y4283D1*
X-6336Y4223D1*
X-6309Y4267D1*
X-6265Y4321D1*
X-6213Y4367D1*
X-6154Y4405D1*
X-6090Y4433D1*
X-6022Y4451D1*
X-5952Y4458D1*
X-5883Y4454D1*
X-5814Y4439D1*
X-5749Y4414D1*
X-5689Y4379D1*
X-5634Y4335D1*
X-5587Y4283D1*
X-5549Y4224D1*
X-5521Y4160D1*
X-5503Y4093D1*
X-5495Y4023D1*
X-5496Y3975D1*
X-5507Y3906D1*
X-5529Y3839D1*
X-5560Y3777D1*
X-5601Y3720D1*
X-5650Y3671D1*
X-5707Y3629D1*
X-5769Y3597D1*
X-5835Y3575D1*
X-5904Y3564D1*
X-5974Y3563D1*
X-6043Y3574D1*
X-6110Y3595D1*
X-6173Y3626D1*
X-6230Y3666D1*
X-6280Y3715D1*
X-6321Y3771D1*
X-6336Y3797D1*
X3054Y-500D2*
X2995Y-460D1*
X2943Y-414D1*
X2896Y-362D1*
X2856Y-305D1*
X2822Y-242D1*
X2797Y-243D1*
X2053Y-986D1*
Y-1009D1*
X2225Y-835D1*
X2252Y-813D1*
X2282Y-794D1*
X2314Y-780D1*
X2347Y-771D1*
X2390Y-767D1*
X2818D1*
X2850Y-705D1*
X2889Y-647D1*
X2935Y-594D1*
X2987Y-547D1*
X3044Y-507D1*
X3054Y-501D1*
X3948Y-262D2*
X3908Y-329D1*
X3865Y-384D1*
X3816Y-434D1*
X3761Y-477D1*
X3725Y-500D1*
X3780Y-537D1*
X3833Y-582D1*
X3881Y-634D1*
X3921Y-691D1*
X3947Y-737D1*
Y-263D1*
X3948Y-1262D2*
X3908Y-1329D1*
X3865Y-1384D1*
X3816Y-1434D1*
X3761Y-1477D1*
X3725Y-1500D1*
X3780Y-1537D1*
X3833Y-1582D1*
X3878Y-1631D1*
X3947Y-1564D1*
Y-1263D1*
X-1621Y2656D2*
X-1627Y2622D1*
X-1637Y2588D1*
X-1650Y2555D1*
X-1666Y2525D1*
X-1704Y2475D1*
Y1994D1*
X-1563Y1852D1*
X-1425Y1853D1*
X-1380Y1885D1*
X-1348Y1901D1*
X-1316Y1913D1*
X-1282Y1922D1*
X-1247Y1927D1*
X-1212Y1928D1*
X-1177Y1925D1*
X-1143Y1918D1*
X-1110Y1908D1*
X-1077Y1894D1*
X-1036Y1868D1*
X-978Y1901D1*
X-946Y1913D1*
X-912Y1922D1*
X-877Y1927D1*
X-842Y1928D1*
X-807Y1925D1*
X-773Y1918D1*
X-740Y1908D1*
X-707Y1894D1*
X-666Y1868D1*
X-608Y1901D1*
X-576Y1913D1*
X-542Y1922D1*
X-507Y1927D1*
X-472Y1928D1*
X-437Y1925D1*
X-403Y1918D1*
X-370Y1908D1*
X-337Y1894D1*
X-296Y1868D1*
X-238Y1901D1*
X-206Y1913D1*
X-172Y1922D1*
X-137Y1927D1*
X-102Y1928D1*
X-67Y1925D1*
X-33Y1918D1*
X0Y1908D1*
X33Y1894D1*
X58Y1879D1*
X57Y2100D1*
Y2403D1*
X-426Y2887D1*
X-1687D1*
X-1667Y2858D1*
X-1650Y2828D1*
X-1637Y2795D1*
X-1627Y2762D1*
X-1621Y2727D1*
X-1619Y2691D1*
X-1621Y2656D1*
X-4915Y307D2*
X-4877Y287D1*
X-4834Y252D1*
X-4350Y253D1*
X-2430D1*
X-2395Y250D1*
X-2361Y242D1*
X-2329Y229D1*
X-2298Y212D1*
X-2265Y185D1*
X-1372Y-709D1*
X-1373Y-510D1*
X-1370Y-475D1*
X-1362Y-441D1*
X-1349Y-409D1*
X-1332Y-378D1*
X-1305Y-345D1*
X-585Y375D1*
X-612Y353D1*
X-642Y334D1*
X-674Y320D1*
X-707Y311D1*
X-750Y307D1*
X-4914D1*
X-988Y773D2*
X-846D1*
X-713Y906D1*
Y1050D1*
X-933Y828D1*
X-989Y772D1*
X-2945Y-1118D2*
X-5970D1*
X-6005Y-1116D1*
X-6039Y-1110D1*
X-6073Y-1101D1*
X-6106Y-1087D1*
X-6136Y-1071D1*
X-6165Y-1051D1*
X-6219Y-1000D1*
X-6645Y-575D1*
X-6668Y-549D1*
X-6688Y-520D1*
X-6705Y-490D1*
X-6719Y-457D1*
X-6729Y-424D1*
X-6735Y-389D1*
X-6738Y-315D1*
Y1540D1*
X-6736Y1575D1*
X-6730Y1609D1*
X-6721Y1643D1*
X-6707Y1676D1*
X-6691Y1706D1*
X-6671Y1735D1*
X-6620Y1789D1*
X-6215Y2195D1*
X-6189Y2218D1*
X-6160Y2238D1*
X-6130Y2255D1*
X-6097Y2269D1*
X-6064Y2279D1*
X-6029Y2285D1*
X-5955Y2288D1*
X-4680D1*
X-4645Y2286D1*
X-4611Y2280D1*
X-4577Y2271D1*
X-4544Y2257D1*
X-4514Y2241D1*
X-4485Y2221D1*
X-4431Y2170D1*
X-4392Y2129D1*
X-4372Y2100D1*
X-4355Y2070D1*
X-4341Y2037D1*
X-4331Y2004D1*
X-4325Y1969D1*
X-4322Y1935D1*
X-4324Y1900D1*
X-4329Y1865D1*
X-4338Y1831D1*
X-4351Y1799D1*
X-4367Y1768D1*
X-4386Y1739D1*
X-4409Y1712D1*
X-4434Y1688D1*
X-4462Y1667D1*
X-4492Y1649D1*
X-4524Y1634D1*
X-4557Y1623D1*
X-4592Y1616D1*
X-4626Y1613D1*
X-4661D1*
X-4696Y1617D1*
X-4730Y1625D1*
X-4763Y1637D1*
X-4795Y1653D1*
X-5275Y1652D1*
X-5858D1*
X-6102Y1409D1*
Y595D1*
Y-218D1*
X-5839Y-482D1*
X-3765D1*
X-2910D1*
X-2875Y-484D1*
X-2841Y-490D1*
X-2807Y-499D1*
X-2774Y-513D1*
X-2744Y-529D1*
X-2715Y-549D1*
X-2689Y-572D1*
X-2665Y-598D1*
X-2644Y-626D1*
X-2627Y-656D1*
X-2613Y-688D1*
X-2602Y-722D1*
X-2595Y-756D1*
X-2592Y-791D1*
X-2593Y-826D1*
X-2598Y-861D1*
X-2607Y-894D1*
X-2619Y-927D1*
X-2635Y-958D1*
X-2654Y-988D1*
X-2676Y-1015D1*
X-2701Y-1039D1*
X-2729Y-1061D1*
X-2758Y-1079D1*
X-2790Y-1094D1*
X-2823Y-1106D1*
X-2857Y-1113D1*
X-2910Y-1118D1*
X-2945D1*
D28*
X-500Y-4620D3*
Y-3620D3*
X-1500D3*
Y-4620D3*
X500D3*
Y-3620D3*
D29*
X-6310Y-3260D3*
Y-4047D3*
X-6730Y4010D3*
X-5943D3*
D40*
X3390Y2000D3*
D41*
Y1000D3*
Y0D3*
Y-1000D3*
Y-2000D3*
M02*
