M48
INCH
T01C0.015
T02C0.0315
T03C0.0354
T04C0.0433
%
T01
X-001937Y+002691
X-001220Y+001610
X-000850Y+001610
X-000480Y+001610
X-000110Y+001610
X+001990Y+004020
X-002910Y-000800
X-005050Y+000020
X-005440Y+000210
X-005450Y-000160
X-004640Y+001930
X-005370Y+003110
X-000710Y-002770
X-000240Y-002770
X+000140Y-002770
T02
X-006310Y-003260
X-006310Y-004047
X-005943Y+004010
X-006730Y+004010
T03
X-000500Y-004620
X-001500Y-004620
X-001500Y-003620
X-000500Y-003620
X+000500Y-003620
X+000500Y-004620
T04
X+003390Y+002000
X+003390Y+001000
X+003390Y+000000
X+003390Y-001000
X+003390Y-002000
T00
M30
