G04 DipTrace 2.4.0.2*
%INTopAssy.gbr*%
%MOIN*%
%FSLAX44Y44*%
G04*
G70*
G90*
G75*
G01*
%LNTopAssy*%
%LPD*%
G36*
X-1710Y410D2*
X-1320D1*
Y590D1*
X-1710D1*
Y410D1*
G37*
G36*
Y95D2*
X-1320D1*
Y275D1*
X-1710D1*
Y95D1*
G37*
G36*
Y-220D2*
X-1320D1*
Y-40D1*
X-1710D1*
Y-220D1*
G37*
G36*
Y-535D2*
X-1320D1*
Y-355D1*
X-1710D1*
Y-535D1*
G37*
G36*
Y-850D2*
X-1320D1*
Y-669D1*
X-1710D1*
Y-850D1*
G37*
G36*
Y-1165D2*
X-1320D1*
Y-985D1*
X-1710D1*
Y-1165D1*
G37*
G36*
Y-1480D2*
X-1320D1*
Y-1300D1*
X-1710D1*
Y-1480D1*
G37*
G36*
Y-1795D2*
X-1320D1*
Y-1615D1*
X-1710D1*
Y-1795D1*
G37*
G36*
X-1112Y-2392D2*
X-932D1*
Y-2003D1*
X-1112D1*
Y-2392D1*
G37*
G36*
X-797D2*
X-617D1*
Y-2003D1*
X-797D1*
Y-2392D1*
G37*
G36*
X-483D2*
X-302D1*
Y-2003D1*
X-483D1*
Y-2392D1*
G37*
G36*
X-168D2*
X13D1*
Y-2003D1*
X-168D1*
Y-2392D1*
G37*
G36*
X147D2*
X328D1*
Y-2003D1*
X147D1*
Y-2392D1*
G37*
G36*
X462D2*
X643D1*
Y-2003D1*
X462D1*
Y-2392D1*
G37*
G36*
X777D2*
X957D1*
Y-2003D1*
X777D1*
Y-2392D1*
G37*
G36*
X1092D2*
X1272D1*
Y-2003D1*
X1092D1*
Y-2392D1*
G37*
G36*
X1480Y-1795D2*
X1870D1*
Y-1615D1*
X1480D1*
Y-1795D1*
G37*
G36*
Y-1480D2*
X1870D1*
Y-1300D1*
X1480D1*
Y-1480D1*
G37*
G36*
Y-1165D2*
X1870D1*
Y-985D1*
X1480D1*
Y-1165D1*
G37*
G36*
Y-850D2*
X1870D1*
Y-669D1*
X1480D1*
Y-850D1*
G37*
G36*
Y-535D2*
X1870D1*
Y-355D1*
X1480D1*
Y-535D1*
G37*
G36*
Y-220D2*
X1870D1*
Y-40D1*
X1480D1*
Y-220D1*
G37*
G36*
Y95D2*
X1870D1*
Y275D1*
X1480D1*
Y95D1*
G37*
G36*
Y410D2*
X1870D1*
Y590D1*
X1480D1*
Y410D1*
G37*
G36*
X1092Y798D2*
X1272D1*
Y1187D1*
X1092D1*
Y798D1*
G37*
G36*
X777D2*
X957D1*
Y1187D1*
X777D1*
Y798D1*
G37*
G36*
X462D2*
X643D1*
Y1187D1*
X462D1*
Y798D1*
G37*
G36*
X147D2*
X328D1*
Y1187D1*
X147D1*
Y798D1*
G37*
G36*
X-168D2*
X13D1*
Y1187D1*
X-168D1*
Y798D1*
G37*
G36*
X-483D2*
X-302D1*
Y1187D1*
X-483D1*
Y798D1*
G37*
G36*
X-797D2*
X-617D1*
Y1187D1*
X-797D1*
Y798D1*
G37*
G36*
X-1112D2*
X-932D1*
Y1187D1*
X-1112D1*
Y798D1*
G37*
M02*
