G04 DipTrace 2.4.0.2*
%INTopMask.gbr*%
%MOIN*%
%ADD30C,0.056*%
%ADD32R,0.05X0.022*%
%ADD33R,0.022X0.05*%
%ADD60R,0.063X0.1201*%
%ADD62R,0.0236X0.0591*%
%ADD64R,0.0315X0.0591*%
%ADD66R,0.0315X0.0276*%
%ADD68R,0.0827X0.0787*%
%ADD70R,0.061X0.0236*%
%ADD72R,0.0827X0.0866*%
%ADD74O,0.0571X0.0492*%
%ADD76O,0.0984X0.0906*%
%ADD78R,0.0984X0.0906*%
%ADD80R,0.0335X0.0492*%
%ADD82R,0.1043X0.1043*%
%ADD84R,0.0197X0.0413*%
%ADD86R,0.0413X0.0197*%
%ADD94C,0.0787*%
%ADD96R,0.0787X0.0787*%
%ADD98R,0.0512X0.0472*%
%ADD100R,0.0669X0.0591*%
%ADD102R,0.0472X0.0512*%
%FSLAX44Y44*%
G04*
G70*
G90*
G75*
G01*
%LNTopMask*%
%LPD*%
D102*
X560Y7735D3*
Y8405D3*
X6430Y4335D3*
Y5005D3*
X11310Y4215D3*
Y4885D3*
D100*
X5810Y4236D3*
Y4984D3*
D102*
X6580Y6675D3*
Y7345D3*
X7250Y6675D3*
Y7345D3*
X8540Y8395D3*
Y9065D3*
D98*
X7595Y10100D3*
X8265D3*
D96*
X7630Y920D3*
D94*
X8630D3*
X9630D3*
Y1920D3*
X8630D3*
X7630D3*
D30*
X1328Y2194D3*
Y1406D3*
X3014Y9522D3*
X2226D3*
D32*
X7150Y5932D3*
Y5617D3*
Y5302D3*
Y4987D3*
Y4673D3*
Y4358D3*
Y4043D3*
Y3728D3*
D33*
X7738Y3140D3*
X8053D3*
X8368D3*
X8683D3*
X8997D3*
X9312D3*
X9627D3*
X9942D3*
D32*
X10530Y3728D3*
Y4043D3*
Y4358D3*
Y4673D3*
Y4987D3*
Y5302D3*
Y5617D3*
Y5932D3*
D33*
X9942Y6520D3*
X9627D3*
X9312D3*
X8997D3*
X8683D3*
X8368D3*
X8053D3*
X7738D3*
D86*
X6365Y9232D3*
X6364Y9035D3*
Y8838D3*
Y8642D3*
Y8445D3*
Y8248D3*
D84*
X6648Y7964D3*
X6845D3*
X7042D3*
X7238D3*
X7435D3*
X7632D3*
D86*
X7916Y8248D3*
Y8445D3*
Y8642D3*
Y8838D3*
Y9035D3*
Y9232D3*
D84*
X7632Y9516D3*
X7435D3*
X7238D3*
X7042D3*
X6845D3*
X6648D3*
D82*
X7140Y8740D3*
D80*
X1126Y7537D3*
X1874D3*
X1500Y8443D3*
D98*
X5535Y9740D3*
X6205D3*
X5715Y10320D3*
X6385D3*
D78*
X12610Y7640D3*
D76*
Y6640D3*
Y5640D3*
Y4640D3*
Y3640D3*
D74*
X1504Y6265D3*
X1505Y4355D3*
D72*
X323Y6698D3*
Y3922D3*
D70*
X1379Y5822D3*
Y5566D3*
Y5310D3*
Y5054D3*
Y4798D3*
D68*
X325Y5764D3*
Y4858D3*
D66*
X9737Y9184D3*
Y8436D3*
X10603Y8809D3*
D64*
X6226Y2890D3*
D62*
X6600D3*
D64*
X6974D3*
D80*
X336Y8977D3*
X1084D3*
X710Y9883D3*
X2626Y7537D3*
X3374D3*
X3000Y8443D3*
X5094Y9093D3*
X4346D3*
X4720Y8187D3*
D98*
X2105Y6990D3*
X2775D3*
D60*
X4100Y2766D3*
Y874D3*
D102*
X11130Y6495D3*
Y5825D3*
X10350Y7755D3*
Y7085D3*
D98*
X11585Y7090D3*
X10915D3*
X11585Y7760D3*
X10915D3*
X11105Y1390D3*
X10435D3*
D100*
X9160Y9194D3*
Y8446D3*
M02*
