G04 DipTrace 2.4.0.2*
%INTopPaste.gbr*%
%MOIN*%
%ADD32R,0.05X0.022*%
%ADD33R,0.022X0.05*%
%ADD61R,0.0472X0.1043*%
%ADD63R,0.0079X0.0433*%
%ADD65R,0.0157X0.0433*%
%ADD67R,0.0157X0.0118*%
%ADD69R,0.0669X0.063*%
%ADD71R,0.0453X0.0079*%
%ADD81R,0.0177X0.0335*%
%ADD83R,0.0886X0.0886*%
%ADD85R,0.0039X0.0256*%
%ADD87R,0.0256X0.0039*%
%ADD99R,0.0354X0.0315*%
%ADD101R,0.0512X0.0433*%
%ADD103R,0.0315X0.0354*%
%FSLAX44Y44*%
G04*
G70*
G90*
G75*
G01*
%LNTopPaste*%
%LPD*%
D103*
X560Y7735D3*
Y8405D3*
X6430Y4335D3*
Y5005D3*
X11310Y4215D3*
Y4885D3*
D101*
X5810Y4236D3*
Y4984D3*
D103*
X6580Y6675D3*
Y7345D3*
X7250Y6675D3*
Y7345D3*
X8540Y8395D3*
Y9065D3*
D99*
X7595Y10100D3*
X8265D3*
D32*
X7150Y5932D3*
Y5617D3*
Y5302D3*
Y4987D3*
Y4673D3*
Y4358D3*
Y4043D3*
Y3728D3*
D33*
X7738Y3140D3*
X8053D3*
X8368D3*
X8683D3*
X8997D3*
X9312D3*
X9627D3*
X9942D3*
D32*
X10530Y3728D3*
Y4043D3*
Y4358D3*
Y4673D3*
Y4987D3*
Y5302D3*
Y5617D3*
Y5932D3*
D33*
X9942Y6520D3*
X9627D3*
X9312D3*
X8997D3*
X8683D3*
X8368D3*
X8053D3*
X7738D3*
D87*
X6365Y9232D3*
X6364Y9035D3*
Y8838D3*
Y8642D3*
Y8445D3*
Y8248D3*
D85*
X6648Y7964D3*
X6845D3*
X7042D3*
X7238D3*
X7435D3*
X7632D3*
D87*
X7916Y8248D3*
Y8445D3*
Y8642D3*
Y8838D3*
Y9035D3*
Y9232D3*
D85*
X7632Y9516D3*
X7435D3*
X7238D3*
X7042D3*
X6845D3*
X6648D3*
D83*
X7140Y8740D3*
D81*
X1126Y7537D3*
X1874D3*
X1500Y8443D3*
D99*
X5535Y9740D3*
X6205D3*
X5715Y10320D3*
X6385D3*
D71*
X1379Y5822D3*
Y5566D3*
Y5310D3*
Y5054D3*
Y4798D3*
D69*
X325Y5764D3*
Y4858D3*
D67*
X9737Y9184D3*
Y8436D3*
X10603Y8809D3*
D65*
X6226Y2890D3*
D63*
X6600D3*
D65*
X6974D3*
D81*
X336Y8977D3*
X1084D3*
X710Y9883D3*
X2626Y7537D3*
X3374D3*
X3000Y8443D3*
X5094Y9093D3*
X4346D3*
X4720Y8187D3*
D99*
X2105Y6990D3*
X2775D3*
D61*
X4100Y2766D3*
Y874D3*
D103*
X11130Y6495D3*
Y5825D3*
X10350Y7755D3*
Y7085D3*
D99*
X11585Y7090D3*
X10915D3*
X11585Y7760D3*
X10915D3*
X11105Y1390D3*
X10435D3*
D101*
X9160Y9194D3*
Y8446D3*
M02*
